<mxfile host="app.diagrams.net" modified="2020-10-26T11:12:22.664Z" agent="5.0 (X11; Linux x86_64) AppleWebKit/537.36 (KHTML, like Gecko) Chrome/84.0.4147.105 Safari/537.36" etag="Vr4eiDJ3p3xBcShnrizi" version="13.8.2" type="github">
  <diagram id="bN4tnofKwUY5rWcoIgAo" name="Page-1">
    <mxGraphModel dx="1422" dy="1970" grid="1" gridSize="10" guides="1" tooltips="1" connect="1" arrows="1" fold="1" page="1" pageScale="1" pageWidth="827" pageHeight="1169" math="0" shadow="0">
      <root>
        <mxCell id="0" />
        <mxCell id="1" parent="0" />
        <mxCell id="DwSio6ZUpCMT1keC7chz-1" value="" style="shape=image;verticalLabelPosition=bottom;labelBackgroundColor=#ffffff;verticalAlign=top;aspect=fixed;imageAspect=0;image=data:image/png,iVBORw0KGgoAAAANSUhEUgAAApsAAACkCAIAAABXQ3JiAAAgAElEQVR4Ae2dh1sT5x/AVZKAigqyVCyu1lXroG7bn6NWrdbWutpat62tttXWLq3WWltrgiAqhBEQZG8uexESEjIgiViLdaO4FUIr/gW/5y65yyUkF4Iowy9PHr3k1vt+3vfez7vursf58+efvAB/Fy5cMDSZ4QMEgAAQAAJAoLsS6AFG765JC/ECAkAACACBF4oAGB0a7kAACAABIAAEugMBMHp3SMUXqhIKkQUCQAAIAAGXBMDoYHQgAASAABAAAt2BABi9O6Siy8oa/AgEgAAQAAIvFAEwOhgdCAABIAAEgEB3IABG7w6p+EJVQiGyQAAIAAEg4JIAGB2MDgSAABAAAkCgOxAAo3eHVHRZWYMfgQAQAAJA4IUi0AWMfvTo0aKioqd8rh08M+6FytYQ2e5LwFR5X6dphIo4EAACLgiA0V1A6b6lIUQWCDxTArrCvB92/BGVfcvU/heRRZly5J1Xh/bv03f4OlFV+x8fnhINBLo+Ae+N3my5VWtQivkIwhVI1earDx7bm8//3b9sVEn5CILwpSrj5fv/2Vd5XGq+8ejK5Qe1txpvOG3aWdvoplO/iuirVJkNz6qIzI2T0ueXxzx6Vsd3Vya27byarCV9GK99ZTa6O+yz+L08aS6jh+2vZ9/FzAdOrIy5+8fS8A3w/xnTYmR6z5duVdIXQ3pZ9+nZ06f3wBELPj6o1TyLWGh4a0IYIzcpq9vj4Cap9Id3Z780wI/OGDD41ZU7T/3TrinySMjaMXVIf1qvnj169Og1+IvUSjLJB6eWB/Xq0dNvLkfdHnFxSE2NcP0w/5DXv/79pCirtP4Z1BjIEYFlINA1CXhr9Mf3ziu4iKTyr8vX667WGuQ8RGK6ZRP3vzeqRKX8cuM/1+qu/WMs55eKqm7866Rnl1+Nt9SJpt9jDD9ZP6k1Uf/cryG2BKO3e+FIfcAuZHRt7ZljWdGsrGM/fjzcx43R6QPf3Jl7KraQ+MSn1RqoCWBrUaPTBr/1TR66Y3TKt8te6+szaPGRy+3vknY0uu7svhkBPoGzPvz+9PGjcdv/N5LhN2l7unNFx8GUrUBh316RuWQALeyNnw8fRbHHnKwsd6wbGbiC3/ey2UV37bt4dXz3Gxt50bP6DVj0x+12PzIcEAh0HwJeGr35lkmESM/esbXLm++dkyHC6nrs67/XtDxuxcVGq4qbGy9WcHnaax6VLrtaQricWDhetdd4S209UtuMfsHTn/uyo5Wpi7XRV0Mb3YarQ9roeCIaiw9PpLsxOmPQ6ri2KA01On3kxpSHtgjqzN9O9GVMPirQtXflvf2MbszZN5oesODwVVu1QyPdMIwe9F6RHgfVyrztbjNj3i/j6QHvRreFp7tjtvJ3k5Q9r1//+Qevt3+Nqp3gtDIisBkQeIYEvDW65X59/b3GZrwB3XRJjSDaa6jRmx/VKhCx+Ta+rvm2WYwoah/h3/FdHP7/5/45wuJbf1+96eAHO45/bP3lRPXPdxrrnzx50majU1yo+EQ51MqMzRWxeeVTlot8Z4kGbyo/cNZeZCQdEdPfU6Xg/d4aWXnADOn2s9b0wIy+RsUqUU59z8W+FGdHV1mMicmKictFvtMFvWaLhm0r31dtsjZ39PWVs2cKerzu9BFOyzRaN9DqVRGzpNtkuq1fSgbOEfZ+W7ogQS+x2HIJZZjRbaSV6uVbJQGzhYw3xWN2qVgXbPH1eF7qGHkyugHJ275gyuB+vnTfwPDX1uyKu0juDTZJpT8ufyMioDed0S90zLJtrLMkCVk0OUnrZo8P7s2g+Q4Mn7ByR+x5p2HUthq9UZ54eOnEEQN8ab16+QUMe3PVPpUab3Q6G93wkLM6nBb2GQfvZ9YXZ2+bOynM35fGCAyfuPabhCukGFGH2VKRFrV0/JA+dL/+EfM3s5LXhDn0ulMdWVu2McJvzLai2K1LRg3sw+gdNmbBQQ6e+obYTwLok3bkECNBjRqBmSuoJwJGkQqGU1uCGbO/io59/7UIf4Zf//A31x6q0tkS3VKlvKmS3yhP/W40PfCdI1dU8hsq+Y2K8nu2I+v/2TfVFx/WoI/ZriXOiGXLBunJvfNeDu3N8A8ZvfzLUyWfjvLzepRBnbk0oN+M7/5yPHJ7166oMzmsBQKdnICXRnfQ8ZMnzXfMEkR69i5q7eaHfysQifnO4we1SqGy9sFjdJ3i74eURi+8wCGM/nX8+rdWzv654HPiF9nVkudgdNoiycxfNZza6iJd5eqPhfQPVESzjNKOqNFp70imfK06INZF56veWOawL3XCS0vLBkwTTfpdc0SsO1aiXrVB5PO2glmPFX+PqlNEWpZAu+cHsc+b8q1cdJkl0HIu2tSLGn2G+OWN8hWp2mhR5c7vJX7TRAtLbb6nDLNZd0EzY64gcJPyu1LtkZyKBR8I6e8r4+606rzUMaI2eoV080g/Rvg7n/6ccfxIzMZpg2m9I3dmEs1fa1/xzA+/S40+cnL7gtG96aM+jLPSaDIJUxYOpIdM/epnVmlCdPyWGYN9GK9tz8D3xUJFafSwFdF1GuVt/HNHjzeyTdLUtwf4BEz67KcjeaeOpXy/atoAn7ClTFsr0Nno+uuH/9eXNnpvvnV3Jf/jCAZjyOJtaIyi108dROsz69s8W+XPQ5jLi1aG+fgOe//L3/LjWDEfzZ42MohkdMojm1GjM8JenjF9xZ9Ho3P+2LlqpJ9P4MLTZVhFRB/9cX/6pJ15hNEdhUeZCqjRaYOGz9p2OP28nKv6fcU4X8YEG2f99V9nE8LGxe0wjv6Az8mJZmVFH/lhel+Gk9GNpdEz/X38x6z/7khhPCv64//NGx/m67XRNUWrwvpN+qoKjI5drY4pS31twtoXh8BTGb2pTi9EpDWY0Amj/1dvFJYKjfX/tcbo8cZfCX/vK/jirZWzjyi+JX7JPh/3HIzus0ARhQ/7aZTKsBmSTypt1wylHVGj95pbdtgmHrNSXB5E2pc6D6Udk9AWlMfirX/9reo0nQHBg2Hd1914Nmr06cLItGqbmR7pP1kh6Pu9VoVd5JRhNuexpfT/lR26YYug7rw6coF4Kd/eLWFoMrs7L3WMKI1uOLFxIG3EusT7tvMqcpYNpEesl1vngmF9uf3nH8L7inXV30YGhy3NtM6uMpaU/rI3I0du64QwSdhv9qaP32Egl+xURneaGUeaQFed9s0IWvD7sXgfsv4GN02ei9y20sCMPmJd/A20KiD/J2v/2gi63/gvtNYw62PWBfi8tDbOlmQm+ZnFAfSRm1W2GFGGWX98XQBtxLok23mNCDOSQSMMR31kzOg0RiQL7/x/kP7Jyz59V0VhqU9tdOpUQI3eK2gpCx+oLkt9qy9j/A6rQR/JsgXJbH7igfURtH6zd5Yks/nJbD4n1VyBd2nYUlZT+F6Ak9Et0p/mMmiRuwps9Qwj/9h0UnxtO7rLXboHWtXtyvLr/JNfv9pv1Ee22if4DAgAAVcE2m705sZrehEiMtRZrA13vI3uldFPVh8g/N3S6Jl/nXgORqevUmXgbRrd3+oJM4RLhDbDUdoR63VfqTpD7Hu+4lXSvu5KKOvvMq4iYLpo0mH1IZH+TK1RhfeZk/dyZ1ZrG32NiigKTceZssgjWqvzqMMcd0hMJ4WZfDpi2d15iQ1cLlAZ3aI8sIjBeOsXvHPYrDPuepXRd0mOtWvdELc1lD522xm8fuPy+MSPGm7LmeFURqf3n/MVLzVJZPskS0ukeOVAlr44gBY46dM9h3I4Z8xylcNdzqjRbXPd0VZpz14Bo99LLtVYryJL+f63GYz5PwseVmsfoR+N/stxDP93bDEikgb3HDnMLWhokNXBRBvd05GxNvqgNXxi3EFz/OupkTuOY6lPafQW53VKhVNbgunjtmXgqVAp+GgQY9iGMvIMfPTeAfrA92LwOhCRKMSCC6M3FGyfSOuzJsaGrsms4a5u9dx+Q8wnQb39/Px69wkc89Y35RqnCgRxXlgAAkDA0GRuo9GbLTfNch6vrOYWMfONMDo6fi42325VGz3zrxMURhdcynl6ozvNkLOmOnkcnXwHmq4WNfoiQauNTrp7zWlfD9nLYkxKUUxeLqJPRcfLGQuly7KrrI1sYkd3ZrUafW2FszasO1IbvTV33Lk7LxEwlwuURlfsX8hgLDxoN7p59wRGn0VZNqNjLvk0E3eJ0/F1l5K++jByWKi/nx+D4ctg0Hv1tLdorRAojU5hoMaypD+WTx7Rn96zZ48ePRkh45edyMNTATU6LXzJT/zUpILPX/enjfoum3CSwYLGyN79bF3qScTITBVmbF8yDYeZcZ6OjBl98FoBYXRyNqA2unepgBk9Yn17GP2z12h91x4n6DnE11U7g5QBTDJTRookLZl77Kt3IwKnf53lJpOQdiEDgWUg8GIRaIvRmxvqqmVcntx000IaJCdmxjU33q2/a2lu1cw4Q72SMPr72xcu3zx//d73iF8u3//76Y3u8lJ3MDqpzapzbGc721GKzoz7vMaaRZ6qjU6ESnvXWFyt2/2NmDZT9nWtQ+ZzZ1bvjO4Y5q7XRm8U/DivD2PUku9LsnOrivOrirPZSwYSLVqbD9pqdFwn2tvyYtXJ3e+F03wnfm27pZ48jl4Zt22IT/Dbv1/BhyewljR9+qdxisy0cvyjzCm5gW1AHWZrW5lUv3HodaA+cpN1HN2d0SlnxrWqjW6vV7Wb0RsF38yiM+bvF+EdUYrUt/rQiVEGhzxPXBctFzRFq0L7Re4ykUdbWrtvy6PBL0CgWxLw2uiPH17RSxCeoqa+yWma3L9X0bvXLnl199p/j//LOR9PKJy8ILycaz3Bs57r3ut/Zb/h48oKgSKQNBaOjjrPVfxpnTjWZBZmyRkz5T9dsxudPI5eLla0ehzdxNXpYjTVStwolVrl0BniDxS4MLDf8+LRs0c7TAFDT01tdMowY+Poc+3x1f2tnva2eDneJ2HN4u7OS30BULXRmwwnNwXRRq5LchpHt7X/sHH0AQt+I8bRTd9NCxuyPBt7nMuDE0sD6GP3F+LT2czKrHf6O/vAWPrnFHrvBb/jY8B4UKl7iQ1c+ckYMdeeCrINQ+khHyDWu9XJRjfrjN+85kcf/WMuMdE9Zl0Abdy2M0TqNOjLb6orrC1ID2HGxtHt/dvYzAB7rwM6ju72yB6MbszZN4Ye+PYf+C1e2N1rA/G716hTAR1Hp497BkZvqs76aTSdEbHkZCb/pkak/vPDeeH9netknt2syX43sN+0b2vA6J5Z4fkftnzhCHhp9OY7ZyUIIlKfu1JH/N24/cj6iBnbE2ZM2BNmTNgTZm4SnfJO+rd/bfqvkXsxk+zyE9U/l11FLl++fOjQoYMHD3777bc//vjjwYMHY2Ji7LtRLjU3N1+4cMH4oMZlzjY+qEHb6GiLAW1nk+erz1oipK1QcfBhQm1NxYQ5wqG7Kw6Jdaxc1fTFAv/tmlJ8FBbtwX5XOhWf6z5nqcO+Lk9N/Jh5Suo7QzzrGDrXPRrRfLgZnWR30FZXsOVCOVfRf7p4zsnKo+hcd132Tdvv1EanDLNtrvvAzcrvEe3R3IqFK4X095T49C4P5yUC73IBNTpt2NJjUSz02SPWj/0JJBUydK770KXb92eic92nt5zrPsBn4OyPv087fjTui4Vj+9BHfhh3CwtPA7J7pm/vyI3HzcryOnFOyY8r3hnTcqa0RvDRYJr/+K17/8hETx0lQDBPUxu9OnPfWF/GkFnf/Hwk91R02t4PZw/sFTD34CVrvcrB6AaLkrl2oE/woj/waoeS9+FQRp+Rq3YezIplJX//4Zsh9NBFf1gb8Z7CrChaGUbrP2lX1JkaYQH/p3ffeCmAZDiqI3swutn6hJmgN9b9kH6ciT1hxnfiZ2l4fqZMhacxuqncmByFJTo6150Wvugomg3wVDAbbmd9s2QIA33MXE/fiLm7j60aTIqvy+zU4keTLHFBv/5zD+D8W2xgy73wOxB4kQl4afTHNwz80hLHv1L7LWr/3b9crZLwkVKEL60wXfHiKbC3Gm5ob8gr6kTVtyoeNN21+loul+/C/77//vsrV65Qetxh5cOHDy9c/Kel1I0Pamov1prvncNSHes5J+4pn+l8P7qhycyVVsz/SNxnhoAxVzzh+4r460TBge7L2KyOK1ZGLhcxXO1LlbEeVcfGKV5dKmJME/SaJRqyQbFTaSSaobYdG6qZR2Th/xP2nCroMU1MDJxTG50yzGjg0fvRt6D3o9PfFI/+2n4/uj20bs5r3wDvWiD/ghodLbLJf+SnhGJ3Qk8ehN69PWDIhFVfOj6dFLsffU5EgB+N7h86eulW8v3oGtPRD+cND/DzofUNHbP88+P8rya0vJvZUp54cMGoYF/s6aQ9aK9bZ1ZTG91seCiK/XnRqxH9GD49e/n1HzJtyU6eDE8FR6M3mSsrPnuZTh/9k72ZXpSx5X8TQ/syetH7hY5esv7XSvu8LQ9htt6PPrgPjeE/ZM7aQ2e2ON6frac4MuU4OlpJRZ8CO2tofz8fer+wce9/caKWPLWNIhWexugoZ6d7Cnr0IFLBeslUyWvyM3UC+UMzNhNw1BbbfQHEBUW9YH1m3OI/He8HIedAWAYCQMBLoztI83l8yc7O3rVr1+7duw0Gg7fna2xsdJK6VeckzWNGJ81ugwwBBIDAMyZg5DJfZ/hO++GCd/3nytz3Q/2HL0ssENdrNQ53JVBXBWAtEHiBCHR2oz9+/PjkyZM8Hs9bnVu3J0u9hc5tve7kue7PuCx7gTIWkAQCZAKqs6lYt3zUwd/eHxfQa8CSX3neWvkR97d1YwL79PaDd6+56iQj04blF5ZAZzd620RO3ssqdfPtc7UXa0mtc6tcoY0OlQwg8BwIYFMXe/To2dPHNyhiyic/puBz97wseY3lF4rOlGXDu9e85PYckhhO0SkIdH+jP3nypKGhAZ0od9/1RDm4NoAAEAACQAAIdAMCL4TRnzx5gt+A3imqUd0g30AUgAAQAAJAoLMRAKOD44EAEAACQAAIdAcCYPTukIqdrZ4I4QECQAAIAIHnTwCMDkYHAkAACAABINAdCIDRu0MqPv+aIJwRCAABIAAEOhsBMDoYHQgAASAABIBAdyAARu8OqdjZ6okQHiAABIAAEHj+BMDoYHQgAASAABAAAt2BABi9O6Ti868JwhmBABAAAkCgsxEAo3dmoxuVxcKCY3KF82u/O3OYX7Sw6QrzftjxR1T2LYd323e267wrhOdFI/mixfdFKxk6Jr7eG73ZcqvWoBTzEYQrkKrNVx88Jj9F/d87FyrFSEmpsLre4XfyNh2x3EmfGdegE+zJjH2JzQyMPxrAjv1WpSe/g+Gh4syI+KOBCSln7C/E1KblsALij1o/Q/IF+KuvHYtsk+JwOnNEgfBhx+Qqx8C0MgzPKMzVvKIdb0UO7udL9x04dNJHe5KuePXKL0/vY31wanlQrx49/eZy1G2KdSvheLWZpzDjeUzDWxPi9XvKKUPySMjaMXVIfxr2Tlvyu3SxvajXPhOST5P6RiFv1+Lp4f39aIwBg8e/vz36nMExiVvL2XEvHOAziS9+cDyJXZ8a1nZfAt4a/fG98wouIqn86/L1uqu1BjkPkZhu/Wd19OMHV/RSLldSoZIiYPTWXEuVefnRwRzOYSk/Xy7ILxPrqxz3Mqkk0tKUciXpndD6fyqE6Mbykm2nmWB0T1emRrl9jB990Ntb9505fuTYusgwn75zvitoaH3B57HUNnAFv+9ls4tIaeSYiK0/V3tt6THMthO1u9EVmUsG0MLe+Pnw0axoVlbMycpycg2Veq2hqf1JPk3q6wy7J/alh721Ze+Z40dPbJ01lM4YszH5HjmNWsvZTX5o//i6ORE5zLDczQl4afTmWyYRIj17x9b+br53TkbIu/lRrUqm++duU8NFFfFjR7THXZ2zU7bRTeV/pDOHFQhdt7M95Dwl6wwY3VMRZojbFkqLWBtn061JfmZxAH3kFpW9z8PTEZ6y1PaQiJ7Obt29Wqpmp9S2vmuhtWFub6Mb834ZTw94N9p1fqZe2y6gnA7yNKlvLPj1VXrAoiP1tmOW5ywLpIWu4pKb6a3l3LpUdgp8G74ai4Xx+fWtzydtOAXs0tkJeGt0y/36+nuNzbg0my6pEUR7zSr4xxYL2lpvbvwHjE7ddrSYtPVVlTerZPvTmMPz+VfR5cqb1dp7+FjsRVFSKN61Hpyeb8B/Jx3WtdHrJBxiR6JzPiAhKZ4oiYzKAiTlDc6xUDZreGrCFoHkqv3gemXpybD0PKQsd1VazJCEqNHpqX8qNZZWZmL3R27UIauTma/k8S7ZDqVKyokO5qTlYqHyHGZ0L6X488ihA4e+/X1W64cSLMpfFjMYCw5I8CjojLvGM/zfydFjhazh1JZgxuyvY+NXTxnR39fPf/CslQe0Wmv5q7/+62zfHi3+GNNiZNZ2p/6ffVOJDehjtmudSlIDkrd9wRSstz8w/LU1u+IuEhtYz/tVdOz7r0X4M/z6h7+59lCVzlW5b5Spj25bMTao36gNMrz/plGeeHjpxBEDfGm9evkFDHtz1T6V2hYkT2E2WCrSopaOH9KH7tc/Yv5mVvKasBa97tScXa+1VClvquQ3ylO/G00PfOfIFZX8hkp+o6L8HhZl6rVNZk8kPae+m1BRp77Z4J6kocmY8/MYWv+Fv9/AM3+DVn6tvByrrHjMG9qyjRF+Y7YVxW5dMmpgH0bvsDELDnKITEgZX095o0F6cu+8l0N7M/xDRi//8lTJp6P8Rm5SWmuohhObwvwHv7bs4HHwuqurCU9KUina/Tbz0ui4yW3/N98xSxDp2buE4dHfwegec4xrh5HG0R/opAVo1zr/l6yoEG+M/kgnK0R3LN6UygzPys1GlwX5ZdLzNp1oxcUnQxJiVyKluWX8uJKkMeyotwXleC80avQQTtxbWRkxMmGhtGDDaVZQ8ulMojZAdUl4OPI/0tSX2cc3ytUWs/6iNHUUO/bTMltdwVOYsavOWHg40t/Pr/eAuQcu26sgHi5Ii2L/QgZj4UGiMNWZd09g9FmUZTc6bdDwmVsOcszCIvkfqyf3oY/emGJtYj4UpuREs7Ki9qwZ6uM/fWt6NAvtST7OOWfd12x4wOegG0Qf+WF6X4az0Sukm0f6McLf+fTnjONHYjZOG0zrHbkz01YXQUtt2qDhs7YdTj8v56p+XzHOlzFhe4ZDTcUo0zA//WBsUN/AEYs27BdLNLZMZZKmvj3AJ2DSZz8dyTt1LOX7VdMG+IQtZVpfN+4pzOVFK8N8fIe9/+Vv+XGsmI9mTxsZ5Gx0as6u17oxnG0cnXotmoKUJFuR+q5DZfCQ+pQkm8wa2cZhdPrgpbtPnaskjx2g4fHEGTU6I+zlGdNX/Hk0OuePnatG+vkELjxdZjsOVXyp84axNHqmv4//mPXfHSmMZ0V//L9548N8CaObDfcE8VFrpw/v7z9k4rJfY8HrHsoHjwV1F9zgqYzeVKcXItIaR6GD0T1nowaDQqKUiJXI9lTm0OwCHrosEStlNc69wTqkMNoro+PlvpuZcUbhp0nMV4vF+KBvZU5+dPDpXI3NkajRgxMSY3W2oudhRXYkO2qDXOs5Z3s4sqHJXJGRFxPMSc+v5G3gMCcWiuqc6gceZsbp67IO7t2yI61AiTe4PXP2UKajpadP8LIo/FYCDW9tGOOlT6R4axiNteeeVU3hewHORjec2DiQNmJd4n1bHBU5ywbSI9bLbW2pU1uCewUtZeHnLUt9qy9j/I4qa63LpNCxtq8cG+QfOGrp5l/kMtzl1kNVp30zghb8fizes62/wU2T5yK3ybUcd2HWH18XQBuxLsm2rxFhRjJoJB9gqUzN2fXaR7JsQTKbn3hgfQSt3+ydJclsfjKbz0k1V6AZiXotKWu5ImkD6Pq8+L6u13pIfY8kNelH3hzk27Onj/9Lcz/YmV3cIuO542xGjU5jRLIEOmsIH6R/8rJP31VRKjzA1qzrKr5onnSbNyzSn+YyaJG78IkgRv6x6S1T0HBPEMdaO21YP/8hk5YfOll0x+lCg6/dmUDbjd7ceE0vQkSGOotzwx163VuZYzw4zNBkbmejW6qQFQms5SL1I5O+Af3oqnnxIYlphbYWvLWNnikm9FAt+iEzcU9ZpUeJejoyWoRZDPyNHOao5JjQ1Ewe2ZpWXJ5peFa4Y4npqZWGlp70cdsyHtnSS2faNYHRd4mtT976o9tSmwiMi3LZojywiMF46xd734Bx16v2Izuft1Lw0SDGsA1lNt/HfBIcNHnFXkWZq4qUSZa+OIAWOOnTPYdyOGfMclVjy8zmJswtQqVBVgc7t9FbHq31v7g5ry1RqNeiZ3FB0ilBvfrqweitIWlWnk3Yt2fp5Jd69+zZe9Rnp4gExVLfbYywNvqgNXwik2uOfz01csdxueN15Cq+lHmjoWD7RFqfNTFEJU/DXe32boW7grjD77wSPGKdiAhG65MStuyqBNpo9GbLTbOcxyurufWvk8+h1731WcGzw9rd6KXvJ9jufCNG2QMT0/LJRk/JkhBGb3VcLFXUR7b6TycrOREUz5zFLcP7+QkvGpo80yBt3LqAeSjTraXnp5mE0R365K2ncFtqE4FxUS57eV7M6BHrbUavzjk2b3hg3+DJS7an58tagmosS/pj+eQR/ek9e/bo0ZMRMn7ZiTzHxp+bMLcIVbvPjMvdP5Y+8L0YvP+AQIQtuAkVSdIuSJLWOh6tFRmgRXwdx1zMBs8k8bM8ELI2j2TQWtt/gxl98FqBB5W6iq9znnTIGw0Fn71G67v2uN3obu4/1F7NOfzjorGhfQe+uvy3GtvV7TXAp4EP+3YQgbYYvbmhrlrG5clNNy0OA+j44Dq00fGCwEOienZYuxsdWZHAXICIVWp5Bf5Rq1U3bQHG2uhtNDr1kdHS5IE6f37isYhTTcIAACAASURBVP9lxA1JSorVOo9NPhOjU8+NwkrPsVvPEEZ3aElbmbTJQy1awzqHI1OW2lie0VxI3bdjzrCAPsGTFn+WlufC601m7W15serk7vfCab4TvzaTS203YbaGijSrQMNt3/vR3ZzXdhVQr0VpuzJcKy8lV5t5mBdp38UVSb30PLfksn0EXX/14Cxf+mu/c20d6Wik3MboWRm9UfDNLDpj/n4R3tZXpL7Vh+4wblJ5KePgNwteDu4zcNyCzUlZEjxvg85fEAJeG/3xwyt6CcJT1NQ3tWidW3+AmXEeRE4UJU9ldFVMBnNwLs/1IJmp/HeX98Vho93TETlxnTcYtfXVOrwh2HajN3k4sqHJKD+YzgrPKKyqlu9PZw3NLKx26glwF2YbLnSsdN/WnemFytbiNRuaDPFUd6+hZu3Vf/5v+Gx/RfbSQLpzOyzvwDj3d2ShYXPlIcPJTUG0keuSnMbR8X51rLff3jfg0A4jxU5zIXXvF7MjAvoETfrgd1tLy8CVn4wRcwkIlbINQ+khHyDk2YtGN2HGxtHtowwmCfvN3i7H0d1zpkwFt4bDClPqte5Itir13YTKQ+pTkWzk755Jp0//thgf1ND99d1kBmNajJRUE3XHGRtHZzyDNnpTddZPo+mMiCUnM/k3NSL1nx/OC+9vHzepzoleMHJgn8Cx8zclgsttOecFETkRTS+N3nznrARBROpzV+qIvxu3H2GPmGm23Ku/efPmzRtXjHKEr/67Dv1CutPNTQXg+fzcOe9HdzN/zaw1K7E56thc9+DUtOPYlHWJljywqpMUxwYnsr8U8fJcrK3MzkOfXXMIe3ZNQbkCn4amFRWfCEk8tYGH5JcJ0oVZSzjoTWVX8XITnevepjZ6k5n6yFoFEheWyP5TgzZx7qpyZiRELeArHGZ3m92F2eqDtsx1bzJbnzEyeNFWdM559Cevh/n4v/E9PrEINTpt6Mgp72w5kMeOZm+bFU6jvbKRg2vYepHI0xf1p4XO2Ys9NSU7PvuatSJiKjcmR6Gz37G57rTwRUejWFnRUQLE6toKGTrXfejS7fsz0bnu01vMdaeP82x0awDUtSk/7VjxTbm1C7c6c99YX8aQWd/8fCT3VHTa3g9nD+wVMPfgJYfqkZswmxVFK8No/SftijpTIyzg//TuGy8F2H1gzQNu5o3b6hke1rap190DyVakvttQUaY+NUkjL3FeoE+fUat3/pIZy0rc9e6kfr2C5v7i+FQAd5wp2+jU8fXUf3M765slQxg9e/To0dM3Yu7uY6sG21PQwP552aaETDFRXyfVDq15ydBk1iq2veLfu9+cPUV4PZ5YBQvdgICXRn98w8AvLXH8K1X8/RDtfX98Xcd1XFNSgmiutBxofz4OdzxLlzI61nYnxrnxBeY8PnGbGZrzLFWSI7mnRiVgT5CNd16LPV/2xEvso4HxR4PIkjYqc5GUOZyoEDZzKCduVQlXb59gT91Gt06mc/4Xb8QYmtwf+bYye2pC1DxeGT7CqpWVnApNYB9Wk/owzQa3YUZloxR9PiU8MHyhN/ejoyUa9hzQKYP8fWm+QRFT1v/IuUZ0UGOl54StrJR1U0f29/X1HzzTfj+6/dp+JGDumBren4YOW/sQDS+0xUlrcbs67XViHjJ2P/pk9LyMAUMmrPry1D+O52210e0hsRbQD0WxPy96NaIfw6dnL7/+Q6Yt2cmTOWBEp5e7DLPZdj/64D40hv+QOWsPndlCupvZVquj5ky5lroV7m6tR5KeU999qChS32ygJmnR5CStn/NaaF+GD6Nf6Ctvf3ygwnbfvz1F3HCmNDp1fD0ZHc0DVfKa/EydQP7QjM1tHOXVE5OK/oj07x00P1FO6mywJb09Xq6qArC2SxDw0uiOmuxC3zql0bvUheT6Hvr4qM1lzjrpMsWBc+nZJa5YCCQQwAkYuczXGb7TfrhAVBY9FSmWsoNLB/SJWHkcfxYefihPO3aZi/pFjwgY/UXPAa29pBuqVDp1WaXTR6OotTfxW3uozlI6gNEh83c9AqqzqdhwT9TB394fF9BrwJJfefZ+Mk/RuRO7fJD/K99mELPlu9o16ymCnaVs6bBwgtE7DD1cSx1NAIwOmb/LETCW/jmF3qNHz54+6CjSJz+mWB8X2DqTVYo3DA+I3G1sdZu+dYft6Au5yyXiMwwwGP0ZwoWMDgSAABAAAkDguREAo4PRgQAQAAJAAAh0BwJg9O6Qis+tAggnAgJAAAgAgU5LAIwORgcCQAAIAAEg0B0IgNG7Qyp22gojBAwIAAEgAASeGwEwOhgdCAABIAAEgEB3IABG7w6p+NwqgHAiIAAEgAAQ6LQEwOhgdCAABIAAEAAC3YEAGL07pGKnrTBCwIAAEAACQOC5EQCjg9GBABAAAkAACHQHAmD07pCKz60C+NQnMiqLhQXH5IrbgB0IAAEgAATamYD3Rm+23Ko1KMV8BOEKpGrz1QePiVewUawitumgBXj3WqtljL3LdUSB0PHl5a3e3ZZBdaKi4yGnc9UO7+02PFScGRF/NDAh5czzeb+L6dSvIvoqVWZ7vwq6vKiM8bqgB/bp+YaC+XSsvGUL2wMBIAAEXBLw1uiP751XcBFJ5V+Xr9ddrTXIeYjEdOs/TNMUqzpI46TTgtFdJr+rH5+l0ZtMKom0NKVcebeda6auImI2ND0ro2uvGI4JtCyB9sd9Eh8wOrzPAwgAgc5BwEujN98yiRDp2Tu2dnnzvXMyRFhdj36lWEUya0ctgtHdOK+lWZ+p0Vue7pn+ghl9dfu30QmYxckyOhi9c5RlRKLAAhB4YQl4a3TL/fr6e43NuJibLqkRRHsNM7r7VfjWHfh/5zO6UVmApLzBORbKZg1PTdgikFzFO6gbdcjqZOYrebxLNtupknKigzlpuQYsm5rEO5NZi/giTlHixCRWWGLs20WIgfx6RPdHxkpejUJ4Zklq9GA2aygnfi0i+Avft07CCY0/GuD0SUiKt57Xk3ot1fIT+eyxicywpJPLSwXpRbHkXveLoiTi4MHp+QY8sliQ9MrSk2HpeUhZ7qq0mCEJUaPTU/9UaiwOZ1SKP48cOnDo299nedHFjRl9jYpVopz6nsh3lmjwpvIDZ8mnNiHiigXrxP1mCn3niV/7oSLuGvmk1GvRLcHoL2zRCREHAp2QgJdGd3Jy8x2zBJGevUsY3r6eYpV9o+e31NmMrhUXnwxJiF2JlOaW8eNKksawo94WlOPDvfp/pKkvs49vlKstZv1FaeooduynZbjhUKMzx5xO3imR1eiU5dLMNxOZU0tlD2wq8nDkv0TJw9gxC4uLM+X8RG7q1ATmlGLxLWzfRzpZoVyQLy/elMoMz8rNRpcF+WXS87jyKZtiWqQwNijh5Doet0QhiC/mzD8dQzb6A520AD0g/5esqBBXRg/hxL2VlREjExZKCzacZgUln84k1ySMhYcj/f38eg+Ye+AyWclkAbdcRo1Oe0cy5WvVAbEuOl/1xjIh/QNVCl4nqKhUjZwlDP9K9TNPeyRTNW2xsPe6isxHtuNQr7VezGD0TlioQZCAwAtL4KmM3lSnFyLSGldCp1j1/DROOlMnM7pR+GkS89ViMT6cXJmTHx18Oldjd1VFRl5MMCc9v5K3gcOcWCiqI3SFGX1kgeCO7RedqDg2JDVbYd2X+sim8j/SmS/lcq/b9tWbBIkjOel55Hlqbet1N4o+TWJOLJHiFQtVbCYruMXMuCazDimMdmn04ITEWJ3eWml4WJEdyY7aINeS6hD6uqyDe7fsSCtQOrbdKS9d1Oi95pYdrrfFVykuD5oh+aTS+tV04hcRbbkyEQ+zQqgYOEOyXteatbYDgtEp+dsowTZAAAg8HwJtN3pz4zW9CBEZ6iwkcVoXKVa12PY5/dC5jG6pQlYksJaL1I9M+gb0o6vmxYckphWSWsMWA38jhzkqOSY0NZNXRcoNmNGnI2VEg/4snx2SmFaA7evhyCbxlxzmNESO70s6LFH4tsnolirkgwTWe2K8I8GsE7ia605h9BBOppio0FSLfshM3FNW6YW8ifCTF7Be95WqM3h8decrXp0hXCLETmQxHtgpZHyhkeBn8WItXtUAo7vKQuQkgGUgAASeH4E2Gr3ZctMs5/HKam7966xkilXOmz7H753N6KXvJziPWAcmpuWTjN5k1slKTgTFM2dxCXljpWcLo9cIUKNb97VUUR7ZeV9XxXEbjV76fgLrfZLRXd69RmX0lCwJYfT2ugAwo5PuXtPVqifMEC4S2Iy+/wtHo7d+LRgdJ+AqC7VX8sFxgAAQ8I5AW4ze3FBXLePy5KabFucBdIpVz1HfLk7V2YyOrEhgLkDEKrW8Av+o1aqbpMR7oM6fn3jsfxlxQ5KSYrW27mi0GMWsTGpn683ObXT3R37GbXSy0YXettGfmdGhjQ72BQJA4MUg4LXRHz+8opcgPEVNfZOzOClWOW/63L93LqM3YaPd0xE5PgnL0GDU1lfr8M5hQ5NRfjCdFZ5RWFUt35/OGppZWE20XzGjk8bCKwvyY4Idx9HdHhkbR48gjaOfFSaNTjlT4DCOXv57OnNYgRAfXW5dIwwbRyeNBWhScqK8GkcP8WB0dBx939ad6YVKL65M53H0crGCPI5+EhtHT8JjahtH11vrVSbKtba6V2mqjD677Hd8PkTrWJHqbV7EBfYCAkAACHgg4KXRm++clSCISH3uSh3xd+P2I/QRMxSrnru/W56wkxndrBUVnwhJPLWBh+SXCdKFWUs46O1qV22ppVUgcWGJ7D81uiaz4a4qZ0ZC1AK+wjZDGzP6+NOJaxCkuFyYgiSPYzNfL5Xdx/elPLL+L1FyBDtmUXFxVhk/mXd6WiJzcrHY8Zmsldl50cEcziEpP18uKChX2CflUWWmSqQwNjgp4Ue5/C9duViUviQ1mjTXXWtWYjPnsbnuwalpx7GJ9BKtde4beveaB6O3fa47/V3pVHyu+5ylQtoKFQdXeIUWnes+9GvVfj46132601x3yrVWeWsqlIOni8Yf0vzBRx84E1VRRa5waBXbXvHv3W/OniJ7XY2KIVQIgAAQAAJPQ8BLoz++YeCXljj+lSr+ftj85AnFqpaCfe6/dDajG5qMylwkZQ4nKoTNHMqJW1XC1eMN5dvK7KkJUfN4Zbh4tLKSU6EJ7MNqVPDWXvdZiCCjJGlyEis0MXZhi/vR3R0ZaxGi96MvTo0exGaGc+LWkO5HJ9qLDTrBnswTL7GPBsYfDbI3na2T+Jz/bcQVZb0ffUwiMyQxdnExNwc5FUbMdcfG5p3vdI9nzuNbb9hrhdHNStHnU8IDwxd6fT86Y7M6rlgZuVzEmOnmfvSPxf4zhYy54gnfV5zCK1XYRYXdj+52LRZxizExoWzUW8JeU9GHwtI+qSgggDQZi/6I9O8dND9RTho0wXERtGEBCAABINBOBLw0+nM3cXudsPMZvc0le2tmt7X54O53dP38mfiozWVYPcP9ju2UU5+m3tox+1rKDi4d0Cdi5XH83rmOCcYLyx8iDgRePAJg9C6nog4yekOVSqcuq3T6aBS1eNfCi3fxeDD0ndjlg/xf+TZDA2SAABAAAs+FABgdjN7lCHSNAFeKNwwPiNxtdLgj0UMl4Llc8xAGIAAEuisBMHrX0EN3zX8QLyAABIAAEGgvAmB0MDoQAAJAAAgAge5AAIzeHVKxvep3cBwgAASAABDougTA6GB0IAAEgAAQAALdgQAYvTukYtetUULIgQAQAAJAoL0IgNHB6EAACAABIAAEugMBMHp3SMX2qt/BcYAAEAACQKDrEgCjg9GBABAAAkAACHQHAmD07pCKXbdGCSEHAkAACACB9iIARgejAwEgAASAABDoDgTA6J05FY3KYmHBMbnC8W2n7VWbg+MAASAABIBAdyLgvdGbLbdqDUoxH0G4AqnafPXBY9v70R5f13Ed37OKVF5F35zeGf46+bvXdKKi46S3idty2EPFmRHxRwMTUs50nrehYO9FHVEgtL2snagPPbv3x1QlfTGkVw/rX89ejL5hkxd+ViCq9OIR6Mbc/WPpA9+Lwd9Oi1/AhlNbgunjPs18RMSCvGA/b8+evRgDBo1dtpVp1uP7krd0v/xIyNoxdUh/Wq+ePXr06DX4i1Rvgu3+sF7EHQ4CBIDAC0TAW6M/vndewUUklX9dvl53tdYg5yES0y2rtpst9+pv4n/Xa7USrqDqJq77jrZ6lzR6k0klkZamlCvvdp4c2TFGpw1+65u8U7GFp2KyDm5dPITu9/JGma7Vcm270WlDFnx9JpqVFXWIue71QT60UesS73iRForMJQNoYW/8fPhoVjQrK+ZkZTm8KL3VqeYFZzgmEAACVgJeGr35lkmESM/esYm6+d45GSKsrnfydvPDSxohT26ub+pokRPn75pG74SFWscYnT5yYwrRK3A3afUwnwFrjytb21Rtu9Hpo7ek2VrwJnnqW/1og9YKqlpddhjzfhlPD3g32rlvoBMmKwQJCACB7kDAW6Nb7tfX32tsxk3ZdEmNINprDkZvqjfLeGL91QZiK3zrDvy/0xndUi0/kc8em8gMSzq5vFSQXhRL7nW/KEoKjT8agH2C0/MNJrJF9MrSk2HpeUhZ7qq0mCEJUaPTU/9UaiytyY5o3zhrEV/EKUqcmMQKS4x9uwgxkF73aalWnC7hzEiOCmGzRqSy1/NEtfip6yQcIkjWgKH/JiTFG7CwYb3usxBBRnHSpCRWWNKJJcU8M+nImH2V4s8jhw4c+vb3WYSePVsZ7f12MHqT6uBiBn3mntJGLMoWTU7Sutnjg3szaL4Dwyes3BF73iZd/fVfZ/va+utJ/zGmxciwtjLW6z5hKyvl46kj+/v69Q9/88PDRqJfHTuv3ehmTfEHQbRBa/jWgzuHSlP4XgBjzHYtFmVLlfKmSn6jPPW70fTAd45cUclvqOQ3KsrvOQMhJyssAwEgAASekoCXRndycvMdswSRnr1rd3dzw2WNQFBx4b6D5J1264Cvnc3oWqQwNijh5Doet0QhiC/mzD8dQzb6A520QC7Il/N/yYoKcWX0EE7cW1kZMTJhobRgw2lWUPLpTKtZqb2OeXfM6eSdElmNTlkuzXwzkTm1VIY3ItUZeTHBnKQfxAJ+uZCDJI9hs2Zzy6yN1Ec6WSEapOJNqczwrNxsdFmQXyY9b7UUduTxaYkfcrk8pTiDmzyWzZrDK2sgh8dYeDjS38+v94C5By7jFYU2GL2h4LPXaL2XHZGj+5qEKQsH0kOmfvUzqzQhOn7LjME+jNe2Z1hrDA+FKTlon/meNUN9/KdvTY9mob3fxznnrNpGjU4bOur1dz/7rYRzKmX7rCE+jElf4MPqmLNf3si5rVff18pMp7bOGdBn8va0+9YYURndTU0CxtHJmQGWgQAQaH8CT2X0pjq9EJHWkIT+BO2WLy0pKeWJVcbL9//tAHe7PmUnM7pR9GkSc2KJFFepKjaTFXw6V+3sOR1SGO3S6MEJibE626Dsw4rsSHbUBrnWsx0x744sEOCDwTpRcWxIarbCel6Tii8uzVVX4s19TUpOVHB6QTU5VJS97hG53DpbHtVwcqJCzhSYyPua9XVZB/du2ZFWoMRP0YoKKebOEevib2iUtzXl17hx+2cE0ga+na7Aom8sKf1lb0aO3HZAk4T9Zm/6+B3kjocmql73XgMW/HbNFn1J/Bu9GeN3VFvrKOh58Rl5PXr0pAdNXXukhuhypzK64ZEsW5DM5iceWB9B6zd7Z0kym5/M5nNSzRUwjt6KFG//Yg5OCgReEAJtN3pz4zW9CBEZ6iwODv330d3bt+rrLprK+aVC/fXOMpLeuYxuqUI+SGC9Jya6ynUCV3Pdm8xujR7CyRQTsqwW/ZCZuKeMMLH7vIsZfTpCNJ31Z/nskMS0Ate9wTphy1BRGn0aIscb5XpxcWzI6RwlEcg2F9OOZu3Ro6df2PSfkiRu6gQa7poQxshNSvLdAVRGp4/degaf617J/zCMMWxDmXVfzNkR7x4Qp6fITsel7140pjd9+Ipom/4pjW6rWrk7b5tRwI5AAAgAASoCbTR6s+WmWc7jldXcctsMb7ys4XHVlxx97yD/5/mlsxm99P0E1vsko7u8e43K6ClZkjbIsoXRawSo0fNtRtdfVhZuyTz5SiIrLIEVmsAKZh917jmgNDq5riBBW//tZXRa+JKf+KlJotOcsrzSG0RDGc3ZuktJX30YOSzU38+PwfBlMOi9etK8MTrp7rVKwUeDGBHryUYnj6MrNg+n+c48Icfa2WB0qmLFfZ0S9gICQOAZEmiL0Zsb6qplXJ7cdNNiH0B/8uRxU0OD5T/il+a7NVJEdu4e8cPzFHiLc3U2o6NtdLLRXbSG0VR330Z/CqOTW9JmUhu9UVfybiJrSn4xT60wVpYbKxUp+Q6j+9i4teJwOrMV96Pr29XojjPjSNdDo+DHeX0Yo5Z8X5KdW1WcX1WczV4y0Ks2equNbrh5+A0/2ui9+TqUQ1XSDof5epqC9wIYYz/XkXs7oI1OSinPQ0KwMRAAAk9LwGujP354RS9BeIoa51vTMIOLTbfwKXGNl9Q8pALa6C5TCBtHJ7VosRFrb8bRQ57C6C/lcq/bQlVZkB8TjI+jP1CkD2PHH64kxnq1+fnRLdro5b+nM4cVCPEZAHhrrEXr35XR0XH0fVt3phe2+sYzzJ3Oc91JSB+cWBpAH7u/ELMs+rsy653+dOc2et6Bca7uInN+wgx1G71CsG4ozXf2qTLr+D12Z9qiP+utgTEJj89k+E7/6SK54wSMTkopMDoQAALPnoCXRm++c1aCICL1uSt1xN+N24+wR8w0P/xHxUNE6rMXr12/eqFagY2jd5JO9yedq43eZK5ECmODkxJ+lMv/0pWLRelLUqNJc921ZiU2kxyb6x6cmnYcm1gu0VrnvqF3rz2N0cefTlyDIMXlwhQkeRyb+XqpzDp/u0FbtDAham6pqKZKe0Ov4AkzVqfHhjrXMyqz86KDOZxDUn6+XFBQrrBNhWuN0dtprjv5qmhAds/07R258bhZWV4nzin5ccU7Y8J8nYxulqcv6k8LnbMXe9JLdny2bSzcs9GJJ8wcPrZx5kv0XoOXsq7anK3VfT2hD2PouzsP5Z5indoyfbCP//yfbTfU2ULowehaxbZX/Hv3m7OnCJ98gFePQIRAAAgAgbYQ8NLoj28Y+KWOj3otKVX8/dDWtd5054KhXMzDHhBbYbpyv7M8A/ZJpzO6wXo/+phEZkhi7OJibg5yKoxwJzZWbb/n23ZjOnMevxwr+qmNrm8wufhYb91uwryL3jVekjQ5iRWaGLvQ4X503VlZ1runo8PYzCGc+I+4IjGfPYgIFZ69GnSCPZknXmIfDYw/GkR0FbTG6Gal6PMp4YHhC5/yfnQ8JJg4NaajH84bHuDnQ+sbOmb558f5X03wcza64ZGAuWNqeH9az549evgMxp8S49notrnuPXv69Bk4YsFHB7UaknSruQXb508K7cPwYQwYMmHV1/GXyV3uZoPbOfbW8BuL/oj07x00P9E6MO8QKdJZ4HcgAASAQGsJeGn0FuPTXeWHztZGf1ZFtuvnwMRHbS7D+qWdvfusgkFuRsOySwKWsoNLB/SJWHnc1m/f2isWkgwIAAEg4I4AGL17laQNVSqduqzS6aNR1FrvyAKjd5rkvhO7fJD/K99maFz6Hn4EAkAACHhPAIzeaYp47xPPXTXN/e9g9M6S3JXiDcMDIncbnTrqO0vw3GchCCEQAAKdlwAYvfOmDZSqQAAIAAEgAARaTwCMDkYHAkAACAABINAdCIDRu0Mqtr4GB1sCASAABIBAdyUARgejAwEgAASAABDoDgTA6N0hFbtrfRPiBQSAABAAAq0nAEYHowMBIAAEgAAQ6A4EwOjdIRVbX4ODLYEAEAACQKC7EgCjg9GBABAAAkAACHQHAmD07pCK3bW+CfECAkAACACB1hMAo4PRgQAQAAJAAAh0BwJg9O6Qiq2vwcGWrggYlcXCgmNyxe02ZIan2bcNp+vku+gK837Y8UdU9i3ye+I7eZgheECg+xDw3ujNllu1BqWYj70yVW2++uBxy/evNT+8oOLxNZcbbW9ZbbnF8/7lRXn3Wjs8HB57l+uIAuHDbpPLPcXooeLMiPijgQkpZ6zvsyFH/Gn2JR+nkyxX84p2vBU5uJ8v3Xfg0Ekf7Um64tWD5T288d3w4NTyoF49evrN5ahd1Zw6DIKEqwieJnw9rQp7A6GLYBRnyPvNkW43QUXEBZxOlZQQGGoC3hr98b3zCi4iqfzr8vW6q7UGOQ+RmG45vwa98WqlgKesfdBpfN4J34/eDup9RteeJ4d13pC7A+IxRiaVRFqaUq682/IIT7Nvy6N18C8a5fYxfvRBb2/dd+b4kWPrIsN8+s75rqCh9aHyZPQmA1fw+142u8gFydafpb23vKv/8D0BY63qjJtKqu5y5ZsLhK/EGCq6Xt5ub1ZAoIsT8NLozbdMIkR69o6tXd5875wMEVbXOzTT/71ZLUbkNXcdfnzebXLn80EbnbpmR1rr0WFdrhB5mhg9zb6dDZQhblsoLWJtnE23JvmZxQH0kVtULXsm3IXco9Hd7diOv1dL1eyUWi+6FrLipIzp4tUKN+1vi/H3PSLGB8qke+RAGouF8fn1XpyFdAWRjwPLQOC5EvDW6Jb79fX37J3pTZfUCKK9RpL34zs1MkRsrP/X2akd+73zGd2oLEBS3uAcC2WzhqcmbBFIruIlTqMOWZ3MfCWPd8mWFVRJOdHBnLRcA15quN8Xq2BqFMIzS1KjB7NZQznxaxHBX0TBZJJ+m8KcXCp7ZDuyDimMDknPN2CnrpNwQuOPBjh9EpLiifOaVMXc1P+l2MK8iS++hIe5yaxXlp4MS89DynJXpcUMSYganZ76p1JjaU1uTKfrYQAAE+pJREFURt/xylrEF3GKEicmscISY98uQgxEmM0GS7XidAlnRnJUCJs1IpW9nieqbd15PcbooiiJiHIwzsFaSX+afdEjULCyxVfILkyYkMgKSzqxpJhLfq1qo0HCyk+YmMQKjmcOSjr5TlFppbN0leLPI4cOHPr291lu2p14ViHxtyh/WcxgLDggwRNFZ9w1nuH/To4e29hwakswY/bXsfGrp4zo7+vnP3jWygNarfU4+uu/zvbt0eKPMS1Gpsdw6f/ZN5XYgD5mu5aUfOgGBiRv+4IpWG9/YPhra3bFXSQ2sJ73q+jY91+L8Gf49Q9/c+2hKp2L8DcZZeqj21aMDeo3aoOsyrpB0hEx/T1VCp6fNbLygBnS7WftsdZd1MyYKwjaoxXhsXY6slSoCJshWa0wWSOCrzWc2BTmP/i1ZQePg9dxJnaq8EunJeCl0Z203HzHLEGkZ+8S3evND2qVPKHumsVpww7/2tmMrhUXnwxJiF2JlOaW8eNKksawo94WlOP9n/p/pKkvs49vlKstZv1FaeooduynZYQdPez7lyh5GDtmYXFxppyfyE2dmsCcUiy+Zb0aKY3+SCcrlAvy5cWbUpnhWbnZ6LIgv0x63lb46hSlp8ISTqzGwhxfioZ5Lq8ML0xRo4dw4t7KyoiRCQulBRtOs4KST2cStQGK4gB7a/uY08k7JbIanbJcmvlmInNqqeyBbRd1Rl5MMCfpB7GAXy7kIMlj2KzZ3Fad11OMDA900gI0mvxfsqKImo3V6E+zb5OZkhUe36+k8lpDhUaaMT2BNcseI01mXnRQUsJuEb9YIcwQZs5PYo7OF9SRARoLD0f6+/n1HjD3wGV75cZDKWNR7F/IYCw8aDe6efcERp9FWXaj0wYNn7nlIMcsLJL/sXpyH/rojSnWVHgoTMmJZmVF7Vkz1Md/+tb0aFZWNCvrOOecdV+z4QGfg24QfeSH6X0ZzkavkG4e6ccIf+fTnzOOH4nZOG0wrXfkzkxbXQQ1Om3Q8FnbDqefl3NVv68Y58uYsD3DoaZilGmYn34wNqhv4IhFG/aLJRprGjWZPRjdYorZL/Z5U/79BTI9+7L+tm7lu8JB+3Wylr6/J4iPWjt9eH//IROX/RoLXveQu/AUgc06lsBTGb2pTi9EpDWE0Jsbr2gE/IqLj5qfPGluuHHedP6GvTnfsVLvZEY3Cj9NYr5aLMaHGytz8qODT+dq7KVzBaax9PxK3gYOc2KhyF6gU+9rKv8jnflSLve6rdjSmwSJIznpedZGHqXRbdeku35mk+iLZObEEul925ErCwpiglNzym1hRo0enJAYq7O1dR5WZEeyozbItZ4vdcxwIwsEd2xH1omKY0NSs23dpCYVX1yaq67Ey1xNSk5UcHpBdevP6y5G9pLdoa/CIcBt25eaFRbfEflEfCszc6NCzhQYrTEyyfedZo4sFBFKu6mVl6tVOBxreaGvyzq4d8uOtAIljsVzOdIKo/sEL4vCJ/xreGvDGC99IrW1hrHje+511xS+F+BsdMOJjQNpI9Yl4jlHkbNsID1ivdyaJ1Gj9wpaysLPW5b6Vl/G+B1V1nqkSaFjbV85Nsg/cNTSzb/IZYTLrfGlNrrub/XE2cKwTfKJS4S9ZoiGbCk/YLZfYoYmU+KfEsZixZ/YxSUrV68+rDmD16ptPO8J4lhrpw3r5z9k0vJDJ4scU8Ezc4e8ZM9vsCMQeEYE2m705sZrehEiMtQR7fGmG1UiruL8fazFjg2xy/+yfulYm6Nn71xGt1QhKxJYy0XqRyZ9A/rRVfPiQxLTComuSLPBYuBv5DBHJceEpmbySKWqh31N4i85zGmI3Klgwm1N1euOb6M4nM5sOdfdUoV8kMB6T0x0FejNfHZIYlqBLczWNnqmmCgxq0U/ZCbuKSNM7D4HY4abjpThYdafdTiy0446YdHxkNO5apLRQziU522bla3lb5v29cCqRXwlxbEhp3OUthhpsvOjg5MTdgm4hUp5jUHb2E4maIXR6eO2ZeCdLjrTrgmMvktsffLWMLTJ6BblgUUMxlu/2PsGjLtetR8ZNTr5vJWCjwYxhm0os/k+5pPgoMkr9irKXFYNqY2edkziM004+mc1S6k/UVSxYIXQ553yGFt/lblCr3pltmh+UbV1Anxpqow+q+wIUZEiy/iuIO7wO68Ej1gnIl2J5A1gGQh0DgJtNHqz5aZZzuOV1dyyj5c3XdEgvMorjf9hf//ePitFwOhONrJ9tVSVvp/gPGIdmJiWTzJ6k1knKzkRFM+cxSVUh+7uYV9nWzgG4Cna6Nh5We+TjF4jQI2OhxkzekqWhDB66z3kHGa905EvKwu3ZJ58JZEVlsAKTWAFs48GOxmd+rxtsrLt+mzTvh5YtYgvavRUwuiGRoP0WEHCxCRmIDqngfVyenqCxqXPHBPXE/BWGf3TTMLoDn3yT2N0z7399HH282JGj1hvM3p1zrF5wwP7Bk9esj09X4bX+YiIUxm9seqr9ULGJnUxXiXSGFUvzxDOLTJi3Uim6H0i2koV55ZJeRf95Ca6Nrr2as7hHxeNDe078NXlv9U4XKFEMGABCHQSAm0xenNDXbWMy5ObblqIAfQnT56gs+RKHP5KweiukxlrZzMXIGKVWl6Bf9Rq1U1SofxAnT8/8dj/MuKGJCXFau3Tdjzs66mNvsdxZlwpNjOuiqxhNw7z0O7EZsaFUJuVFDuH+ixmOFK/gkPrv1FX8m4ia0p+MU+tMFaWGysVKfkxzm106vO6iREpDO3c6+6BlSej4wHT3zEoNYqij1OZoRmFNeQ0ckeS8vdWzIyjj916hjC6Q0vaeuRn10Z3Z3T0vJoLqft2zBkW0Cd40uLP0vLIXnc2uhSdGfd5DRbaBsPmlcLQ3/SVOE/DQ+3iN4UTkqx3pZuifhT2fF3Qg/xxbKNXXso4+M2Cl4P7DBy3YHNSlgQn4/qiJs4CC0Cg4wh4bfTHD6/oJQhPUVPf5NSX3mx5cNv+d+uyQQxtdHclLDYWPh2RE2VEg1FbX62zN0GM8oPprPCMwqpq+f501tDMQnzY2NBEvS82jh5BGkc/K0wanXKmwDaOjo6yD8vj4x2PanYWKzSrBJ9UjxVVpvLf05nDCoT4xDS8/DKJv0hmTmoxjo73FT9tG5009l9ZkB8TjI+jP1CkD2PHH64k6jTafGzOgUOvuweju4mRPXUojN6mfalZURvdpCpXCOVaolGuV5ScCOZkCByMjo6j79u6M71Q6UXZYYinunsNG8/uP/83/J4LRfbSQLrzOHregXH0gHejnfOGnaTLcfSTm4JoI9clOY2j4/3qWK87ldGtOVBzIXXvF7MjAvoETfrgd7ytnMeW0ucq/sSHt4VZcsZM+U/XsPBYjL9+LWSsryBuuK/QqobPEL3NtZGUndcnq/VJ+OfI71Ka3ejVOdELRg7sEzh2/qZEcLk9ffHSAH7ppAS8NHrznbMSBBGpz12pI/5u3H7k/IiZJ0+ewDg6ZVGrFRWfCEk8tYGH5JcJ0oVZSzjo7WpXbblEq0DiwhLZf2rQEb67qpwZCVEL+Ap8hI96X/1fouQIdsyi4uKsMn4y7/S0RObkYjE+7UhfxWcPSTjxIY9bpBAkIUlj2MeWi1R4t6T1cq3MzosO5nAOSfn5ckFBuQKflGebv72Gi+SV8V3Pdac2q7trADPc+NOJaxCkuFyYgiSPYzNfL5VZBdCgLVqYEDW3VFRTpb2hV/CEGavTY0O96nU3u4uR1qzE5vNjc92DU9OOY9P7JXabGprauC8lKw9GL/stnRWSkrxXxC9SCLNEWYuSmcNykMtkem2a695ktj5hZvCireic8+hPXg/z8X/je1x42JzzoSOnvLPlQB47mr1tVjiN9spGDq5ha96Qpy/qTwuds/fw0axoVnZ89jWrHU3lxuQodPY7NtedFr7oaBQrKzpKgFgrHBUydK770KXb92eic92nt5jr7r7XnRxrdFldm/LTjhXflNvGs7U1FRPmCIfurjgk1rFyVdMXC/y3a0rx2YJKlXL4TOGwbyr287SH05Uzlgh916pSHWNEKMpxHN3A/nnZpoRMMVHndnU5axXbXvHv3W/OniJ7Xdw5wMTxYQEIPAcCXhr98Q0Dv9ShZ72kpFTx90Ny77u16Q5Gd1UEkFLUqMxFUuZwokLYzKGcuFUlXL21GW023FZmT02Imscrw1tCWlnJqdAE9mE1/gxL9/tiJ0XvR1+cGj2IzQznxK0h34+O3iddUcpNfQM9Lysihb2BL7nSogxq0An2ZJ54iX00MP5oEFnS2D3Wb2L30KP78sQX7Q1H6ja6dQKg87+2mgRmuFmIIKMkaXISKzQxdqHD/ei6s7Ksd09Hh7GZQzjxH3FFYj57kHdGN7iOEdYb73z/fTxzHp+4jRBNrzbuS8GK2uhmwyO96HAee0ISKyieGZYUOz+/QGQguiisWUgp+nxKeGD4Qm/uR0fzBvYU2CmD/H1pvkERU9b/yLlGDAxjM9QmbGWlrJs6sr+vr//gmfb70e359pGAuWNqeH9az549evgMXiuwmhXtjae1uF2d9vouorqA3o8+GT0vY8CQCau+PPWP43ndjqO3yJwtLiuutGL+R+I+MwSMueIJ31fE43d5WMPMk1cs3iDuN0vImCeevE+dYG2+tziIocnsaHTP5zU0GYv+iPTvHTQ/Ue6UOnZcrk4Ea4HAsyPgpdGdOtq7ztfONdf9RbvOXT+tJT5qcxlWR3E23LPL7nBk9wSsc87tvd/ut2yN7V6AbSxlB5cO6BOx8nj9CxDZF63I6rLxBaPD1fjsCTRUqXTqskqnj0ZRaxvdF+9MZpLuXgOXdAQBMLqXF8Kd2OWD/F/5NsPpFvmOSDsvQ95ldQVsPRIAo8PF0OEEoI3e4UmAPqjVaYaax7LjBd+gUrxheEDkbvLje8GUQKCjCYDRO0NhCmEAAkAACAABIPC0BMDoT0vwBW+pQPSBABAAAkCgkxAAo4PRgQAQAAJAAAh0BwJg9O6Qip2kegjBAAJAAAgAgQ4kAEYHowMBIAAEgAAQ6A4EwOjdIRU7sEoIpwYCQAAIAIFOQgCMDkYHAkAACAABINAdCIDRu0MqdpLqIQQDCAABIAAEOpAAGB2MDgSAABAAAkCgOxB40Y2ue6BVP7K/bqQD61ZwaiAABIAAEAACT0PghTD6/QcPLly4YLpzrgUpQ8wnQb37BITPXLFPXdlibXeoskGkgAAQAAJA4AUh4L3Rmy23ag1KMR9BuAKp2nz1wWPbG9iab5vFjm9aRdSXLB3+erb62/UXLl0w3av5+1JtTf1fjulqkpnOJBb8sioywH/yjizKdyE77giyBwJAAAgAASDQuQh4a/TH984ruIik8q/L1+uu1hrkPERiuvUfpu3mWyYRIqu6dJ34q7vTgOu+I8T++PHjq9ev/n2ttqrxrKHJXNV49q9rf/917W/rV5KhjbzoWf0GLPwN3orY0a8ZICVK57pOIGBAAAgAgc5PwEujY9aWnr1jE3XzvXMyRFhdj31tvmUUIap/Gps7wt4tztnU1HTx8sVz9eed0qCm/q+/L9VWP0Idj3+MxUem9hu4LOo+8QssAAEgAASAABDoYgS8Nbrlfn39Pbu0my6pEUR7DTP64/pqIVJxsfHJkyfNzc0d6vXm5uZ/Lv1jutdy4BxNHtPdc39fqq2yEElVnfnTuH4RH8U/JH6BBSAABIAAEAACXYyAl0Z3ago33zFLEOnZu5i+H9+sEiCqsxeqFAKkpBQRlhuvPeq4TvcLFy7gTXAXSeK4tip198v9xmxOhXF0e7+FC2gUPGEVEAACQAAIdDiBpzJ6U51eiEhrrEJ/8vhGFb8UEWvOXblRf+PyWaWglKu88LCj2uqOznb2k+Nakyx9aVjQtM8lYvmtSuUdrabRefsOTycIABAAAkAACAABagJtN3pz4zW9CBEZ6ojp7P8+unvnfoN1mtyTJ5bLGh6ivNDQQUp3dLazoZ3XNirifpgdEdjbz8/Pr+/wdaIqamqwFggAASAABIBAZyPQRqM3W26a5TxeWc2tf5064omvzXdrpESPPPHrc1sgnH3B8c+aAMRa61eVZMvYoFeWRcWyxWkcaXZpPTxzxrkO1NkyLoQHCAABIAAEnAi0xejNDXXVMi5PbrppoWiAW42Od8k/N5PjJ3JytlO0HddWp+95pd/oTRwYR4dxdCAABIAAEOiyBLw2+uOHV/QShKeoqW/C5Wn9v7nx+tlK3d+2m9OfPGm8pOYiFZfQqe8d8efobOcWp+Pa6jM/jO03Yl0CGL3L5mOnGht8BQJAAAi8gAS8NHrznbMSBBGpz12pI/5u3H6EjZ03P7yg5CGiirMXr9Vd+8dUzi8V6q8Tg+zP2+qOzqY2urHocGS/4PeiHzhv9gJmCIgyEAACQAAIdFECXhr98Q0D3/FJryUlpYq/bTPa0QfE6hUiHlKK8KUq4+X7bgfZn73fvTK64PhseGZcF83BEGwgAASAABCwEvDS6M/exO11Bsf5cC6+WeOve6BVXMz6btmgvqM+SYQnzECvOxAAAkAACHRZAt3W6E41AzdNduzda369+4S+9mG2WNdlUxHqp0AACAABIAAEXnCjm2SmzNOqEtFdI2QFIAAEgAAQAAJdmsALbnSYCgcEgAAQAAJAoJsQAKN3k4Ts0vVKCDwQAAJAAAg8PQEwOhgdCAABIAAEgEB3IABG7w6p+PQ1OzgCEAACQAAIdHUCYHQwOhAAAkAACACB7kAAjN4dUrGr1ysh/EAACAABIPD0BMDoYHQgAASAABAAAt2BwP8BLpKjVDzsT8kAAAAASUVORK5CYII=;" vertex="1" parent="1">
          <mxGeometry y="30" width="667" height="164" as="geometry" />
        </mxCell>
        <mxCell id="DwSio6ZUpCMT1keC7chz-2" value="&lt;font style=&quot;font-size: 24px&quot;&gt;src/io/local_file_reader.rs&lt;/font&gt;" style="text;whiteSpace=wrap;html=1;" vertex="1" parent="1">
          <mxGeometry x="40" y="-10" width="370" height="40" as="geometry" />
        </mxCell>
        <mxCell id="DwSio6ZUpCMT1keC7chz-3" value="" style="shape=image;verticalLabelPosition=bottom;labelBackgroundColor=#ffffff;verticalAlign=top;aspect=fixed;imageAspect=0;image=data:image/png,iVBORw0KGgoAAAANSUhEUgAAA24AAAG7CAIAAAA0X1GFAAAgAElEQVR4Aeydh3/bxvn/Y1ui93birGY4/WU1q25iZ3wz6mY6zW6TNk2TNGmzmtmmaUbrpknceAgAh/YgRe3FvSnuKZGUh4YteUiyPDRI2pb+gt8LIAGCFAhSpCzJ9qMXXzaIw909977D4YPnBi/Zv3//xEXw193d7Q0H4AMEgAAQAAJAAAgAASAwjQQuASk5jTQhKSAABIAAEAACQAAIXFQEQEqCqxIIAAEgAASAABAAAkAgQwIgJTMEd1G9cEBhgQAQAAJAAAgAASDASACkJEhJIAAEgAAQAAJAAAgAgQwJgJTMEByjMIeTQAAIAAEgAASAABC4qAiAlAQpCQSAABAAAkAACAABIJAhAZCSGYK7qF44oLBAAAgAASAABIAAEGAkAFISpCQQAAJAAAgAASAABIBAhgRASmYIjlGYw0kgAASAABAAAkAACFxUBEBKgpQEAkAACAABIAAEgAAQyJAASMlEcI6OKh5aWH/Qx/hKkU0oY4JwcvoI+O09qmab2ngysU6nL4vzKOVsaGQTNxtEs5Uv2JwNAYgLBOYygfOxV5nLPJltSy4lTx/vdmplEqm6ffBs3I90nznV67PqlTKZTKm3+npPnaFCx0PHurwWrVImk6v09sCh4fiI1HWzcJDub3CPWRrKEV6L1sH4g93ZhCYm6Ncp+XnkH8LlFzY2qQf950L0uPfVcNGS5v5zkjhlsM1VjpDFycuv1QXjGhx7KJVIioMxh1JTns+P5IMUmW0eOtUxvRgnilUG2qh0pidfei7nyzETDQqLd+okY3HTI5BJq2O3Ob18p2pnttfPbZuZa2F2bPa3GguRonp9fM+QLf/sWwX7vZB9+pmkkIyVTyPjImKpJRTXu2bPcLb6yenNF1p79i0h4xSYpeTZ4T6PXi7X2ax6WYKUPN3fppEqzb6ew0cP9/jMSqmmrf80oQ3Pntxvkst0zn29R44e6vIaFTKd/1hMZ86CfqRlmaaUtHmEGFbSfIRZdWUTmlhDIbe0BkVrmjWdRm2nQe1pKM1HULHUPN19hDccsDnLEF6VenSae5+EEjmPtmr26tV7tfVVKFIls8YXhD00IakkX/0mczEqKKvz6tR4RgbjsQTPcbt5n0oesNhpz6rpyPfccktS2OwzZaBB5pUJSTJuuoZl1OpYbE4336namfX1c9rmJLUwKza3q1owpEZhi+8ZsuafZcNIeS9kmX5m0ZOwCjlbxAgm0bkzkadslsxWPzm9+UJrn8W7iVFKjo92WQ3unhPhsQPWBCl5+rBLIbcdCEZU2njwgE2ucB3GteT4Mb9Gpu84HvVEjp/ca0iIS1N25/6wO9UfA/QRY00xIlAaXYw3ajahkxMMmmqLkAKjlfSr+S3WEgQtlx5ju+EZbJ6ccuIZv14tQIQtJprAyiid9AwLOZorEa7MwNzZsYcmWh6fIxGXp0iSchpxk1rFHvfCC82GZLo0ZrbVpWtVfIu68GPNpVoI2ZtFCE9hZO4ZZqsuZuJemHqrS8YqaKzORwpN8aMx04gum/45GzOmJ19o7VNvadnUWnxcRik5cTYUwt2J48GeBCk5PtplkmkDQ+NRLTg+FNDKTF2j4xMT46FTg4Mng2TIRPigXSZzHZ6tMW52NyRTqN9sLUV5FTJmMZdNKFMFn1CVY2iF10upOrunAkXLpUPkxcNWuVZUVIShKMYrE9Z1OOldsPuopq6+mM9HseKKxk59bTFa5nJTSXmOGRqbivlcBM0vqnS1ShtRtFlL6WP3gL6hpUQgQBEEQQuKhSajPW0/AXu+uAFjhioBUmyxkxKZLE6k2bGHxjfNWHHG2lzDbc4TWjEfKTZZncNtxMdHZuE3aPOpsXWsJVZSKgU2q9g5Z8OKJe5xZTnGq2ozNEtKBXwUFRRWmFrj5lSwWuUdc2nMVSUlPBRFuaUVtW12qnK9YTYanixJslrF3upidcFQy2w2eyOsvIZmSQmfh6L5RSKHhVbe+AY2KfHULXZSFMpU1xF1bUMxXkGFJdXtNpWUizaqndHrWWz2m0xFaGmjkfbyZm8TcbllkgFyuIOFZHblZa0FFpsD3nCbsgnjylRaW3VJCRfFuIKaBvUx0uBwwMtiM37jJ2uTxFgtNfWFPIgb6aanXFpe47XR6pfVqpOqcgwTBdrJKvPI61HmHmBSLae6F1jzTaARZzPh5qyqa2gq4PLyxW2tMkkRl8srMZlphUrWaFOxGlKUoZjQZZTIiH4jv0hkt5ANkkiTTnLSU4OklCx31t6bnnJceYnUktY+Hpr6HszoueANB6C1p9naU1f9pBtkqlGYpSQpFCdLyZFOk0wXOH52uMuitnQNnz0e0MlMnSOUgKTcjeN4iL7jxOQQ6pJzesAkFmO3EEPoSW1lPlJosNAVW4xmNqFMleQ52JiPCmq7qZ7aq5bwkLKm1sjjZ9TSWImhJaIGr067T9PYIECw0uaj5MUn9VVFCFdU0+I3aAPSyvriApRf00WGjpjqylC0TNzUbtDtU9XVlRaWoDH354ipthThiuskPr12n06mL+ejPPFeqi+OIYqVnbKfPd/IZYPyUhSr7EiSIHsolVHcQbuqGSMfQLT/C+vISVd+e68BH1vvaCnnI4WtlKOXVpZk+bJzzoYVa1zPgQYByiusr5N22a2DVpW2BEPza3vI8Xp2q0JulUSACEqqrWp1h7pJUoii+bVdFHAWGtmRZLeKvdXFVSitXqLnWWwORFgVNNTLe5z243a1thhFixoPk62dPeV0WmyyFIbUogIEE1Y343eKqq6horgMzdeZqRcYllbn3lvNxYSyE2RJg9aGclSgIoc7WElmVd4UtcDG2Ru0NVYgvLKKKofBdMxt6WwpEyBcqS4qgFht9rK2Scch4vZ0VeejWFlrZHaKXtPjpFJuEmNoibDepVV3qBrqBQi+6pGsX1ar8F4UK2zooy4215WgzD1AYi2nuhdY8/WOWpLb7FNLMbSyuXW4Xa8pQMXNRvwgHylpMNBeLRh6V8JCdlae7no+yi+sqaxz6/XduubGfASlFZ+9jhIJkI2Tfj55P5m8vAH22vemcw8my5du2+RjaO3ptnamup7MM7szGUrJM4M+tVTtGzyTTEqGj3rUMv2eWVOSEwxikUZqUqjPaChE8qtUzIt/swllrkVnuwhFS5uPtLlG2l0n7FqriI/yhG2uSBdjbxNhWFkLtVAGfxlFy70eItRvsZWi+WLKVHyCCFomGYxmhHs3aXE9vU0FKFrRFnV/Ep1RUcMhsvMNt1n7LOYTpIihIZrU2aXIN3K9p6uOjxY1xtKPKz576KQcI3F9tkMmfY9JZxViaGF1e6u+B/9qOORKFP24OwcV+mJrbqgEk+XLyjmQBasUcZ1tIhQtjlEa1ggxpNSRTu0HiJeQ/JpOsphBc30Fr9BoISUOCZyBRlYk2VmxtzqqIlIcMNgccLQJce1ItSj8qYOK/JR0JsvL0HTTarFJTCL8Q/liJSkHPX34fVTuidyDtEyZbPYek5dighryRdHhF/N4MZckO8ksyhtItxYYbR7RVfKQAj31Lu1TS7lIZXSFB7vN6bRJT2ctDy1umjQN3e4VYnR/LW4bUuqM3gteVqucPhGKiRTDZHWcUlck6QEm1XKqe4E1Xzab8bFaVKA1e8J+g64gX2vyhP16TT4qkqQ/Dz4ZK4dHiCL5NV3Re9/TLy1GUWF79Ct7HU0iQEKj3ThJ+0nWOmKt/bTuwWT5stsMrT3t1s5Q1+xsMwg9J1JyPHjYo5FpvEdD59TxyJr4JLEYRzMx9JiynIeW2JIMy2YTSrtRadXjbzUWUWOyeXl5CK9Q5KCGKnwaOd6Jx7qeuC7Sq2hA0SYNNa5hdZShghrtWKSAxAOAtsTPc6i5EMuvOxDVjp7exnwUK1LIVZ0W81Bbov5gtjaSMnu+Ubx2dwWKVSqpzj0+QfZQGp+4yoqct7nKUa5YNcIQFLmAcOcU1PdSKjl2ZZJ82TkHsmDFHtePv7fQvRTEo52U++xW+c3WErSwLmGB/GR0LDQyIsluVYpWN9k8xjNMNvuN+gKkOObRwdsz3Qcf38Dik02rxcZHIdtMyCWpRtDG2F1GSEn6MEL0SiabA96gua4YLXE48cSDtiYhzSUZZieZTXnTrQVGmz1HJEUon5K/3rBPbxaW6w1EP5PC5nTaZJJWR9hMX6UXmflDvfqyWYX3omhJbCIBXkdYIWMPwFzL4UASqwLsNHCRncxmfKw28srhVTRi5W6PN+wlht1J/y5bi402qiRW+Y26AiQ2GhPwHGkpQnnVnZEej72OyIbNmnuyfpKtvGH2HimtezBJvuw2Q2ufcmtPdhdMy/lMpSQ+R1IbGGLwSo6HBgJGhaJ1z7HIwm5WwXfuAimxmLD8JkKNCiW+tmmVAqS4TscsU7IJTXYzEAv0KupVPWbDvqYSDI29hYcD3pCzpQrJy0Pof3lIQXTQJ2ippw9Yh/06FR+ltGPI0SyKW/Xi6qjCsArZccoSr8GOz4VCcCWLYCXCpp7YfE22JsWeb7SHIiZjxc8So6XJHkpZyHjg12sESDk5AYCpQ3S2CVFMKGfwKyfJl50znkWmrFLEbVM2Y2id0k6Wgni0k3I/hVX4biBoGstgWWhkQpLdqtStjrFOE08y2dymbELprFwdYgwtkzBPaI5PMK0WGx+FrBFvsLWmEHfRUe9aLr8Yn8o8KV8mm6l5h3p3OODcU83nlUsGyIzYSeITFjMtb9q1wGize281hjEUEL9/U9icTpsk7l9qAg/FOWIzbS1dxMVVRw5ws1kVxntRtF5FTTJ2+StxJ+UpEjWVS9KDpL0KW77sNg/KSjDilSNoaSgnPNNBS30pOpW1MklYhdsUjShSG1sC795ThaGlLZHxqBR1lA6TZP0k8UxJWkestZ/WPZgk36S1RpQFWvuUW3s6bSDza6YqJcllN+PBE4MnQuO0ZTeEKhwfO9pukCuM/oHQbE2SjKrTeLGYCIge6jkiKca45R5ySCW+BWcTSlNR8QaE7E1ChCvDnzTekIvYFSjWQXiDxuoCpECjNx2xm6nPUaczMtVmWC3EYgPWXtx9gmJSIqnIqhc+fdWL32wpRmkvspRJnlGv9aC6uhxNd5cy9nyj0LzyBpTeuVPZEQfsofGI4msh8mZPW/Qw+WLC1UdzX9GyTpIvO2eaAVNmxR6XmIbFV7dSMsXhpYlgdqvwBwbKUxqpuLRi0pmw0qhHp0yS3aoxQ1V6rS6JtRHLmWzGZxkiNFZ4e0bya0kfPL3Ik47TarGTYkXqbgSfclBsc5CcfTp1PlO+TDbjKfjN5mJU2GIac7SIMYG6Nbbkgp1kNuVNtxYYbcYHIvECMs7nY7c5rTaJL4hhaHURm60U5wA+9yP2QshqFSGe0NgyO6KO6M5+2m2YpOHh/kIGq8Ks+bLajI9NY8TqyRGNiE9Ic3z6CibykzNSUluVhFWkbaiofgN3ByKCGk1kPIq9jlJnir85M/ferOUlXjOS90hp3YNJ8mW3GVq7Ot0JuEkaf5Kujx178tApSsmJ04fwzYAOMmwGNDFxdqTPo5MpTHsGw+fO25huynSxOBklLdSjbOEh5U3G6ABxAt9sQhOSon3FtwhGiskO1OooQ7DYZEfvqFaEz5wjRseImvOMtrlGyXHbY/hcMWp+jBcffEeKzOTQPD4UTosbckqqUKRaHt3LbcRp2G80xfx27RoZD6WP1CRvKPj0L5Z8IxGJzo4X6+xoRcZH+nBZkDSUJWs8rqW+FKEteohPGY+b6M6JVXqyfNk5Z8OKPe4oPimNr2qNzvUMueUNXISaSsVuFfESQtsRyddqLuNXNOoTWy8LjYxIslvF3urYazYWymTziFbEo82cC0e2aJaltUVzOi02lnt8iyL26kIr6tRHva5hl7GtsbyE8aWLyWYiTff+Gh5PLO+oE/DKpRG/USQvdpLZlDfdWmC02adV8FBx4naw0ZuI3eZ02iRx/xIzCOM5RyQ72RN6Q25FIxetouqX1aqwV9GE5eULJX1e94jb2NZQVozQHdixHiBpLSe7F1jzZbUZH5suwH+gwXO4uagQl+bEFKPCBqaJN8wWJmWlFXFjM6q90XuB3K6cvY6SEaCfT9ZPspbXy1776dyDyfKl2zb5GFr7VFv7ZIbTeoZRSo6HTg4ODAwM9Pf5jDKlvfMo/iW6z090i3I/sUW5n9iifIAYyR4/3qGTyTT2vX1Hqb/+odFZ2aN8fHy8u7vbN7yH8V71De/BpSSxA477YGMByq/sYB7kzSaUMevISc+AtATFxHuii108A7ISFI1px5BDUoUhRaJGn0HXqZebxIU8XrnbGXWQjOFDb2hZVUuHUeuXVjeX5qNIoUpjGCDeeoOW+jIEKatR9Dpt/SaFtrKwkLaX2ymtiI/wahqkAQO+fNsoyse45e6YZmWx2cueb6RREjvoIiXiFr+e2EW81UKfNMkeyt6s8Td7pkUPY04Dvl25Xr1HLi5BsLrmKeTLzjkbVqxxPUelxZigUFxR49Zr96qbWgoxhF8ZINdzsFsVJlwv3CKxXavZo5FoyvkYX9jmIttGGjQyI8luFXurY69Z1hokpqxRs8EC3pCjRUy689mTxT30rHdKiuh+m7+6gEvsGIAJyoyqhiq67z8NzkOKMm5xWTUvziWJj0Kw3d1ZlZe9Flg5e4l3zug4yWQyrDZ72dtkJLWgua4EwcT18g78btUeolq7vbkSRQrK6zw6TUDZ2FyIcYvqukkHHrtV4YCrT1oW2QcM45fqFXWVKF9jIh3J8Zp1cqHwDX2S9Crs+YZYbMbHpiMv566OKq4Y18T4lIwpDbsnYRWdGbmfXCIZ2a48MrSVql2xdewUmWT9M1t5AylqP517MFm+lGGMB9Dap9raGTFO30lGKXn2iFsuSfiTOfqicx/PnOptt+qUMqlMqbf5+8gfTjzb71VKEyJJGfcJStexmNV1IyMj3Qd6JqtJ3/CergNdgZN78bsr5JTWYrSX4PjeJ5tQ1hpy749fzBhyNIsR+jxuz6Cuvr6Qx0VQHr+gprppj4O+Wtm+v6msBEMxXn5tvfKoU6UswtDYvrXOHomwjIeiGL9C1BDQ1JagtHE6v21/i0gowFAkD8X45RU1bmqtT3zZmexnzzfSWzl7JBWlkYmYeXlxczTx9NlDWfo7YrEF06IHfH06bYegyGHa+bJyzoYVW1z8172w8pZOVZWIj28MWVZR207fGDLAahW+vZ9UUSbgowjGFYjFjXtjG44Sq/VT0MiYJLtVrK2OrWmx24xPWUNLW6iJhmOG6nz6/A22lL3hQDotlq3VDbvMh+22Yb93DN8auojcLZXd5miC+CwxJI8b75IkbisWklmWl6UWUthMDI8m3Q42nHmbJPH6rYG6kkKMWGuIFLbGNtl292tq6wp5GIL/eGxdrfSAJ6YFU1mFJz7mtfY7iDrSi/lx2+uSWSdtJMnuhcgUIxYayW32yOpRLj6t0G+2lPBwnYcfoFMbdmdmRbYNcniKaJN0I1naVUoUkQuS9c/Jy0uwTd4jpXkPJsuX3Wxo7fTNpNlZzUAoo5TMSsPNncjBYDBBTUZ0JKUvnftq+XF78sV1OtmEzkDNXVRZ2NwVKFekiA3Nx9XU+YUCX3HPr47OcGKS7Oe0OBcSyXMKip64q7NOgObX9ZBP8RmvNboxcMxIgNDK5Nq19CoI7gVGknBy7hPIoLWf60JdyFJyYmKCriYTdKQ3HGgSodwGFfNvwgZtmYem15Gd66q9INL3mrsNKmddST6SrzJS+x+dz0XDV9zHZkbOXFO58Eie29cJV78J3/d+j1ZurS3OR3iN6oSflT+fG+G5RTdzZIYdRmKXWV2HrKoCQysl6f08LNwLF0oDmLn+cw4Qy7C1z5DlF7iUpNRkYGhv14Euyh85c53dRdXWp72wxNxqrLBYaNBZEleWzNAdMs1NJeSW1sb9juU0p5+sCi48kslKOj3n/To1H58rgKBYUYnIoDWPnp/tbXpozNGy4z/0QFQSwhMUSyS64+m5jeFeuKBbxQz1qDPOMMPWPlN2XvhScmJiYmxsDF+Fc4p5Fc6F2vKgXEAACAABIAAEgAAQONcELgopOTGR4ncUzzVlSB8IAAEgAASAABAAAhckAZCSc3Ts5oJsbVAoIAAEgAAQAAJA4AIjAFISpCQQAAJAAAgAASAABIBAhgRASmYI7gJ7pYDiAAEgAASAABAAAkAgAwIgJUFKAgEgAASAABAAAkAACGRIAKRkhuAykO0QBQgAASAABIAAEAACFxgBkJIgJYEAEAACQAAIAAEgAAQyJABSMkNwF9grBRQHCAABIAAEgAAQAAIZEAApCVISCAABIAAEgAAQAAJAIEMCF4WUPDU83N3d7T++Nx2t7eio4qGF9Qd9jBdnE8qYIJwEAkAACAABIAAEgMD5SyC5lDx9vNuplUmk6vbBsxP0vzOnen1WvVImkyn1Vl/vqTPRwLNH3HJJ3J/MeYgMpCcws8eDQ4PdB7v9J/d0HuzaM7gvRVWNWRrKEV6L1sH4y5XZhDImOOMnba5yBP/VWuIvv1YXjHsFYQ9NgW7GyzIVe/ytxkKkqF4fX96ppBAHCiKeJwQuhHp376vhoiXN/en9wPScvg3hJgICQODCJMAsJc8O93n0crnOZtXLEqTk6f42jVRp9vUcPnq4x2dWSjVt/acJcTgeOjk4QP4d6XLp5Kq2gXgVOrMi8uzZs4eOHOo83NUW7PCGA23Bjn2HO/cd7ox8ZXwW2jxCDCtpPsLca2cTypjdzJ90Hm3V7NWr92rrq1CkSmYNxTVr9tCZt3b6cmxXtWBIjcIWX97pSz8OIyQ7Zwi0KZsx9Dyvd5uzDOFVqUehjQEBIAAE5igBRik5PtplNbh7ToTHDlgTpOTpwy6F3HYgGBGF48EDNrnCdTiiJSmhOD5y0KFWGAODYerUjB+Ew+EDvQf2Du5PeKrtGdzXebCrfRQXl4mfEWNNMSJQGl2Tg8IBbzahjAnO4smQo7kS4coMbkYb2EMZo8zxkyF7swjhKYzM5Z3jxoN5GRMI2horEJ7S6Mk4hdmP6NerBYiwxQQO9dmvi0mPDDAJCAABggCjlJw4GwrhI9PjwZ4EKTk+2mWSaQND41FpOD4U0MpMXaPkd/x0eDBgUGg9h8boJ2dWSo6Pj/cc7PGfZJ4c6T+xt/NgV1uig8pvtpaivArZMcb+IptQxgQD3mGrXCsqKsJQFOOVltd4bTEJe1xZjvGqvIZmSQmfh6L5RSKHJRaaqu26j2rq6ov5fBQrrmjs1NcWo2Uud5xuHjNUCZBii535EcseypI7vURlwroOJyXd3H3NhShX2O6JmjFibhBhmLjFOELCSR4XjzLm0pirSkp4KIpySytq2+wxGiNaERctc5MFDLmkNShXpieyJsY3yfF86v+4kW56vgm1EG5TNmFcmUprqy4p4aIYV1DToD4W81i7B/QNLSUCAYogCFpQLDQZ7YmNiizdZGgs+WZX+3HtKq4W/CZTEVraaKSJEnubiMstkwyQhaJbFRc34GWncVJVjmGiQDvZzDzyehRr0caqaTKByJlga00BVtnh84Yjt5hIMRzwhr3KJq5Aa4q2T7pVU6qjUV0lDymxO0mr2o2mUoxX2thL2klPeUrlTVacyPmUNUjPN7FEAc8xQ2NTMZ+LoPlFla5WaSOKNtNI0uMm2py8vbEbDKFAAAgAgSwIMEtJUihOlpIjnSaZLnD87HCXRW3pGj57PKCTmTpHKNU4PtbrUKls3admc2QbN7+7u5t8fjB0rwyhJ7WV+UihwUKpn7jo2YQyVs+opUmMoSXCepdW3aFqqBcg+Fqf6BPdc6BBgPIKGurlPU77cbtaW4yiRY2Hyec9Y4LUyZP6qiKEK6pp8Ru0AWllfXEByq/pio87KC9FscoO8oFKxY0csIcmXEx9HbU0VmJoiajBq9Pu0zQ2CBCstPkola9XLeUj5U3GsYA35FbJ8tGiKtUQWTXscUNulUSACEqqrWp1h7pJUoii+bVdUeM9h1sKUUFNN5lRsLWmEKVUsuOQAR/Qd1Xno1hZq06ND+7rNT3OqMRhrQVvxKdVVlHlMJiOuS2dLWUChCvVReOOmGpLEa64TuLTa/fpZPpyPsoT702ClKIUOWDNN6vaZyXp3lvNxYSyEyT2oLWhHBWoSDc8a1x2Gp6DjflYYUMfVQvmuhK0sNXK/K5CpxE0Vufzqvb5vCGnpL68VFyJS8kRvTifX91JLH1jZZXCqqOSYpQr3htdQmcLVAtQgcjnilqVRXnjOgd6cYjjFDXIXqIRU10ZipaJm9oNun2qurrSwhK0wEiSZLd5kiXsdkIoEAACQGBaCGQoJc8M+tRStW/wzCQpecyvkUokUoUWX5GTMPA9k65JBrFI62cnhfqMhkIkv0p1knzK0i72hrMJZUwwYPcKMbo3CHdjIKVOV6RSHW1CXDseIh/MuLZDRf50ZIrfYitF88VUQfCJVmiZZDDODE9XHZ+eflxhA+yhyZqdvU2EYWUt1OKAIUUZipZ7STdkOODpl5VyecJ2l8lRzuWXNvXFisMeF5cpaH5NZ1s066C5voJXaLREBIGrowrDyqWUKsVJJqpkT2ctDy1umjQFlr0WvCO4T6tAT71d+NRSLlIptRCuR093PR8taqDqKNxm7bOYTzAv/E+Axp5vFrUfYCfpPSYvxWKy2+EX83gxl2SKuKw0nD4RikUcikRLO6WuwFChj6yy+AYWR2NML+YTrzpDivK62iohLiXdXXX8/Go14bFmZ8VeR7h0RoubiPcZ9yFJKR8rNpopR2k25Y0rwqTSsdcge4nsngqUdh95epsKULSizRvJMYXNkyxhtxNCgQAQAALTQmC6peTE6dETQ8cGjx7wm5VStefIrM2WnCQW47RUYugxZTkPLbElGfDNJpS5cydECX3VywlVOUY9MPxGfQFS3GAgBwLKwdcAACAASURBVCI9h5oLJ3sWmVP2KhpQtEnjJEOtjjJUUKMdiyu+3V2BYpVKfCSR4cMeyhjFG/Zp5LjMMlMjvAxiol2vKUCLCgTcfHGAHI/GDWCP6zdbS9DCuoTF5qQZfrOlBCmIheIOISzRg2tzlaNcsYoaTI+Wmr0WAp4jkiKUH/N3hn16s7Bcb4iw9fQ25qNYkUKu6rSYh9pSu99iqNnzzab22UkGvEFzXTFa4iAGfIO2JiHNJZmiFthp+FuNRWhJbOjc09dUgBXW95LvQrGyT2pvY7pKXn5tj8/uFZVZNfVCsXIEJ8CNtmF2VimssthKEW6l4kS7a1BXVYLym1RW8p5K1erYU55UirgCstcge4mIUHH0dcUbDuD3PpZfdyBCMlX9xpnBbiSEAgEgAASmjUCmUhKfI6kNDE3ySsYcj8Feh0JuPxiKnZnRI0osdsf/RSQIFUp8bdMqBUhxnS5RakQoZxOapJ5CjmYRwlXEVr1EHG910QHuNmUTitYp7eSDwdUhxtAyCfMkzvgsgpZ6+nBY2K9T8VHak4kor9+gzUfi58yRyizgDbOHxmdHWugNOVuqkLw8hP6XhxRQQ/aR9B2BKh6Sh9arqKLh51PE9Wlk3OSLcInQajm1NBt3CHErlXFV6ddrBEhZU2tMRhClSFELAffeatzfmRS712DH51Ai+O5KCFYibOqJuo5oMJlwpcg3i9pPQZKa74hPJHXuqebzyiUDpIWp4rLSwBfIo/Uqagstl78Sd1KeIhOn2snkgzGtiFtY3+tRNJc1HTLXV4iVw7YmIRb1Z6dgxV5HPq2CR02QzSusVtPtyaq87OVirUH2EkVCaevhCKd7hew4kWMqm1M0vMnw4QwQAAJAYDoITFVKkstuxoMnBk+ExunLbs6Gx8ZCZ2KzJk/s0csMe09SJ2ZUSU5hrqTniKQY45Z7ooPLCd1xNqEJScW+jhmq+Eix1UG5spxtIhQTyiPD6/gMNoSvbiVD/WZLMZJfm+BZjKVGbwfDamHMuxnwhlySahSTRtagUM8/r7wBpT/445NiD6USiT8IGqsLkAKN3nTEbqY+R51Omnrz9Csr8rHi+nI+N367Jfa4+OMTTboIN+RsEdNDcYcQWp6gGvElIGijmvLURsvLXgthfKoAjp1WhHhQUQKeUa/1oLq6HEUSJXs8Iqqa2PPNpvbZSeIG+M3mYlTYYhpztIgxgbqVGu31pojLSoOQOGhskY1Pp85HSmJudUZu0ZMjGiGvqLFbUylubh2z1JeLlYdlJTzyxYmdFXsd4Y0fQWtbdAfMOquQixbUdsfmVGRVXqoqGQ/Ya5C9RJHQ2Ho4/N5HC+ui+6GmqKMk7Y3RSDgJBIAAEJg+AlOUkhOnD+GbAR1k2AxoHJeOWv8xcr1N8KBdIbPNvleS8TFG80p6lC286HIQBqzZhCbv2Uc0QowmJUNuRSMXrZJFJuF5R7QiXmzeJD4SJ+MiYjKUwUhaRsfwWZXCdnKOGj40jxSZ4wfuiUcdT0VJVVr0cMDLHpos91GtCENKIyOnxDWe0TbXKG1885SxthzlN6qsY/bmSpTXrIk5JtnjhuxNQoQX8+D6Ws1l/IpGfWTIPmhpKEPydeao7A7am/BNf2LuXrz2g5b6UkSgJa+hisBeC2Hcp4WKE7feJAWQ07DfaIrNrG3XyHgofcYClcvkA/Z8s6l9dpKEJe79NTyeWN5RJ+CVS+kzaFPEZaUR9iqasLx8oaTP6x5xG9sayooRulud8R6MnjylruCVNFiri3VmT9BcVy6WOIUYNVOCnRV7HeELsJDogpWgvVmMomKJmXoxyKq88bdMQhWz1yB7ifBpIbT7KOSUVKEI5XRPYTNp1bBFIq8obWzSUuurEiyEr0AACACBaSXAKCXJzcb7+3xGmdLeeRTfePxkkPAvRrco9xNblOMTIjVtA9Etykd6rAqZxt5x4PCRQ93tJmKu5GyNb6frlXQfbCxA+ZUdzEOT2YSyPT5DuJxCCsrrPDpNQNnYXIhxi+q6o/qPmKLHq+4kdVjI0SJGyN1tyKdFskYwhj8+0bKqlg6j1i+tbi7NR5FClcYwQIrLyICyGEFKxC1+fDmzem+rhT5pEvfzJQ9Nlm/IIanCkCJRo8+g69TLTeJCHq/c7SQVnkNaz0MrGvRERs69NXy0sO4AuUKFPW6YcHFxi8R2rWaPRqIp52N8YRu5CDfsVTZzkYKKhja9dp+mWVKI8spaEpbXBM11JQgmrpd34OXVHiJXArHWAr6guIraVGgS9lNaER/h1TRIAwZ8+bZRlI9xy93UpjOTrqdzY803q9pPQZKwakhRxi0uq+bFuSTxVsFag+w0wgFXn7Qsn/gdJYxfqlfUVaJ8DbmVD73sk49PqMp5paKm0touHz6Vs1wkbubFln6zskpRR/gCrNjSH1dXfT7KrWgjJ+lmV16WuztFDbKXKGipL0OQshpFr9PWb1JoKwsLafuhsttMssVnBuNzLibt20BewGI8BAEBIAAEMiDAKCUn/wSiRCJz9EXXY5851dtu1SllUplSb/P3UT+ciG8pebzba9YqZDK5KjFoZoe309wMKOSU1mIxd2BCV5tNaEJSk766+zW1dYU8DEG4/MK6WukBDzmcTUz/QktbqElsY4bq/OR7QE5K2b6/qawEQzFefm298qhTpSzCUKTQZKPS94YDzh5JRWlkkl9eHkbOxCKTYg9N1sg8g7r6+kIeF0F5/IKa6qY9DnJbJa9OU4Tmi2TU4u6go1mMYjUK6rd2kscl1M+wVaooE/BRBOMKxOLGvbHtKvF1CUOGhoYiHjdCsk7aO/mtwG8N1JUUYoTSQQpbYyhYaiEyAEptKjSp1H7b/haRUIChSB6K8csratyWxAF0kuekuAGWfPEpiVnUfgqSER9tCZLHjXdJEqayxSWGVpPTIKppzGvtd9iG/V58UfakrUyT0TiuKMMwrLhGMxrwBk21JRjGKyAnDePJsrBiryNPT4MApS39CbkVTTykqFZLvjhlW94kJUpZg2wlIu5NYRkPRTF+haghoKktQYttsZkwbDaT9jg76wv5WH6j3BS/2G5yO4QzQAAIAIFpIcAoJWda9p2L/OIX2zB8wxXVvlo+bYfCBKDZhCYkBV+BwMVDgNi/hlp0TKhMUuVcPBCgpEAACACBi4fABSslE+QpbXJk7NnWJEK5DSpq8W9crQdtmYfCgxMIXGwEhh3GHpO+x6TrkFVVYGilBH7oL64/udjaA5QXCACBi4nARS0loa8HAkBgWgg420X4/Lw8BOEJiiUS3XFypu/F1JlOC0lIBAgAASBw3hEAKRlzUp53lQcGAwEgAASAABAAAkBgdgmAlAQpCQSAABAAAkAACAABIJAhAZCSGYKb3TcAyB0IAAEgAASAABAAAnOBAEhJkJJAAAgAASAABIAAEAACGRIAKZkhuLnwHgA2AAEgAASAABAAAkBgdgmAlAQpCQSAABAAAkAACAABIJAhAZCSGYKb3TcAyB0IAAEgAASAABAAAnOBAEhJkJJAAAgAASAABIAAEAACGRIAKZkhuLnwHgA2AAEgAASAABAAAkBgdgmAlEwtJT1jLveIE/+Mujyh1NfPbo1OKXf3YJneX+WCnyQBAkBgxgicEOrbRY6xpD2JZ8x9oXY4U+qd4GIgAATOFwIgJZN26GQVeo0tlwt3LMc/O6+W7msjz6eMmP0Fbvver9U21DZyDn6GLqhvNTxctXuVuOF/zhl7iF6AGbmb6v/x/g+7ao5Nex2du5Szb5lzLYVzx2r6U/YMfNOIrqwsfELdY2bqTNpMiuuiHc6O9S0dXqZr5hp/sAcIAIGLmkByKXn6eLdTK5NI1e2DZyfof2dO9fqseqVMJlPqrb7eU2fogZHj8ZFuq0Lp6A2OTw6bnTPd3d3Je+Q2k/y6WkO9JxzwBstk+bcrettpF+NSUlTymqFbZD5QbR9Oqhg8Xa9V7bpd2UePm13bChZKuSuFOy5t9jlo9mSXZlTMmVqVt4nQu+V+mTtO3vn1+n/8+v6frFyUy1l5xc9e/IDf44tkbS5+mHNJ9G/e0id2DE+LGTOQiE+t+PiJTVetWJTDWXnFrc+9k7d3Wp/Nw/xn1s6/ZN6ih0vtadZRuiSnnnKaBmR0mZf/p3XzifqfNz936ZU3PfTJj/UnZqD60sti6qxmuRaGG3XS2yuRe5QHJt/afvdAjblHZPa9VrsLpGR6DSCuE4MoQAAIzDQBZil5drjPo5fLdTarXpYgJU/3t2mkSrOv5/DRwz0+s1Kqaes/nSAPg4ecKoWla3jOCMmJCTYpGdJrqy5v8lrxR+yJ/zaij+pO0vUiISWFn9tTDW1Pv5QMtzm6d+i8xfbRaW4W7v2vVu/a0BIwJqgKd8dXm1ctWH3fK59XoD8K3nloA2fRne+ICNXo6qrcXZ23s3r3F7+/bsH5IyXd3k/uWJq7/ld/+rIS/ZH71n1X53Juer3k5DTy9MpV339ZUNCctq5Km+SUU06ozWn9ikvJnGue/LyejzUg27Zt/eny+eue/UEZnEaS2SQ1ZVazXwshta72KlHJe5YkDD0D/6gHKQkaEQgAgfOBAKOUHB/tshrcPSfCYwesCVLy9GGXQm47EIx6H4MHbHKF63Ccljw90K6VGfeciPdlJqjNmf7KJiWDInnhTfIefOTac/AvNQWvm+M691mUktk8XFnimvX1l4sq/j5JHPtqv7oxd9WW7w5FlbRD/8drc9c+2+yhiRJfy3d35J43UtLX+J+f5a56fPtglIa59unVOZe9JJ9Wx2SG9/n5RRKXkrm3/Lkq+lbjk6P3LuHc+n5b1GlNayEsDW8OBs1mLXh636nZdY10r4uRHkhJRixwEggAgTlIgFFKTpwNhfBh6/FgT4KUHB/tMsm0gSHS3zg+FNDKTF2j5PeJibPH9xhkWt9gnLqcaeE4OT82KXlqexP6sHYI109u39ZK8deOOAcki5S0W50v1QvWi3ZfVVPzrrH9teq4AW6vY88HzeU3VO5eLcJuqpd8YT4Re+56ev9Ss3ujcr9AWX9HVd7aSv7GFoswtvzl+LbG3cTszB3Lhbs2qo7EInpP7mhG19SZJfhwfOQzVioTrKqSFZBD1Wz54lGCxVLe6lp9XSyFaFJe7A+rcu98v5ZaEBB0qAJy1SAt9zDLo9crq39ny8+vWL4wd+Hqq27/7ceCA1REXIhw7v8wD3vu9muWcRatuOrBl79tc9PuB09LzdsP37l+2cIczuqr7nj508I+Ki5ZTKq8Uzjw1X59U86KR7/vJxMZcxkPm82x0Xm2fF2tr1+z6Ka3m7G3nrxhzRLO4vU3bdlWqiPbhqfnq7sXkkP+uTe944o3OOSoLX71/lvXLebkLFxz1W0vvo/tT5hlm5Qka8qxgWYy70suyaVLOrYS0YCTQNKFmSAlA27X+zdyVmytp14zWPMNGou+23rH9SsX5syfv2jVtQ++9JXVTmt+bHEv5FoIlskEq2t01TQUsXoBKZlFc41hhESAABCYAQLMUjIqxRik5EinSaYLHD873GVRW7qGzx4P6GSmzhFSSo4Pd1kUavfh0GQxN7tnmKVksEZZfo0Yu1S0Y00l9yox9yoxslq4e72Y/5zhFDXGnVRKuvf/vnrnupqmzwz7ioyuN5pEt9PnSrq736zZtaa67gNdB9/geruRv7qy8p820t+JS8ldN9SKHpHa81r37lQ331658yctflO0ysfUlj1cYwfXYHykMkFKhq2GpitF5Z/aKE3T/Ub1ruuk+6PKjD1fPP3hH5t3r2lw6iY1L0/e71fk3vlBPSUlGXRGUgFk07+5YRHnqqf+/LUY3Y68fs8VOYs3flA1EunTcSGSc/l19739nWi/UW79/vlbFnJue0ccDQ1YlL+/hsO58om38bh5r919ec6S+z6rn45hfYfh9Wtzc6/Y+gl/r3PyA5s9X1zEcNb/dPOm5//3Y17tDx+8tGHRgtWPVrRG0xlWltbm7azO2/6PTUs5CVLSry57dE3upXd/+PVOaWFe/p82X7GAc3usvAT5pCS9rCkbfcJCZUlB5KNA339s7fwlm/6xPypk2Us0qcbTf+JOkpJtH97CWfJ4dVRKsubr15c/tnLBqjv/8s/t9fzdZZ+/dM/KBeu37jgSvcVY4wYu5FoISVTla8QSweSWiY+QwAA3Q/+TfouFK4EAEJg5AhlKyTODPrVU7Rs8Eyclx4N9DpXSdgB3Uo6P9e/37++fKwtvmKVkuM19XGu1PFAp/tw6pHMMNWmq1zdYGhxDFtLDF/CGk0lJb6v0alHhW+ao8PI7HP8ninklidD8P5qiesjvCjwvjoUGCCm5tsGhiT7dg1WK4lWVzRgtX7wRePa9LE6UkgF3x4u0k21m9Y2i/NdMUTNS5Itnd+qHpt1rGl2JEyW94WykpJf7+pqc618tOhVtu6bap9fkXvOaMbIIifClrd26cyga2lr+q6Wx4VEP8uqqBT95WRCdbug3Vj6xKnfDm9ZpWcDkEG1/8PKF8+YtWPaTh1/4oKbFQkpwbzhFvriIyeFs3KmKVsqw6A8/XbD0pV3W+Ceco+nZVYlS0ieR/vtLca0xmpdfV/Dg4txb3/fSPZfJpSSZPlPK9K7B24g+uJZz2ZZCBbkGP0WJzpmUZM+3Xfjp9TnrnsNIZ7CnXy401smIcYCLuhZCcrVwTWULH6RkFi2TfkfAMRAAArNDYDqlZLi/TSM37T9FuCjHT+41yIz7Il9m1yOJ555ESga84Taz8qc1WmKMCZ80eaviYMJAZDIpadXXrRHVfkeNSns66Su4LbraNaKa/ziD7Z7I58hn9bsul5DLhyNeSXk3lZejVftQg4ZPpRbpWxmlpHe0QMpbU9fahD+BgmJF4ZpqtZB8GqXI91xJyZDlX49zOL/6NzX+6/Z9/DPO0idrI16riE/rbTHpaHSqfnc559o/thJiMWT+5jEO55dfq0baXaP4x+H56y2cZU9F407DjWHpKPzqb1vv+sniefMW3/AXftTIVPkS/rDLf6uM1RH60d0b30dJgRg1LJXgwy9zyH97KWfDGxa6OM5SSvrUtS9cu2jFz7fVWEjp6U1Voiwe2KxeyRT5+g2iJ1blrL7zz3/7tra0MmC0kr553J4UcSNeyQu0FkBKUk0XDoAAEDifCWQqJfE5ktrAEN0rGe5zyBTOvuAZ4u/0UIf+fJCSIZWm8srobjtD/2rAthpI3wn53E0mJc24WKz9nhJ/8Su48VByczhy1iNtlzhCSv6UJiWZBROzlAy7TYoNorKPbMGAp/fdmt03yw9QcidFvjQpaSALSGWdhVcyZPrmUQ7n0W0xKRn45LbYAGiiECGk5DWvRaUkHjc28y9yNC82eDrJTsrgKR4Mq3e+uYGT85M/6AlchM0s+RJS8oqXVRRb5uwYpaT7YPGHr2y89rJlixZxOAs5nNz583KmU0qaje/etmLxDe8WUMBxSqlKlAXJxBp00we4U+YbbC3+4Zm7rl+RO2/eJZfM41x669Pc+qhzN1XcC7kWQEqez8/OLO4m5p4EEgQC5y+BqUpJctnNePDE4InQOH3ZTfigXSaJ+5POca+kw/14Ffdy0c6VIpSYKImuE+1cW8m9ttEmI518LAPcEa9kMilJeAdFfzX11lqpT1+9g9yWMjspGfB0v1G9+y7lIY/VcLuo+B3afiIp8sVb6hjakrem3iqnlTHStWWx7CYtryS1/jcQLyVxr2Tupj8LTFVCM/mx1Er6qemqGfe8Hv1+uaQ3NkvSc2jbfQtzb/9ejo9ZE/4wlnwzFzFB1RePLOHc8OTnkpq6tpaGtpaagifXTJ9X0un/90OX565/4Xsp6eWNdkCpSpRFPzVJSrreiy27STtf15Cxxcr75Nmrchbe8VGAGO5PFfdCroVgnbJkTZWybNKdiDd4mCuZRXPNuMeAiEAACGRCYIpScuL0IXwzoINMmwGNh4aHYn/Her3aue6V9IyaHJ1v1XKf0Q/oHEMak/YOcdN2+5DeOUIfiEzmlSRmJZZ8QI7W+V3exytjsyETQgPekMc97PCQQ3tZSklvsEpRtKbOsENZtja6uXr0/T5FvnjvHGpWla0RN6MJ8zK9YV/tVzflrn7sB3I9BLEZ0JqEzYCk//t57uIt35OzHsnu3st7Y23OhleLE+ZKRvyO4UQhEicliTmLObe8XUmuwvGOecwDdluCTsrAgRFUfnJvbu6mz1pI7O59f7+Lw7kH0RMPb3yGH0u+mYuYYe7WVbk3f9NEEbZUP7UiN9ErmYRk7DZm9Hd6+ngv3rhw5YOfVjHsZJmiRGRlxbJI+0xCDfrkuzctjp/tmpykV27kIVo5NRDvNPzx6txLX5BFtmRKYfOFXAsnvmvKY1wAh1cQSMm0G2cG7RmiAAEgMJ0EGKXkeOjk4MDAwEB/n88oU9o7j+JfTkZW0ES3KPcTW5T7iS3KB5g2/jk/5kr6XW1PiMXfELv/2A2NVzbYtZP6r2RSMoCv4N51VYMOtQ5q7d3/lopvpi+scXe9UbPrstrmz/QdAmP71/Kq60S8Zw0nop42Vinpd/eXGzuoFdw3tdgx/Gu3gpIm3nC7VX+7qHxzXd5dqsN04Rtgz5coXbut9S4RukU7mOj2i2xRvvb/Xv2HCN1BbFG+8I6/CONH/B2q312Rs+zWt778oQpfv7xLJYtIBJsBX8F99dZ3vqnCV3BvmrSCm7YrYbxXMhywKF65mrNkw0sfbKvGdpZ8/sqDl+Ze9vgPfXHm4Vt+7lohEqXeK55Wgz5F0SOrFyy54Tcf/LsK21n08a/vXD5/7cP/7iLXO7Pmyypi/GZfyS58z3ZiBXfOVY//uCtGY0z2yb0LF298HQ1YzEe1tZIvnn/qpvULE6RkIAlJ1pTD9h2/WTl/7aa3hAUCaSE/8pGV1JKszhlJXEpGtyhvRP+z7akbls1f99x2aoty1nzbq766eSHnyvs+/Xp7HT9P+OUr96+Zv+rhbQej9csaNzJXMtk0A1ZWc7sWvOE2m3mTKO/BybdhpAGDlKTdyNP5zINkgQAQmHYCjFLy7BG3PG6kWiKRyBx9UcV45lRvu1WnlEllSr3N38f0w4n4npTnxbIbfPlzjaYS91EFxfKimyMblcdTTiolveHIvpKXiXZdXi1+XR94r3Y3/YcTPfaO95rLNlTuWilCN9TVv60/HPuRNFYp6bOZNooiv/pN+1cU/4s7nsMf1+1aTt8ViDSbLd/oNSf50vzVYtFfzXG/6xPwhokfTrzv6hWLFuQuX3/Lc+9xu+J0Kh49ZC7atuWGdQvnz8PnGeb84uNGcvE4vq/kXZfje0OuvPK2l/5K/eiiN4VXMuANe5rFf3rojsuWcubnLr/sxidf+4/TET/q57NbN4l2XN7knbzwnPUxg+/v+NoDt1+2lLOAs/yy//fY7/9li9vRkCVfVinpq/vm5pzEiZYxGg7/j688ct2qRQtyll520zPvosoPb1uUKCWTkGRNOdXMwnNGEpeS1A8nLrnixoc+/l/8Dyey1uCIBvv68Z9ds5yzYN78RSuuvOfJDxQG2nsRW9wLtRac+96oy1tTqxXROMS1ZJCSZIcWhwVOAgEgMAcJMErJ2V9wPe0WJF/BnbKfIqRkxSfWYad71OWJbSWTMuKcvsB96OsmwRoR/16JsybZw2wutVeTrnadkPfb1ngX6VyycE5XNw0UkJztmjpZoW7eKN61rqblf3Zy6gWtggKeMbd7xOk+/Cn8cCIdCxwDASAwZwmAlEz5XMGlZHQt9s6rpftSrOedszU92TDPyRqd9qn6pm/jf90nJZDZuGCUJ8FW12ir4l2Vs2FJBlM251QUIDnb1eE58kWT6BmlvznJK1ybSXEdufnD+paOufAjn3CjAQEgAATYCICUZKNDyC+/q7/K3CPCPweq7eQS7MnKDM6cOwKenjer8zap++lbfKesOLiAgQCQPHetdJpS9rsHasgOp8oe+9kthtqcphwhZSAABIBAVgRASmaFD7pyIAAEgAAQAAJAAAhczARASoKUBAJAAAgAASAABIAAEMiQAEjJDMFdzO8fUHYgAASAABAAAkAACEQIgJQEKQkEgAAQAAJAAAgAASCQIQGQkhmCg3cRIAAEgAAQAAJAAAgAAZCSICWBABAAAkAACAABIAAEMiQAUjJDcPAWAgSAABAAAkAACAABIABSEqQkEAACQAAIAAEgAASAQIYEQEpmCA7eQoAAEAACQAAIAAEgAATOAyn5448/Njc3Z/mr3Fn8BjdoTSAABKZKwO885XYw/cA09LlAAAgAASBwgREAKTnVZyRcDwSAQHICIUvZ9qd+dvWKJUuve1Vz4fxg/QXW70NxgAAQAALTSCC5lDx9vNuplUmk6vbBs3EuwTOnen1WvVImkyn1Vl/vqTPR0PGhgFYqof/J7AdDcVHZvoz3j/b1DncdC/YnXDVXvZJ+/n80uS9Zq8aSP1bDWQXVCfS5vzQjo1klkkFbySxfR/WTSzi3fxiY0Z/JNhc/zLkk+jdv6RM7hhNY+eq+uTmHvID8n3MPYvCkrpq24veunB+JM2/egsVrrt/y+20uRwY8U0ZxKH57KWfDG5b2lFdmc4GzR3Z7acV1JYmfDbWqqulzHzrUr1277NJffPQ9T1MtHfRnYzDEBQJAAAgAgfOCALOUPDvc59HL5TqbVS9LkJKn+9s0UqXZ13P46OEen1kp1bT1nybE3/gxv0ZmaDt4hPo7enwsXoUmiETyq++Yvcj/PeL9Z+RTvmdXz6k9ZOAESMkZbknnkZR0dVXurs7bWb37i99ftyCJlMxd8+AHdXysifrkC7u8aSDFpWTOFb/6tB6PmFf22dO3L11w+RPbe6dfHs2MlPQMu4QHraUHraU92hdEwl9o9cXE17JDbktqYZ2g0ZN99Sny7lu+8vEfhpJdAOeBABAAAkDgQiPAKCXHR7usBnfPZir4lAAAIABJREFUifDYAWuClDx92KWQ2w4EI0JvPHjAJle4DhNacvyYTyOz9gTHKRGY1oHhkIQSkdQB2val75g9Ej8zKdmd6i8NMcFe2YRX8jfglYxSmhWvJFmJvpbv7shNIiU5l/9GkOitZK/ZSCguJXM3vF42Er3YHfjsjoWcu35UuadNeJHozqFXsl1vLyjrincVB61vVQrvtztccQXxtajzGwbjr4y7IB1ofn3BI8tX/HLbkekX3GRdp2MGXAMEgAAQAAIzR4BRSk6cDYXwYevxYE+ClBwf7TLJtIEhUi7ig9oyU9co/v3sYLtaFlGZ4+Pj5BXscrLn1F5KPr71/W/e2PbC++jvI2e47V8fDw5OTGTolWRfZ0OG4nKQ86YNqzf//BnNwvs0V7xh/ldH7ClYvF2b+6y1jBxidhjMqzbr3+mIVA8hJX9r3Smx3P0sQ9wUT76Qr6jEdMczmoWbVPPv11z7tvmrdn9k1NUz6Lz/XtUlv0j4qO+p8kUucHms19ynf9vgfuuvujUPqBc/pt9S6NGFoo2G1Wb8Gr3T/sxbulX3qzkPam/62LqzO1relPmylyiVlPTK6t/Z8vMrli/MXbj6qtt/+7HgAF21+PX6L575v2tWLc7lLL/spqff3tnhiWUXctQWv3r/resWc3IWrrnqthffx/YnTMLLVEoGjUXfbb3j+pULc+bPX7Tq2gdf+spqJ8e+E6Wkd6T0N1flrP9LqTMqsDwtNW8/fOf6ZQtzOKuvuuPlTwv7aCVitzlkE+7aeuuVS3IXrbjml2/uLPnt+rgBbraUXa2vX7PoprebsbeevGHNEs7i9Tdt2VZK1X4MWthnsP/49vM3r11+wx8N8biYpaSX+8b6ZVfc/vQ2NBtBaa/aumr55r/vo6GYsh6due6PhgsyBQJAAAgAgQwJMEvJqP5jkJIjnSaZLnD87HCXRW3pGj57PKCTmTpHCCk50KaSWTu620wqmUQqU5t9h0dTjW83dZdSUvKj/Nd+9eL9Xze+S50xHJLMgJTMeVx3738cpV3tzW7nb36vzn3BSjmiWGUZLiVzntL9/CPrv7TuvAbr/z0dF5f9KaWXtq68R3Pn947tWvduif2lP2oWPGbaMUjU4mh7mca1U+X62z+0Cx40viXHj3eqXKUHopoPl5KbtT993fh8uStP4/zgc92iezSPSqNCk9XmgLvbsflh1eo3LH+XurbX2ra8oM59ziI4nla+7CVil5I2/ZsbFnGueurPX4vR7cjr91yRs3jjB1WUw6/jq82rFqy+95W/l+dt572z5cbFuTe8IojQCPvVZY+uyb307g+/3iktzMv/0+YrFnBuf0dMxiWsYpWS65/PO+qwDJGf4x7SrejXlz+2csGqO//yz+31/N1ln790z8oF67fuiHrUEqWk58h3Dy3NufHLhkh0i/L313A4Vz7xNl6ivNfuvjxnyX2f1UffOlLYbG5+cf2Chdc+99f/Ngh2Ir+7/54Na2lSkjXlAC4lOet/unnT8//7Ma/2hw9e2rBowepHK1pJBRzwhn0Gx44/v3Dz2qWrr3/8j99odY4EMccsJQPek6r8XS9vum7FsivvePo/WGaC0tH80vrld37YBlIywx6Z/S6DUCAABIDAHCSQoZQ8M+hTS9W+wTN0KdnfppTKtI69ff2D/b0dFpVUbukmRGZyz2S+7z+UcPyq8b1fvXj/dtNn1Jma/YIZkJILtph2nYj2+w6LZf1m3R+c0a+ssgyXkvMfbv0uqngCFq15LS0ue2ULd+tytpgx0t/pOdYudHtlpBmRuMnmLOJScpN6o7A9KolGPX94XrX0c5eVUAysNgfqC/S5D7V+2x8toHu/feMW7VZlzBHrDQeS5cteIlYp6eW+vibn+leLTkXzNdU+vSb3mteMkYUmvvp/35q74pffHoqa4W7/bOO69Vur7ESOPon031+Ka41Rt6tfV/Dg4txb3/fSxQqblExYdkNbndMu/PT6nHXPYeTwt6dfLjTWyYYiZhBS8vpX8/txDWrsqf7m5WtyF936nitiswd5ddWCn7wsiFaZ31j5xKrcDW9aoyVitdmDvroq5/pXi6P5+mQ7NnJyqGU37CkTUjKHs3EnOc4+LPrDTxcsfWkXUft+k3vnOy/evHbZ6hu2vvlvoyFRREY0ZTIpGQk9qRLsfPmea5cvu/LOZ77lNUdeMxLE6KSv7mGXdchpPqLkffSz5Tf8LvpyMuky9iYEoUAACAABIHA+EphGKTlxevTE8VNj5ILuUK9DIbN0j7GOdPPa/0UJx8lSsmofdwakZO5LVjG5Ctvdab9ts/pJdVTTsMoyYoD7RWslFXe/7We0uOytwSA3rdqkufM7+7caT2WXz0oOT9NjJZN0Ea/kb61RWeYN+9Edho3bXRGxxW6z4FttLs1menbUcbJ8qQsYD9ikZMjyr8c5nF/9mxqHdfs+/hln6ZO1kVFsr+Cty3JvfruSFNaM6VMnHfLJ653ZpGTuigc+VJQXa6KfEr1ET6pSg+iJVTmr7/zz376tLa0MGK1xC5lxKRldwY2v4543f9WNz5ZIo+IsZP7mMQ7nl1+rRtpdo/jH4fnrLZxlT0VLRFVN9CDO5kk0HLLfrKO8kqlSJrySl/9WSY1ZO9CP7t74PkrUvhf5w7q1dz3/pak1fh5kvD3sUjKi/06oBN899f/WXZ/ehj5e5A9rFy9atGjxktU3/epTs4PmIo3PGsQlEAACQAAIXHAEMpWS+BxJbWCI7pVM8D2On9ijl+k7TrBKyap9XBYpqTpYm72UTFh+E1Ek9LmS9A193F24lHxclbaUpG0GlBCXkj7MByFfcZnprmc0uXfjcyI5j+qfrmmLuBWp65NJuoiUfNnG/JBml5LpbGCULF/KMMYDVilp+uZRDufRbTEpGfjkNs6Sx6ujUpL/p3W5t/y5KomUdB8s/vCVjddetmzRIg5nIYeTO39ezIcXgcAqJdc8i5B+x0TLg63FPzxz1/UrcufNu+SSeZxLb32aW0/WAi4lc6568p/K8uLGd3+xLOeGv9fEnHwhvETk7kLk//OoEgXYbCbi0mnEreBOlTIhJa94WUVJSXozaK/d/ch1q5euu+vJd0QNBvIlZ1KpGZfdxNJxHar97ovHb75s6ZqfPfPfPXTvb+ya+DT9Br+4TCcske/+8NfXrN70UXWSqoyPlSw1OA8EgAAQAALnE4GpSkly2c148MTgidA4fdkNo5Tcwy4lvYMWSko+986jz7z5y9e+fJY603uqM3spyfj0ipOSNC+dO96zmCjL9Piym3f3RCo4K68kZZXrhK+l3f3Jp9qcew0fdcU1nWSSbmpSMt7m888rGVR98cgSzg1Pfi6pqWtraWhrqSl4cg3lw4u+22UqJclXQ9eQscXK++TZq3IW3vFRdGtM+lxJp+DtKxese+z7vug7hpfwHeZu+rPAVCU0kx9LraSfuIDd5ohXkias432WuL8zacrhyFzJZFISbz+O7vKv3n/g2lVL1t35xF+E9QyCMrlX0nlQvO3TLT9dt2TNLVveLK7WTV0ROppfumz5xo/96QjQuNZO3RFwAASAABAAAucXgSlKyYnTh/DNgA4ybAY0HjzS4XR3HiMHuIMH7XIZdWWCziS/njl7pnZ/PqUd6Qfq3rrIVRlvBsRSE3QpOf+h1v+ScwdNKtNq2nxHfGbhw6b/kdPF1NVGzr3Gfx6OSUn6XEmz1pT2XEm/3O1GHO3Ufn5Ol+XqzdoXTKRSISROfT6ee17c+hI8a3YpyWozMVfy4Vh53Z32ex7TPkN6YSPEkuXLwhNXMGxblHt5b6zN2fBqccJcyVbaXMmVW/5LzZX0//2e9Vc+U0PsBz7M3boq9+Zvmsi1MgFL9VMrcqmZhZG68En/9/PcxVu+T9zOEN+iPDepV9IrN/IQrTxWC4Y/Xp176QuyyK6TdCkZcPs+vX1R7o1f1FHLt5FXV+Xc8nYlVTtjHvOA3RbRXilsJuZK3vK2OCrUiNmfMT8rPlcyacppSMlINTm6y7987/5rVi1Ze+cL3yd4FpmlZHtt3pYNa5asvvmXbxRlIiKj+db8evXyez5LyJGU7OxNCEKBABAAAkDgfCTAKCXHQycHBwYGBvr7fEaZ0t55FP9yMrJhZHSLcj+xRbmf2KJ8ILpF+Ui3RSHT2DoO4LuX40Fqz5HUv3YTPhOUH6iii0hu+9eth2S9vb3ffvvttm3bPvvssy+++GLbtm0IgpASNMX/4+Pj3d3dvuE9jFXiG96DS0l8whzuWaSvwr7vSXXO89ZScjzUtcd22wPqqz+xfat176yzbnpCtewdh5ScaYcPFv9afze5gvuBrXFxGbOmTlbx9Qs3a+/bja/gzpM5XnkTX8GzLSpSo94ao9y0YpP2AZ7zR3wFt7tmIHqeXUqy2hxdwb3mTcvnMtePdbZHX1TnPmsh146kyJcynvEAl5I5127dvWsnvmd45IPwnObItDmbAV/BffXWd76pwldwb5q8gnvlgjX3//5zIfqj4L1Hb16Su+EVwTHCnjHZJ/cuXLzxdTRgMR/V1kq+eP6pm9YvTJCSAYfqd1fkLLv1rS9/qMKz3qWSEQKRXUq2V31180LOlfd9+vX2On6e8MtX7l8zf9XD2w5GBH2clPSGLDteXrNg3eM/kHrXonjlas6SDS99sK0a21ny+SsPXpp72eM/RNyWqWw2Nb+4PmfFnR/vqtyjblT+89f/95NVND8rW8ppS8lIHdm7yv75/vOfmuNHw5mlpLfg66ffKKzSTt0TSWsPfkPRluUrHv4XSYkWFG1dcAYIAAEgAAQuMAKMUvLsEbec/gOI+LHM0RdRjBNnTvW2W3VKmVSm1Nv8fdQPJ05MjIeOdXlMGgURhP+mYjRGCuGHBx8b63f1G21HNe3HbMPhE5EYRqPxY/Lv888/7+vrSyOl6CUjIyPdB3omq0nf8J6uA12Bk3uJiiQGqam9Ie9N3FfSGw7I9bZf/k67ZLOK87D2ts9t+UeoJyIel/OmXdBi2fiMhsMUl62tjLZjAtPPtmo496jm36e58o+mDyw+yvEWjTjWvmO74aqH1PPuVl1yj5aaHMkuJVltxo3H95X8E76vZO6D2hs/iu0rGbM2Sb6xC5icTLiUnEfOGoz+P/+K98pJNx6xr+Rdl+O7MK688raX/srvoY+BEvtKPnDNqkU5ucsuu3HrW/R9JR3+H1955LpVixbkLL3spmfeRZUf3rYoUUp6Q+aibVtuWLdwPmFDzi8+bsRnCrJLyYB3RIN9/fjPrlnOWTBv/qIVV97z5AcKA1kL8VIyHHDa/vLT3Nwb/xlzTDaL//TQHZct5czPXX7ZjU++9h9nbLlJCpsj+0pesSSHs+zKB17+tvJPN8SVyMOSMutcSapxsh4wS0nWKEw1ztQeIr9288T/4vciYLpyWrKDRIAAEAACQGD2CTBKyfQF2zm/sqam5uOPP/7kk0+8Xu9UMwsGgwlqMqIjafqSkJK0pTPwzAMCQCAbApa65y5bdt3TRY3aQZcjbkX87Hd22ZQL4gIBIAAEgEAyAnNdSp49e5bH4ykUiqnqyMj1dDU5SUdGB7jpK7iTYYLzQAAIpEVgVP7fV29avWTxoqXXpbeREEhMIAAEgAAQOL8JzHUpmZmCpMeKqMnA0N6uA100f2Sk2sAreX4337TETbqDs4Biugj4zN3Nla010sG4ZWRQWUAACAABIHBBErjwpeTExMTY2Bi+CucU8yqcC7JeoVBAAAgAASAABIAAEJgBAheFlJyYmCB3/5kuvwukAwSAABAAAkAACAABIBAAKQmNAAgAASAABIAAEAACQCBDAiAlMwQ3Ax5jyAIIAAEgAASAABAAAnOcAEhJkJJAAAgAASAABIAAEAACGRIAKZkhuDn+igDmAQEgAASAABAAAkBgBgiAlAQpCQSAABAAAkAACAABIJAhAZCSGYKbAZkPWQABIAAEgAAQAAJAYI4TACkJUhIIAAEgAASAABAAAkAgQwIgJTMEN8dfEcA8IAAEgAAQAAJAAAjMAAGQkrMrJX2WFnXjbqNpaHbNmFLu/iat/f0yV82JKcWCi4EAEAACQAAIAIELkEByKXn6eLdTK5NI1e2DZ+m/aT1x5lSvz6pXymQypd7q6z11Ji50YmLi9EC7Vqp09gUTA2bx+xz9tZsRU+X1+T+uLiyrbGd5b3BrmtFLK+rsc+MXjUfdz2xRXXK3+uGWuWEP/MQ2EAACQAAIAAEgMHsEmKXk2eE+j14u19mselmClDzd36aRKs2+nsNHD/f4zEqppq3/NF0jjp/a3yqTmfafGqefne3jOSolw36rTi8tM1tYPXxzS0qG/XKb88sGd/OpC/DVikXQQxAQAAJAAAgAASAwmQCjlBwf7bIa3D0nwmMHrAlS8vRhl0JuOxB1OI4HD9jkCtfhmJYcD/Y5lFJt+2Ds1GyrSCL/uSol01Jjc0xKpmXz5KYGZ4AAEAACQAAIAIELjwCjlJw4Gwrhw9bjwZ4EKTk+2mWSaQNDpMdxfCiglZm6RsnvZwZ9WqnS0RskT8wJHTkxMTHnpOQBTfFl+T+uIj7rRA3e+MHiULuR21Bwc9GO9cW8Z6QqUTM2aYDbon1349Vrrn7s8+qRKWi74u3a3GetZaPRKA6DedVm/TsdZAohX1GJ6Y5nNAs3qebfr7n2bfNX7X4P6TP3HHLcfa/qkl8QH3os/AI//z+a+ZEg6t/N+vf3kSmH/S0q68O/0y67V815RHvHP+2FR6kgOAACQAAIAAEgAATOVwLMUjIqABmk5EinSaYLHD873GVRW7qGzx4P6GSmzpGIchwf7bbIZcZ9J+MnV84FOTnnpOSwW99oVDUYlf+u3nVpopR0yZqwtYW8VxVyiUmV31L6ywokUUr6mr7buGzRosUrH/5Xb7wMJZUf43sPu5TUS1tX3qO583vHdq17t8T+0h81Cx4z7RgkG/dIe6natVPl2o4ZlyZKyYBxv6fQ4imIflzvv6+Z/4DxHwejcS0WyzWb1Vf+1fq1wrVdbLn7cfWSN+z1Y2TKrDYzFgROAgEgAASAABAAAnOBQIZS8sygTy1V+wbP0KXk2WN+rVTZarNoFVKZUmfvODo2Z5yTc05KkuLJLWvKS5SSPs2fi3fcIdEPR5WWFavauS5x2Y3naPW2L//0vrDREpqCIGOXksLdupwtZoz0WXqOtQvdXtmkeZyJvkyyLGSD9jdWG9du1m5paHdGg/zI15oFWy0CcnqlUW5atVn3ZvsULCcThyhAAAgAASAABIDAHCIwjVLyzFGvSirTOvYfHjw20LfPoZXJzV3Dc0RMnk9SMtQme6Fw57NaB6kR3appW8HNLiUNctOqTZo7v7N/q/FUdvmspAEJMo5dSqo15mvv0/y80GuhJGbI9837as47DtVowDWGfxx7bLds1jylmYI/NcEG+AoEgAAQAAJAAAjMBQKZSkl8jqQ2METzSo4f79DJNO0D5N5AZwba1DLjvjmykPv8kpLS5wp3PkeTktO3GRC7lPSGfMVlprue0eTejU+I5Dyqf7qmzUopQvKARUqa3bbbHlLf8INbR5ehId8376mjkyypmZR3qx9XgZScQ6+Vc6E/AhuAABAAAkDgvCMwVSlJLrsZD54YPBEapy27OTvQrpJZeqgx7fGxHotM1T4wN+ZNnl9SEvdK0qWk+px5JfX4spt39yQKGtcJX0u7+5NPtTn3Gj7qSgxNJiWdnY6HHlev/5tTmjAJkvBK5v7RKvB4hV7y0+aVHEtM+by7f8BgIAAEgAAQAAIXOYEpSsmJ04fwzYAOMmwGND7aZZapvUfJXYBOH/WoZKbOOTLCfT5JyTAxV3KTrJUUZI6y2l2McyW/eusDUVNsHJn0GrK06foCfe7Dpv8dj2o4dbWRc6/xn4cjX/1ytxtxtFMJOl2WqzdrXzAl+g4ZpaTnqPvFF9Qr37ZXkRMiaWbgcyVzXrJWkrMwvUG/echvIwtIuxLEJRAAAkAACAABIHA+EWCUkuOhk4MDAwMD/X0+o0xp7zyKfzkZ2eAnukW5n9ii3E9sUT4QVY/BQ261TG0NHDh85FC336KSqpx9lJNylpdxzzUp6QpYVA3kCu515UIUP1bpXC5CDjplTdi64sIvjMZ9brNWI3qyPG+aVnC79thue0B99Se2b7XunXXWTU+olr3jkJKD0VV8/cLN2vt24yu482SOV97UzH+4dVtUaAbM+z27VOQK7k3axyvw4122NkJ6+nf8QzN/i/EtmVvQ6uZHPiZPbX/0ZrBYLFdvVm/43LZN5d7ZbH/lbW3uY6Yf4vcDcpne/n/LFi9/4G/NIDHTeCsA/Q0EgAAQAAJAYC4QYJSSZ4+45ZKEP5mjL6oYz5zqbbfqlDKpTKm3+fvoP5x45lSf36ZX4b+pqLO2HzxJeihnWUfOvX0l/abvRDsim0rS/t3xiNIcUVGRfSVvKtpxaRH2RIu8VsZfn7iC26J59+dXrb7q0antK+kNB+R62y9/p12yWcV5WHvb57b8I7RXn9H/z955xzdR/g8cpE1BWV2UJUsRVERFBBEVcSCiuFCcqODELT83iIqDpINCadp0pns3l2avZo82CbNAKVBaKNCVAOWrIugfv9ddcsklTS5pugJ8+soLklye9X6eu3vnWalN3Cm7fQWfci/3ukX8iWtkH8mNOlxrinaKQhwzHfEnIa8rSzvNBt+zIU3lVYqHXhbcsJAb+qDglo/lP5mdO1ZiZ4Kx/Ld5I0dELk2VOHayDIYzBPIABIAAEAACQAAIkBDwqJKDb359noNg65UkqZJr9JBFunnFmOunvLDNsY0lrrDXKBAoPhAAAkAACACBK4EAqCShT+5KqLCr1qtaEleOHznzy1w11AIQAAJAAAgAASBw5RAAlQSVDAoCGsGaaWPnfW40XrWufOVcFKAKgAAQAAJAAAj4TwBUMihEyv8Kg08CASAABIAAEAACQCB4CIBKgkoCASAABIAAEAACQAAIBEgAVDJAcMHzbQByAgSAABAAAkAACACBwSIAKgkqCQSAABAAAkAACAABIBAgAVDJAMENlvtDukAACAABIAAEgAAQCB4CoJKgkkAACAABIAAEgAAQAAIBEgCVDBBc8HwbgJwAASAABIAAEAACQGCwCIBKgkoCASAABIAAEAACQAAIBEgAVDJAcIPl/pAuEAACQAAIAAEgAASChwCoJKgkEAACQAAIAAEgAASAQIAEQCUDBBc83wYgJ0AACAABIAAEgAAQGCwC3lXybMsBjQCpZPFqm89fIP6dO3PYqBBxEAThiBTGw2fO2Q52tewSsipd/1jCXS1dxLCD9vzAgQODhbh/0jXJtjCp00t5bW4qbBJ8lEZdgEg73N7v/csaxocTrxti+xt6HeWGmLsee6+Ur+nBT0sbizbODo14JqHVLTOGpLVRobe+m9fu9r7tpTPdoUOvo4wZP/updVSzvmdU23m09fMnjg65buiQIUOum/BhZk+y7TFX8CYQAAJAAAgAASCAEvCskudbG/QiNluoVIgQN5U8e7yGz+JUGw8ebTx60FjNYfFrjp9FDRFVSUSoP3jM9td47JBBiIh3nwKV7IFs+d8oB0clQyY8+kVxUmJZUkL+5nVPTAwdfvObYp3fVhe4SoZMfOTTnHhafuzP1NfuGT8s5KbXUlv8Z2WW5S0fExLzwA9btubH0/ITdmiq9f1SKT3Ikt/QIE4gAASAABAAAkFNwKNKdrXXKcS6g6esHYcUbip59qi2iq081Gnview8pGRXaY+iLomppGx/q10du87slSAC80nXHk3oleyr1jA4Khk6480MRz/oKcaLU4eNWb1N7q+WBa6Sobeszbb3WZokmY+OChm/mlvjt40Zi3+8LXTs0/HuvaF9VRcQDxAAAkAACACBa5eAR5W8cN5iQYetuzoPuqlkV3udDBVEvKux66RZgMjq2tHX562dHZ1n7UfOo32UomDpk7xwIcgGuNFhaNoyDj+9PHUugxaTmvh4OWIwOt3IUivLqkxfmBYbTadNz6S/UcWvM9mPNgrTxyVvHev2SGEkG7APYAPcixBubgXjTgYthrF9eUWVmRAzpn1ywQfzJkdMfvyrfIcX+tZBdKDZRSWtis1PUELv28DqxM4fi7qQ8dr9t0WNoISERUya88L6xH1229Mf++n+MPvQOOE/yr0JYqx3EBvgnrOOlvHq/Bmjw4aPnvTgy1uMjiFsLF2nSprVFc9Hhox/iWOL3D1X6rJnxlJmva/FimypkTcpJMerM//vltDwJ39vUEiOKyTHldWn3YE4yfvmcO1eLIASEAACQAAIAIHuBDyrpL3z0INKtu2XIUJzy/nWOjlPXtd6vsUsRGT723C1xHsdzzfX8hHJ3jPu7+PHB/z/IFRJ6qystI+E4t06ebUo78FU6nyWGO82U+UWJ0SlM74WcDnVvHQkbRaddj9bauuWa9eJyyTcEknFW5nUSflFBehzbolUtM+mR5hK3pad+jKbXSUX5LLTZtNpi6tcp04ay7bMGzl8+IgxSzYdxg3Vt0K5S5uho/S9O0JGPPW7BA1r4mU8FhEaPf+TH2islPjktQsnDKPc8X6uTVXbeBmF6PD0hpcmDxu5YB0znoYONG9L32PzRVQlQybfdM/T7/1SmZ6U8f6iicMod36IT53E0r35zfSTetUZrdiUtG7xmOvvej/7jE3p3HNFVEkvCgtzJcGGgQAQAAJAAAj0GYEAVfJcs5HH4hmbz3lWybONeq4nwxxwg3QkGIwqOaOUi0/40/ErEqMzC2Q2sTMpOAJWkUpjsVezOqMwNopZWkvUPtIB7ilF7EY8bHphbHROqYkY1qxvzN/83dr12aVyPInuXzK6vYNJ2/TXko+r5SfV1UfZOzcuDA+JeJwpw3oWjZWsH7/LLZTYIzQJ6Q+OCL1tPbGr1Uo2wH3dmEd+OWovvjD5gRGU29azy/rbAAAgAElEQVTX2uQYTRdf7jNkyNDQyPmrf9/tGN0mU0lDu7iAm0bnpG56Y0rIqPs/qkyjc9LonPRMsxLmSnar3z67pkDMQAAIAAEgcE0R6BeVtB7RVCHyAx1B0ycZlAPcxHXW+l0cenRqdqnngVcdr3xbdFaRiqiDpCp5LyLBV3DrBRWJ0VmFcmLYwKTBVemGDBk6PGbBtwyhFxlVs1+Kpsx4S15LOJ3IVDJ09rocfAW3hvNyDGXqGqktLCaLU57eJGBmiLN2Mj9fNmtE6LTn4u3eSaqS9q5Wb+kGxgFCAQEgAASAABAAAk4CgaokOkdSYD7pqVeyq7NeyWar6u1Lcxwdg4P6JBh7JQlb9uh3c1GVLLGrpP6wvGxt3o6ZqbSYFNq4FFoUfWtUT1SSGLMQ7e/sK5UMmbT8W04mg5+VLi1mHXd0DaLtSVfP+OTleVPHjRw+nEIJo1BCrxsa0hOVJGwGpOG+Mp4y5Q2iShLnSsrenhYSdt92CdazCCrpPJkJ1g5vAgEgAASAABAYIAI9VUl82U1X56nmU5Yu4rIbuyp2tddVI1WaBsugqqN74sGoksS+QzOhV7JTV/l0Ku3ukooqlcyoqTZqZBklCT3qlew3lXRddkNoo53cbx6+nnLT8q8qC4pqKkpqKgroyyN61Cvpt0oamrY8MDzklu9KdGinYw1jvctiIHXpM2Mpsz/QEft3oVeSUFO+J8XCh4EAEAACQAAI9IBAD1Xywtkj6GZAeI9jF2EzINwk0U2AODpsfyB3nxvE18GokjcWsY/Zq0pTWpIQhc+VbJUxp9KTt2gc8/m0JSXx3Xolq39lUqeW8vCVOniPlPsW5XpPvZLoXMnv133ELPN7Hx9M2txXcBPaWev2FWNDZ28sw/QOfV+e/+ToUPdeyeJNt3ralMd9i3LyXkkl97XJIWH3J0ltczSxjX6W/dFsy4yJt+0+StiCbw8RB/RBJQk1BSoJBIAAEAACQKBPCXhUyS7L6eampqam4w1GCcJR7W9EX5zuxKY+2rcoN2FblJuwLcqbsC3KbZ7Y1bJLxOIaGu0/gTOI8uiadDCq5G1ZqS8hSEU1LwNJu5VOvYcltq1K7tCWP5YSu4TF312jPa6XVfFyX2QmjnMb4DZrCorjo9LTfxZxSiTc0mqZfZ2NPyrZRyu4iQ2xA/n8vrAR897cZpZXNwoKK7957slZMWFuKmmWMJeNDhm3+Dtsq/CC5AL7fEffKunYonxL3Jv33Rh63YQVtCN2WdTqPp1zPWXy0x/9XJRES1q7YMKwkUt/sO9PZM+hD5XUyt6ZOXLEqMUbyvEJpriXg4EBASAABIAAEAACPgh4VMnzx3Rs119ArKxE1A12Yzx35nCtQshBWAhHpDQ14D+ciKnb+WYjn8V3/6lFV6sblFfBqJLo7o+VjLsYtHGpiY+57Cup2yXOfzorPoZOnZie/AqbL+DQx7urpKFDx92Qt/1G+tbw5K2RGflCm1r5o5JmOf+DuyeFT3qsl/tKurQttWnryw9PGzt8WMgN42at/GAb55M5w91V0tDOpa6fP2l0yNChQ4YMm4BvM+5bJe0ruIcOHXZ9xPRHXtmsVRNsr5Zd+v7SO8ddTxlGGTNxzqpPkw8TR7fNBq8rx235N5b/Nm/kiMilqbbJly6FIqQC7wMBIAAEgAAQAAIeCHhUyUGRvf5NNBhVkjCjEZRl0AhYpJtXjLl+ygvb7EPkHk6SQcsbsd8XngMBIAAEgAAQCEoCoJKDog7ufYcgK4NGoCVx5fiRM7/MVQfl+TloWIAGEAACQAAIAAH/CIBKgkoOCoFgSVQjWDNt7LzPjW5j4sGSPVBJIAAEgAAQAAJBTgBUEqQBCAABIAAEgAAQAAJAIEACoJIBggvyrwiQPSAABIAAEAACQAAIDAABUElQSSAABIAAEAACQAAIAIEACYBKBghuADQfkgACQAAIAAEgAASAQJATAJUElQQCQAAIAAEgAASAABAIkACoZIDggvwrAmQPCAABIAAEgAAQAAIDQABUElQSCAABIAAEgAAQAAJAIEACoJIBghsAzYckgAAQAAJAAAgAASAQ5ARAJUElgQAQAAJAAAgAASAABAIkACoZILgg/4oA2QMCQAAIAAEgAASAwAAQAJUcXJU0yit4pXES2ckBzsZgpdt/xbz6StR/rCBmIAAEgAAQAAJ9RsC7Sp5tOaARIJUsXm3z+QvEv3NnDhsVIg6CIByRwnj4zDnnwbOn6msVQuyQUFFbf/qs89AgPztw4MAAiHmPk2iT5UxP3hqekpFT2+Ow/v3Iuudo+zpdbXYhbWzyVttjYgm3tc8aqDP/HTruhrzEG+nU8OStY+mJXyr0RAKeSjQQuSLmwfnclPQTP3SVIq+jjzlUl0sp93CHYI+hD8iobX0cv5O2syyQBBAAAkAACAABMgKeVfJ8a4NexGYLlQoR4qaSZ4/X8FmcauPBo41HDxqrOSx+zXG7MVqO6rgsnnLPkeaTzUf2KHksnv6YdZAVEk8+SFXSalIIRayMavkpskrqhxt8H6erP6jklUi4JZLKd7Ko/aOSmuKS+Kj09C0iDpqQVKCvccXioUQDkCvXPDgqsb9UUttgiONqaVztN98Lh4FKgu8CASAABIBAEBDwqJJd7XUKse7gKWvHIYWbSp49qq1iKw912hStq/OQkl2lPYq55LljuipEfqCjCzvW1XFAjlTpjhH6LHGtG4z/g1UlHfJxlTyR03L6RyVN1b8xqVNLeQH1d/ZbrrzVGqaSL/Z9r6TDXCvSxKGgkkFwAXXUCDwBAkAACFyzBDyq5IXzFguqgF2dB91Usqu9ToYIzCdtunjhQtdJswCR1bWjrzGVVNZb7KZoqVeCSnpTDbPhEJ8xDh8RjmKWGEwuTbDTIKSVpMxl0KKSqeMZO54sZ2n8HgEnD0uWrknwURptGYdHL0uZk0qLYWxfXsE2Gp0Z6zAIfi7aOTOFNil95ytVgiokKSarSOWSc+/SZpSXIhkPpMeNo9OmZaas5QqPuAR0puLmBxaTtrlG01Qj3phNnVbCOYI+1zTVak/jwclKZOffm1zJBR/Mmxwx+fGv8nswmoyp5EsKWqV8/jP8sEX8CW9Vb9qFZxgtoAkRKB95TTDqPl7Yw4I7vlbuPEpsKuRH0U+CSnptMG7tB14CASAABIBAPxPwrJJ2G/Sgkm37ZYjQ3HK+tU7Ok9e1nm8xCxHZ/jZMLc821QqqJKamzq4LXZ1NJglb4Bj7HoyOSJc0g65XslUnKkVHhDk/5sdGu6ukOq84PpKR8jmfUyHj5fLyljKot5RwG4m24fW5j7Bk6aIqSZ2VlfaJSFJnUKpFuQtSaIvY0nZ7Woqd+XGRqcnv8zhINXdnRcbTzMRx/qqkVlCxIzol8QWEVSTl7KxkzKLHPs6t9mcqYaMw3eHcjumYxLmSZCWy59ybSvqRK2PZlnkjhw8fMWbJpsNEF/TKH1McVCVDnhTe/alik0AXX6J44Cle6POKDFxGlRrFjEW8SZ8ofqjS/p6nuPcJ3ojXlHk4Z/KjNoUClQSVBAJAAAgAgSAhEKBKnms28lg8Y/M5okpeuHC+7UiNmM1CEITFFukPt7qu13FxuwF+EXQqiX9F0CFl8e4qaZJ8n0WdUcbHzcPQpJVUqxQt5PpiO+pvWI/poio5vYSLJ6TJK4qNzik1YgplMVQ+lUJdwnH4nzIpnxblp0oaee8yqLdXCPApoZrCkviorCK1H3LWYZAJ5UKBHHk/kzq5oLQKfS4UyMW73btpPZWIXCX9ypW+MX/zd2vXZ5fKLf7wt9dC0k/865ZItzTjGRBURy4Uvq6xH93+Iz9kpTwVH6yX8WQRC4Vv6Pw5ao8QVDJILqCQDSAABIAAEOhLlbQ2mcQckeHQidb21hOHDCKO2NQEy27s935vTc2jAKkLSuKj0lI+47LL5JLdBm2nj0iIkfsZ1lO6WK/kAkSKdxbqhRWJ0VmFckz4OtQli+mxb0l1DgnmlW+L9k8lLTXIcym0lXxVu0nfgT50tVXJ0anZZYTRczxaYlkIz02yLUzq9FKeQ6+7fd5TiezcPPdK9kGuvNULNsD9giIHJ6nbp7x9IW85zyblxk0f8SgfqoW4m/bgKF5qUElC2/BWC/A+EAACQAAIDASBQFUSnSMpMJ8k9Ep2tddVI7zaJnydzbmmWp5j7HuA+yC7J3dF9UqaDZ0GUVxpylwGtvFNMu1mJjNFrcU1wsdN1L+wnsTLo0pmOlXyfnrs2wSV5PdAJVnPpti3CnIMUoenZpcMskr2OlfeTlFMJQmbAenqVHMW8pZx7Sq58UNXlfT/KN4GQCV9nAU4KPgYEAACQAAI9DeBnqokvuymq/NU8ylLF2HZzfmmWi4iq7NNm0TX7LTVyRBubVNwDHJfYSqJ3wj1LQa5Wlb+aiZ1XG7Zbj+Gg/GABquZPGyPVbJTV/44nbZSoML70tDhbz8HuLH+P+ojiEChkijxh0qlaPKmYt3f769eyd7lqns+be9Ar6Q3MvA+EAACQAAIXG0EeqiSF84eQTcDqvewGVDXmb0ShKs7hm9LfvaYjotI9rXii7279xQO5DtXlEqaFNUynkTr6IbUyyq3R6Xn2vq0CLLo6XuGv2F7rJJWk/SnbGp0ZnaqUtlcq9KK85/OjO82wK1IyKVOKKrCZ1viOcRmJS5AJPjKEkOHUdtcq8PHf/GPkZxdvVLJ3uQKnSv5/bqPmGVyH+SJmUdVkjhXslogI86V3IHNlWS4zZXU22IwkR61p8LKFIfeL/0Vn3vqB0Bi9uA5EAACQAAIAIE+I+BRJbssp5ubmpqajjcYJQhHtb8RfXG607ZM27ZFuQnbotyEbVHeZLPHrraDiioWX7X36ImTJ47uVfERjuoQtk3QQDqjl7SCTSW1ZjkX29MbXcEdlZm9DV3NzRXa9NEk/YVJi85I+47PKZfx8vn5y9KoUwuRw/7Uuo+w5Omiy27c50riA9xWs6FFVb4qg4b+2EwybU5h+Y7yxG4qqRNWJEal0j/mVxUTS2TW8iu2R6cmralCSqRcJi9/eTp1ZnHVEX9KZPuMV5UkLZE9/l7kKvAV3KFPi+bjK7gXr+CFPKdIx91RqUVXcE/+VLGRg67gXuC2gpv0qM0a1Ur5hAX8235W/8ZBdyyPVdYQTVcre2fmyBGjFm8o74Gs+18X8EkgAASAABAAAk4CHlXy/DEdu9LtD1E32Psbz505jP06IgvhiJSmBsIPJ3ZZTx6okQs5CAvhCOU1h04Fy6KbCxeCTCUxMXLMGsSfUB/G10e36/lbiulzGLTIZGoMI3FpSSnf4PidQNvKFfd/HUtzyMKSp0s6V9LeJ2fS7FVLa3SadrOOW74tOrtI4zrsbqkR/l6UdFOKbZans0RWo7wIyVicHhtNp05O37mqkq13LsF2Lwu2NEfvKBGatDeVJC8R3tADypVN2uT8D+6eFD7psR7vK0l5W7WzQj5vJZ9yn5d9JV8VjLyPR1kimPOVMsnFqrF9Jb0exQplMaamSG96lHfdfPR3FENeV5Y6cRnLf5s3ckTk0lSJo81AtyUQAAJAAAgAgX4i4FElvfTsXclvB5lK4orTgzFTPIjnfRaTiQti+qmtuEWrSMyjjcuvPIRnLICy2IIETYncCnilvrRIN68Yc/2UF7bhWxFdqQUJuEVBQCAABIAAEBhAAqCSvTahAawt1Ak6ahQ6lVTj9lDL6pydfP2nDtq9Ctu4PEItS55Kj18lVDo7wwIlOagl6j9WgxZzS+LK8SNnfpmrHuCWCckBASAABIDANUkAVDJQAbommwu6fmVs8tZwOm16Zup7PLF/P8AzaFJ1TdaRRrBm2th5nxN/8fKa5ACtDggAASAABAaGAKgkqCQQAAJAAAgAASAABIBAgARAJQMENzCmD6kAASAABIAAEAACQCCYCYBKgkoCASAABIAAEAACQAAIBEgAVDJAcMH8/QDyBgSAABAAAkAACACBgSGAquR/l61X/ePAgQNXfRmhgEBgUAhYO//rp8egFAcSBQJAAAgAgR4RAJW8+jW6Rw0CPgwEekqgnzzS2vlfT3MCnwcCQAAIAIGBJwAqCSoJBIBArwiASg78hRtSBAJAAAgEDwFQSbKb6MXG7C7p0rNlUWfLorqkSy82ZgdPzUFOgECQEACVDJKKgGwAASAABAaFAKikF5W81HlBvtKaN8TtcUG+8r9LnYNSVZAoEAhOAqCSwVkvkCsgAASAwMAQAJX0rJJ/7v3RTSIdL//c++PA1A2kAgSuCAKgkldENUEmgQAQAAL9RABU0rNKnq+61eGObk/OV93aT5XRLdqOTr5Bl7S39aznTHb7PHxs4Amcrq+i/h6Xs9dquWaro49U8n+mou2bfy3TNP3riPCqRgotZ+DPVkgRCACBfiHgXSX/amrQ8ZFKFt987LLLbkEdZxtr1GIOG0G4YvnuxpP/OI92nD1eq8EO8cSKPcdPXnIe6pfc+3+n6elmQNbCMDeDdL4sDPM/XR+f/Lul/rvylCkp1PDkrWPpKd8edkH91wHeDPrWcEZFSZsjnr+L2XFjk7faHpO49X96BGtppxXGThcc+cvj0eB8s5/y3N7M++Gle28cG0YZETl98ZrfVKd7ND+ho+6XOymRr3E9c7b+92fZ2qjrhgwd8Vx+s6OOBvuJrzzjZ+XfkncmUWZ9X9Peyww7zM/aejz/w4enjg69buiQIUOGTflA1UbcJ4j86Gn+6xHXDRl6/VNpZx0R9jJj/13uTe13nJL89NqiaRHDQ8PG3njvqm+qjra65sdfzq6h8LMvGFsOnje8hXjOORwFAkAACLgS8KySl88eNIrZbJFCJUbcVPLiKb0A4Sh27z958vDR3TIuwjOfst+K/mrW8BGOcte+5hP1R/fIeAi3ttnt4jtol6qequS58glOd3SdMXmufEJfXWH/ZnO3R2WXUXcdqtpXX7Xv2L4zrjF3nlXt2p1/sLPLye1y85EG7MPmD/NooJKurdmVHgrt75pv7x5Bmfrkl2mlhSU71y+ZEDL6oT8OXnTy7B7E9R2futB6vJrByKo8fN7/OPv7kz7zbM9An6tkc86rESE3Lv8+Nze3Mj+XValutxBUkvyotfPvfZy8xGSR+aRzl0rXuugxt97U/qX9v9w/kjLliS8YpYXljC+X30gJu/VTNeFM/O+yv5y9lCIIW06PCXspGsQDBIDAtUXAs0p2HZZLa/Zb/jpzVOWmku0nDFVsdd2ftlv4pTPH1OwqQz3aMXnp1GE5wjMc/tt+d29vqeEgin1dl4ICaE9V8oLiWW8qeUHxXB9dQC3tcUWx0/gN3nq8yDzJYtleEgsqSYbI+t/lVumHE0Knviu1e56ls3RVVOjsjbX+98P1Uhf6pPG3t5srtMf970z1N899rZKXDJvuoYx9s+i00wUd/YvWTvKjHoP0cl/J3tR+x6E/5lHCXyi12GvwHOvlcSET1ouJ34395dxHlwufbanjSHX5AYv/7cRnhPABIAAEgIBfBDyr5KU/2zA77KaSmC+K9hzHx2EtHXsEiHwv6ov/HNvFQ1QNZ/7F7+7/a6hGeIbWf/zKR39fbXuqkpfOiKz513mwyfzrLrVKepvbS50XLa1/dZ5p2VIQO5138EzrX52tf3W2/X0Bn293srYoBh/Fji7U7Mffx9n+d9mLSnaYSh0BHePgY1OLMk/jee60cBQVS7K3xaTETc/Je0/XdMYZ+eWa6rSYQpW4TvlyftLE1PhZhayE+v/5+2XAe8z/tOx9JYN2C6euxZaW5WwOsj0quwrBcuU7z2gT6lJ++9CNUTOe3Lrbf/O+1Jj9VFjYsu2teBEuHfzpXsroNxCbELSK348Z/uBmfua6h2aMHTF89LQH3s7ac8oG6t+25CfDhnT7C3uUXm9r4f+eiH/E8YHQuVv2dOCEbQ2+tbHq2xfnYwPrEdMWvfqT9KTjA/Z0OalvLJo6evjwsTc9/G5enaOCiOdLR4c588cX74geNftrDa6//zQoaKvvnxExIuS6YSMiZy1dm2ZstmfJV57/u9RUu2P1vZNGUoaH3/L4F5V570zpNsBNztnjUWvHxZZGy/Fj7ZINd1LCX8uutxw/Zjl+zHqi5RKqkuRHO/+z1NEfcpK86wc1FgrrznQg9Ziuj6M+at/6n3eS/13u2Pfz3NAxzxZ14NVx8ZSl9eg5rO35bBv/6D67ZfjczbyiTU/fGnPD8BsmzH3xd24b3ghJW46vtnHxkOinFXPHXz981Pi7nv9RLPjqjuGOKQpt/HcnjJp4z5rfCg5aQSjxinNeM+EdIAAE+ouAZ5W0X6MvdVfJlno5ItrbdPnsPiVf1nC2s2OvAJHvOX/J+t+l5jox4mKZewWIyNiJX0Ad1/1BedJTlfzvsvVP48fdVfJP8xd9kH/P8kSYK/nnyRMcdMj74G8VCeN6opJ/tZzk7quv2mt8N4c2uVxZiUZSX7X/RKP91nJRIU0bl5qyWrEH2X8wQ1Y0OyVhua79b3vzQlVyXHbmsgpB8p4j3N26dfnxkRlIuduwu+e2SB7zv827KmfSd76Dfuv498SuyptT6Ov32yXVV54x4B31tEWjhg8fMXZ55imn+/qoi0tHMpaHhS1PctzFL9X/spAy8tUKp0qGTpz5xPs7tfX7DmvTPr5nJGX2Z7r/YQX8a58Oya+syN3+6vSQUQ9tKsmvrMivrCjUOCbM/W+PhoW+WbppyWiKu0r+T/3FnOHDb1r5VXpZYSn900cnht5w76bd9qmrqC6ETpy5/EOGsfFwUy3jvduHh839xuwysbWj05y1+aU7xt0QMXvFx+nKg3/Z74iW9sLnIodFLv44rqSqlF2wdf19ESETVle0YUx85fkc760pw4bPWvVjPqecRX//yftmjXdXSXLOno9ajmQ97nBBp33b50qSH0Vd8/QxYX5lfm4l86tHR1E8qqTndPHa93LUR+2Tkrxs/Vvz2exQyrRnfhEfbXF8Pban6IszqpKUSXPvX/JeQhYHSfvj5VnXD4taXdRgj4es5ZC3jc5jyUvHDBt999o/SrkVlckfPPvYXVPCHCpp/a9rrzTp3UdmjBk1af6bfxSCUOItxPMlC44CASDQVwQCVMlLZ2r4LN7uMx1Olbzc2blPiFRJ9508+dff7edbjHIOi2c8EiQrbwJQycvndnVXyX//d6QP0P99ulVV36Q4tPfjXNqNLJ20vkmBPloanMtrbKlcEgm290glHcLhedlN55H1GbQ54uP4lK+/WNzt0fkKs13OUJWMSi1IPWm/5/3VUD2fnrBu70Xf3+x9xPzfZcv5Uk5SdDa36vjBdVmxdwqPOvp7fOTZfhv4t706+6cvfivW9WDKhA+ZQG/bIdEvI/gC+b8k706hzPg/NbEWfA9i/s19PcpdJVuF70SHzvhQecGe+bOsl2NCb/paa+tZRNMdFrWahadrLXxmNOXu3+ts3ZaWs3uYP6+eO25k5O0rP8vS1uMzRmxRtdd+e0to9Bt8vGv23w5zrVbZeJao197y3Mp7KzJ0xnqVzZUvdzYmLh4eQhARrCLIOXs8am09peFUc9jS5NdvCR21fHN5NYddzWHLJUYrOleS/ChhMmVr6dpIzypp9Ziu40z0fNRH7fskecIY/8TUsKFDh42e+eibf1TWoF+YXU4Eb5ytqEqGDF+yfa999OZP8Ve3hIx+OfeCS3Crx5ZD1jYuHUp5NCz03p8O2Sf7dp7Y+VD3Gvyva69kxztLp48eNWnB21tLGoJoFq8bQHgJBIDAVUKgD1XS+t/fTYc1PKSysrISEUiFXESwty1YxlkCUEnX20Z/1LfvNct9rJKXzux5MTX2udquvyyX/0Yfl+o0zHFpHK69mmy9kmKlo9bajm4sL/hu/5/uN9FuNHzFjMK8dPrgO1m0m7N2xOSKpMQ5Z7bYfNPocY34kAlU6Si3/58Z75S9dOjnhZRRr7OIefOqC47MeBCCS8eyVoSFPbGDOLC+wBmze7oXq9+fSrn5G51dNKveGhc97w2GvoGwN4IDuKWjZFV0SNTij37PQzim+oYLHiaQeMlzt1z9LVo30b1X0pFQD57gEyIv6X+4mxLxdomXuZKkR9G5kiQq6aDdgyc+at8fktauBiTt+9UPTLl+6NDr7/i4zFGhWDa8cL6MqSRl8icyx3eSE7z/e3DJ54VuQzQeWs5l0rZxUbvlrtBRrxbgXdTWv8XrvK7B79ojpq2aEzXzSwU+NcJVZHtAEgICASAABEgJBKqSbbUi1BSJvZJ2IbjYdfLs2aYGVVWVMljW3Px32RqYSn7W7a9Pr7++5anvVXJVqn0jIcdMyvA0dhVRJZkSlUMl/faJS2f2kMZs43ZJI2VEJtMWK8/g9kbg6ZsG4cP+ZcyHTNhu21/twjPjOvxtS8KrLjgy40EIepguppI3fW1Xyfa9O1fMihgZM2/Vz8Wazu6Lzf9pUMW9+sCMsZShQ4cMGRoWc9dbDLVrd5eXPHfLVZ8vuyGVRXLRHHiVROdK+iKJN7M/91W+NyssxN8ea2yA+8ZPqx0qicfjei320HLsKulsky5t46L2lztDR79W6FRJL9s5/XNGUbDpubtiRkbf8Wpeg2OSrudsOFoyPAECQAAIBEagpyqJLtNGJ0RearWeaf7rEmHZDeEq+fcJLR8R7D4TRJewwFQyMKZ+h/ItT32vki+mxj6ubKw9esqIP0zHrJ32ewzWKxmoSpLGjDL585j2Uca2paVZE9MLU5rxlVuO25tvGn6DxeP0sfACU8nbNpgcKnnwJ0LfoS0SL1pGbO3dB7i79f9dconZXWFddAGL+a8mftrnj94SfkPM3S/8VKz2IJSXrf+cPdxQWxL/wrTQsAWx9cRzzUuebbkizBz9W9y3+0qSyyL50f5QSfJFV3gj8Uyytb3RfLTFOUvy3zNJy8Moi2LNhHbrhbO9V7IfVPKfvdseoIQ9no+4DzQAACAASURBVHgaHyU4W/jMqFCXKQoXW6TMb56aE3VD9O1PfZdT3Yq37R6fO4QWDmGBABAAAuQEeqiSl9tP6KvYmgMeNgNyXHouHt8nRri6g75HRR1B+v9JYCq5f5/hyy+/tHVNfvnll/v3Gchp9vCob3kiUUlrcmnshKoD55x3RELqlvZYdJuhI/iMOvwQNqPxPsVpxwqPix1/W9r+we83gavkZR8x/3e549TvRfGTSw11bae2FMbdWFZzwK3v01ue7QX8t72a+fOXvxfru3rQWlplHjcDMhLmLI55Kh9fw362cvW40G49T1vupIS/wrHPL/RA22PfkujdcaE3rVe5zZXEh7CxgXUvPU+E0v3VxGN89sjM8BvG3b2m8IhNFluPa0u4SrMDwkXNJzeHjv9A5Doo7znP2FxJ54C+pS3riRs8zZUk4eyxFgZggNtjunirRmdSesqzj9onI/nP7vjFFMqiXxvw+QOXj/3xACXsUfohwhKcjjrPnG0D3P2gkpfb92yeQ6HMeD1NdqLzxGlzxuePTYtwTlFo35v89K2RN0Td9tS3TJBID6eqo8HAEyAABPqWgGeV/Mty7Mypo2dOHdotRbjaPadOHT1z+oRNDS+24FuUt9i2KOc7tijHcmY5f1jGRiSHLMR1AIN/Vgemkn3LultsXlXy7/r6w9g+5OgK7qgcNn1vfdW+w6pm4vKXSypJSlRazhc1B9noMm23o39VchKjssv+wDY/5xxsbbdXwUW5hDGOkbFOva+q7nCxQfJ0VuwtnINn7Ed7oZJW8pgv6uVZMYzchOPoMqyuBvmi1ITHNa0Oo8X8yVueMW5eVukSxKsbXrRQtk2qp63YgK6kTv7o4QkhY5ZsxVctoL2DoTfOfuiZL7KqKjlZ/7d8cmjorE+1uP/ZIrSUPB8RMvGpn1LLK/IrKyv2ttoatuXcQQ6CrunGVnCHTHt1W25lRT5SbZe8/2nQFdw3P/NNZjm6gvuxbiu4Kbf7VklbBv48zkv5/I0Eg01/23f/fOcIypTl3ySUsEs5xXGfPRg1LPxJ5kmX081Lnq1neW9NCQlf/FWO6ci+g7K4t5fMiHaKiK0NkHP2fLR3KvnviZrqQnRLc2wFd8iMF/8oz8+tLOQcbul07CvpOV28xr0eJa19cpKdzcwV44aNvOOVjdnlRZXMn96+e8ywqCezm1y+/3jjTDrATd5yfPVYn5UnPD1lOPpjQkNHTH0yPmntNGcNtsl+Wf1ttuyM62mFU7Kf4//oN8wZOWLMQ78d7j53wtfZ5BYVvAQCQAAI2Ah4VMnOlho2uniG+Ieomu1XqI6zjQaViINgP5zo/uuI/6s3cFlC81FPKwbs17JBQX9FqSSqmDTHXEb8Ce1RrctA56UzzfFVmTenYj+6mOx+9O+T9d+Vp05J2RqevDWSOGbd0YnIyx/MThhHj70xO+tl2f59zhld5Cr570X7Yh3bkh3bv//i3Tb/XfYe89l66cLU+EfVZ/Be0osaWUYMI4d2zKWdeM0z2nK6FN88ODly+vI/erCvJHprxH46b/7kMWGhI6JmPLSWpm112AB22567obLgw6U3h48IGz1tsXNfSWcr/XtvxecPzhgTik5NHOboakIHN0OdG9/Yn4UucKyuRfeVXHUPmm7Y2CkLX/5RfMIxBu1LF8jv6H/t5//8woKpY8KGDR02fOz0+178Q1JPGHXFzjLPebba95WceEMoZfT0h97NK/2CsCuh/fQk5+zxaO9UEh349kDynq3GNodK+qh9j7nCapCk9q3/kZO8dHJf7sdP3TlhNCUkbPSEO5/8IMtk37/TV9sg75Ukbzn+tI22ziOaXXv3Wv6yYgunbt1o72X35wLb0RC3aNSI6OeZ9u1RnWUhb3VwFAgAASDgnYBHlfTnknSFfSYoVfKKYuh5L8zkhHf3B8l+Tz2/KbrftnsewxVVg96vAr0sOK6Snn+xpjdHe5mxqz145/HEB4aHPZjc7Ph25KtBXmrIXjn2+qlvcq2+PtlvreVqrxQACwSuRQKgktdirQdyNb/Yat177Mxut0dj63Fnp2Yg0Q7mHQtUsm8af29kkTzsldai+oYneakvNPCxmRU5TOob88OHRT6d3OwcGfCVgfNFb08YNedbqetmpb5CDeZJCnkDAkDgCiAAKnkFVBL5rQWOBkoAVLJvGj+5DvbmaKA12zflCsrUO48lLKIMGTJ0aAg6YeNtms72Q0f+2d5F5SezwhfFHXTMtbiKQUHRgAAQGDgCoJIDxzoo70xQfCDQWwK9kUXysHDKAAEgAASAQPATAJXs7X00+OsYcggE+pUAuQ725mi/ZhsiBwJAAAgAgT4hACoJKgkEgECvCPRGFsnD9sk1DiIBAkAACACBfiUAKtmrm2i/1g1EDgSuCALkOtibo1dE8SGTQAAIAIFrnACqkheugb8DBw4YrGZ4AAEgAASAABAAAkAACPQhAVBJ8EsgAASAABAAAkAACACBAAmASgYIrg91HqICAkAACAABIAAEgMAVSgBUElQSCAABIAAEgAAQAAJAIEACoJIBgrtCvzpAtoEAEAACQAAIAAEg0IcEQCVBJYEAEAACQAAIAAEgAAQCJAAqGSC4PtT5aykqo7yCVxonkZ0E7EAACAABIAAEgMDVQMC7Sp5tOaARIJUsXm3zebfdgrweOnfmsFEh4iAIwhEpjIfPnHMLOHgvYTMgv4XVJNvCpE4v5bX1qn3r+OXborOKVCaXdNtkOdOTt4anZOTUurzfX/s0mZJ+4oeuUuR19Kos3bNaXS6l3MMdgj2GPiCj9o5V9/jhHSAABIAAEAACVwoBzyp5vrVBL2KzhUqFCHFTSZJDZ4/X8FmcauPBo41HDxqrOSx+zfGzg2ePLimDSvrdIvtTJa0mhVDEyqiWn+pjt/NSuv5SSW2DIY6rpXG133wvHAYq2V/fBAamkUAqQAAIAAEg0CsCHlWyq71OIdYdPGXtOKRwU0mSQ2ePaqvYykOdNoXr6jykZFdpjwaJS4JKepGt7q2nX1Wye3L9+g6mki/2fa+kA2ZFmjgUVBJUEggAASAABK5hAh5V8sJ5iwUdm+7qPOiukt4PdbXXyRCB+WSXvTew66RZgMjq2vHXLp2EA/4i+FTSKC9FMh5IjxtHp03LTFnLFR7Bx4I7dciLadSZxVX1ds1SMArjo9KziwyYwZgEH6XRlnH46eWpcxm0mNTEx8sRg9EhNwar95ixhq6W8XKWZ8ZPoNMmpyevRrh78bCNwvRxyVvHuj1SGMm2dH05n6VWsr2EPjuVGsPYsZLFZZYnEge4D/EZjsijmCUGvLBYlvRy1o4YZjEiLVqVnTAxJfYWZuYfcrXFJUW54IN5kyMmP/5Vfg9GkzGVfElBq5TPf4Yftog/4a3qTbuISZsQgfKR1wSj7uOFPSy442vlzqPERMmPop8ElSQ0PCI6eA4EgAAQAALXCgHPKonboAeV9Hqoq22/DBGaW8631sl58rrW8y1mISLb3wYq6embilZQsSM6JfEFhFUk5eysZMyixz7Orcan9OkPijJvpm97U6KymPWHRJk30RPfleJqhaokdVZW2kdC8W6dvFqU92AqdT5L3Gpvsj5i3stPm0pPeKyiIk/CSWVnzk+h3l0hOIGFbdeJyyTcEknFW5nUSflFBehzbolUtA93TU8FcZiEFilLjEzZ8VoVu1LGTa5IX5qVQFTJVp2oFI2Q82N+bLQnlYxO3/lofm6CmFcmKl2TRYtMy8ojKqyxbMu8kcOHjxizZNNhoguSn6ioSoY8Kbz7U8UmgS6+RPHAU7zQ5xUZuIwqNYoZi3iTPlH8UKX9PU9x7xO8Ea8p89rtcZIftRUcVNLRAOAJEAACQAAIXJsE+l4lzzUbeSyesfkcqKT3JmXkvcug3l4hwKcMagpL4qOyitROSVLmFidEpTNLNFVr0qlzy/iNDmfCVHJGKbfF/o6OX5EYnVkgs4Ulj9lU/RuTemMR+5g9rN7ETZ2RziwmLoIJbIDbyH+XQZ1bKcKNVpGYR4vqtuzGatYhZfEeVTIqJTVRp7fZapuyYB49do1ES5BXfWP+5u/Wrs8ulbv2VnqHbDZYUZW8bol0S7O9vHJBdeRC4esa20vT9h/5ISvlqXieZTxZxELhGzp/jtojBJUk5W+nBJ8BAkAACACBq5gAqORg3O0sNchzKbSVfFW7Sd+BPnS1VcnRqdllhP4/i4HzZjr1prSEcZl5VTWEJoip5AJE6ujC3MWhR6dml2JhfcRsEnycTr0XkeBhCdE6OASkkpYa5PkU2jMCvOvUrON6WsFNopLR6XkCh0nX8r/OS90g1fTAGh35Jz7BBrhfUOTg5dXtU96+kLechyVkMW76iEf5UC3EU+nBUdxxQSU9NSFiFcBzIAAEgAAQuMoJ9INKonMkBeaT0CvpvelYaljPprjPSgxPzS4hqKTVrBNXbo9Mpi5iO6wRu213U8ndXFQlbWF9xOwe1pMHBKiSrGdTaM8SVNLjZkBkKpmRL3SopHd0uMN5ynn3UJhKEjYD0tWp5izkLePaVXLjh64q6f9RPBugkv5VRPeqgXeAABAAAkDgKiHQhyqJL7vp6jzVfMrSBctuvDcRrO+Q+ggiUKgkSvyhUimaCEFaVSVLU+Meyt05kcFI1NpHflGDwXSQ0LOoN7v3SnqPuZ97JYkqyetpr2S/qST0SuLiC9oHBIAAEAACQKDPCfSdSl44ewTdDKgeNgPyo5KwGY0LEAm+wsPQYdQ21+rwcViD1SjZzKRNyi2rqZVsZNIm55XVOnrsMJUkzHfUlJYkRLnOlfQaMzZXcgphruQuHuOWjJxSl7mS1b8yqVNLefgMQj+KYzZYsbmShGF3dUZhbI/mSkb7UEl0ruT36z5ilsl7IEbucyWrBTLiXMkd2FxJBl5S+1xJvU3oTaRH7dLPyhSH3i/9FZ/z6h8rwheGHpQFQgEBIAAEgAAQCEYCHlWyy3K6uampqel4g1GCcFT7G9EXpzvRtdgkhy7Ytyg3YVuUm7AtypuCZFvJC8G2GZCWX7E9OjVpTRVSIuUyefnL09Hdf47Ym4hWhuyMSaX/odZZzYZTisKFKbGPcGT2dceYSt6WlfoSglRU8zKQtFvp1HtY4jN4WNKY9Xv5aVPoCcsqKvKlnLSqrHtTqXdVCFx/xlBTUBwflZ7+s4hTIuGWVsucK37IWrAGKUuMYqR8I5Hs1VUL+MzlmfGEFdxasxxbD46t4I7KzN6GLQ8Xam0La9DNgHyoZOAruEOfFs3HV3AvXsELeU6RjrujUouu4J78qWIjB13BvcBtBTfpUZs1qpXyCQv4t/2s/o2D7lgeq6whmq5W9s7MkSNGLd5Q7vySQMYQTBQIAAEgAASAwBVHwKNKnj+mY1e6/SHqBlQLSQ5duHDh3JnDtQohB2EhHJHS1AA/nEjiDUZ5EZKxOD02mk6dnL5zVSVbj3cNnpQXzE+JfbhKihuPVlyZNC6FvkWFmqVtgHsRws2tZNzFoI1LTXys276S3mLG+sDQfSWfyIwfT6dOSt/5EmFfSUcPWYeOuyFv+430reHJWyOdnYW2FULu/3biZbTtKzkrlRqdmvhEBbsQSYpxrODG5l+671iZTH2YY9v/yA+VNMv5H9w9KXzSYz3eV5LytmpnhXzeSj7lPi/7Sr4qGHkfj7JEMOcrZRJu89iZjO0r6fUoVnCLMTVFetOjvOvmo7+jGPK6stQBxGos/23eyBGRS1MlhPkJOC4HbXgCBIAAEAACQOBKJuBRJQd8A/H+TzDYeiV78Z3Dn6Uz/eArnjcwT459W4oJbj+keCWfV2j9WqSbV4y5fsoL2/CtiHpR6YAXCAABIAAEgECQEgCVDNKK8a4dg6SSHTUKnUqqcXuoZXV4Z+qVbn59nv+WxJXjR878Mlfd5zFDhEAACAABIAAEgoYAqCSo5BVH4MrIsEawZtrYeZ8bXTZ48v4N4cooFOQfCAABIAAEgIAbAVBJuIUDASAABIAAEAACQAAIBEgAVDJAcG5KDi+BABAAAkAACAABIHANEgCVBJUEAkAACAABIAAEgAAQCJAAqGSA4K7Brx1QZCAABIAAEAACQAAIuBEAlQSVBAJAAAgAASAABIAAEAiQAKhkgODclBxeAgEgAASAABAAAkDgGiQAKgkqCQSAABAAAkAACAABIBAgAVDJAMFdg187oMhAAAgAASAABIAAEHAjACoJKgkEgAAQAAJAAAgAASAQIAFQyQDBuSk5vAQCQAAIAAEgAASAwDVIAFQSVBIIGOUVvNI4iexkACh6EzaA5II8iK6s+Ov1v8UWnDBdgxdTKDIQAAJA4Nok4F0lz7Yc0AiQShavtvn8Bde/wA65xjHArw4cOHBtVnDPS22SbWFSp5fy2oLcWvzPnq8StclypidvDU/JyKnthqs3Yf3P4YB9sraqfP2j8yaMCgsNi5h85ysbGA09+olwY9HG2aERzyS0eslwa9LKyOuGDB2+JF3VjaSXINaBeF/IlkXdy7snu0bnJbmKXMmoxaL3TWDAA1EdQdU2IDNAAAj0noBnlTzf2qAXsdlCpUKEuKlkYIcGWBy7Jwcq6Xdb8SVPXm7Gfsc/8PcqnyUyKYQiVka1/FT3vPUmbPfYBvkdtfz9WcNDxz++7vucbb/HvTYvZtgNi/+vtMP/XPlSSauBzf31Ozq93ANJ/1Pp60+e0r/8DJeyWpHj5duR7rDmwUd4MxMMyiuvbfc1KyAABIAAEOg5AY8q2dVepxDrDp6ydhxSuKlkYIe6q91AvwMq6bfq+ZSnK+7u1ZsS9SZssIEy7HxnXMiU1TvtnmeS5DwxNnTGWkX3vlhvOfepkt4C9uH7tSIVPaOuB52p+TtFlAWCF2Veehwtxl838CnPyxmniZk0VvCSS5p7kIrf5xcxFXgOBIAAELgaCHhUyQvnLZZzFy5c6Oo86K6SAR4aaHPsll7wqaRRXopkPJAeN45Om5aZspYrPILf6jp1yItp1JnFVfX2FqZgFMZHpWcXGfDblfew2JcJtYyXszwzfgKdNjk9eTXC3eu4I5pEX2ZQ72KJ2+0x65Cy+GhmiQFLulGYPi5561i3Rwoj2ZGuSVHBznwow57ntziCejzPVrNeztoRwyxGpEWrshMmpsTewsz8Q662+HOSmAQfpdGWcfjp5alzGbSY1MTHyxGDI89mg6VWllWZvjAtNppOm55Jf6OKX+dfuj5LdIjPcBQ5Cudg+0LWm7BoDCSs7OXl0ctS5qTSYhjbl1ewjYTydhqEtJKUuQxaVDJ1PGPHk+UsjbvtyQUfzJscMfnxr/K99LThTYXA3yL/8QkK5ZFNQrxSdMbPbqOMfLJQj33YkLQ2inL/p4nJL949fXTY8JETFr2wSau1xaM/9tP9YUO6/VHuTRDrMVz6g9/Pd3wgdNb7WkJx0A8YkOL3H7kbG1gPn3THS5/tPOT4gC3dT+ITn71jykjK8NGTHlz9c43OQ/6tRrFq6zvPzY4cddMacY3tA4zfBaHPKDLw9qwWV49dKHp/l7PUukPqhUu4kRu0fLzUbjGLeLKYhcIXZSZbQfCjhu1vxYyccMdTm7eBUOJMnFThHSAABIAAkYBnlbSbmCeV7NWhboY3YG8Em0pqBRU7olMSX0BYRVLOzkrGLHrs49xqfKhRf1CUeTN925sSlcWsPyTKvIme+K7UoWU+wu7lp02lJzxWUZEn4aSyM+enUO+uEJyw3QZIVbJdJy6TcEskFW9lUiflFxWgz7klUtE++11fJ2MlxaRsfxHLczILzfOSKil+F0dVMjp956P5uQliXpmodE0WLTItK8+hoST3IVStqLOy0j4Sinfr5NWivAdTqfNZYnxCniq3OCEqnfG1gMup5qUjabPotPvZfqXrq0SGVp2oFC0m58f8WIdS21SyN2GtZlJWeHk/EUnqDEq1KHdBCm2Rs0TqvOL4SEbK53xOhYyXy8tbyqDeUsJtJAI0lm2ZN3L48BFjlmw67LRq4ont4blFtvExCuWxzU6VNH8+h3L9snynSoaMn3bf2s3pZl655LcX77o+9JY3M2y10MbLKIyn5cdueGnysJEL1jHjafnxtPxt6XtsYc2GVk46+oH4379ecAPFXSWVordnDKdMevLdH3K3/Z7w5r0TQkbM+yjPLsGoSoaMn7bonS3MfRK24tfnbg2jzHk/10WRjWI19d3nZ0feED592ZqNAqHaVkdWsw+VtJgSNgqGPSj56gCRnvO5/qTuhad54zfqxN1F8zQ3OXb1gmmjR06c+9RPiSCUHloUXgtwCAgAgWucAKik874ygE3ByHuXQb29QoBPKdMUlsRHZRWpnVqgxPyJWaKpWpNOnVvGd5oEeVhT9W9M6o1F7GP2culN3NQZ6cxiW7cWqUrabwzehnRN/A/TqHMrRWfsMWtKSxOiMgur7XlGVTIqJTVRZ+/daVMWzKPHrpFofd9vMLWaUcptsces41ckRmcW2EckTQqOgFWk0uA3e3VGYWwUs7TW/3S9lchZ9S69sy4ZDiwsOSusvNNLHOXV5BXFRueUGm0lMkm+z6LOKOM7XKpJK6lWKXA4tlaqb8zf/N3a9dmlchyL79brh0oOi3oqFl/Grq5aHUO58XWRvf8Pi9/3ALe67Jmx7ipp2P5mRMj011LxliMrfCoidMobElubRFXyusgVNDxdaeajN1BuW19j+wJjkulo778wO3Jk+E0r3v5RInZIpK285Cqp26+aez8v5i3J3OW86xbyJ66t3mR2nmIGqyn1DyHlCdkf2Mklrla9uEWdg3+ds/M8zd1JW33v1FEjJ9658ucd5a614Ju5S1tytjcICASAABC4mgiASg7G9d1SgzyXQlvJV7Wb9B3oQ1dblRydml3mGPUzGywGzpvp1JvSEsZl5lURbuc+wpoEH6dT70UkbndEXBPJBrjxz3hewW2pQZ5PoT0jcHSO6s0cenRqdqk9z7ZeyTyB41Zdy/86L3WD1KGA3k8bTK0WIFI8z/pdLjG7BdTxyrdFZxWpCCoZnU6abmA6aGsYAYX1wapbeYUVidFZhXJ7idQFJfFRaSmfcdllcslug7azj5qoHyoZeus7uXg3s8702RzKDcvtw9+2PASkkhb5pmUUyqM/OntDjZ/d7owZVUliuhruK+MpU9dI7aKZ8HpU5F3PfSeTevxOQq6S2XHCYffybvlBRZPrt5crH3mON+zJ6gR7D71ZqVfMvJ+/tLzWtqyblSkOXST93WHwRAs8xd255cmZUdNf4xPOROIH4DkQAAJA4BomACrZR/fpHrUhSw3r2RT3WYnhqdklBJW0mnXiyu2RydRFbIdjoVLlI6y7prh6WC96JbF0ac8SVHI3F1VJPM+YSmbkCx0q6T9Y9zzr3WI+LC9bm7djZiotJoU2LoUWRd8a5aaS5OkGpIP2Cg0orA9W3cqLqmSmQyUNnQZRXGnKXAY1HJ23SruZyUxRexQp18r1BdwvlXw3z6GSLsPfvVFJ3wProbc608VUcsobdpWsLYx7eFr4DVF3LX+fWSLGv2w4Ck6mkp01n7zBo7ylqsBdXG1U3LyQt6TciHWcm+K/54e8oEg/YZKfQh9FqZ5VUnukcMs3y2aPuyHi9pW/7HY5Qx3ZgCdAAAgAgWuZAKikrxtwjxzRzw9jPYvURxCBQiVR4g+VStFEyEyrqmRpatxDuTsnMhiJWueaAB9hffVKbnBddsPClt3UEP3Pizz56GnDlt1EkysdoXQuoDC1IvSkuvR3duoqn06l3V1SUaWSGTXVRo0soyTBvVeSPF0vJSLkoY8HuH2w8qWSeMb0LQa5Wlb+aiZ1XG7ZbmIdeSNJ+r4fy25CZ6/LcaikS9+hLeb+65X0ppJouuoDmd+vXzx17PVRdz7xXnYxUSjdVVKELrv5YDeW2w7D2y/wxv2i1+A8DW3aJx7kzWHYdpc0xX7DG3oPdwjx4dorqanP3fzFIzdHXR9x6yNvM/KFOJlr+YYBZQcCQAAIdCcAKkl693XchPr4CTbfcQEicdycOoza5lqds9PFKNnMpE3KLauplWxk0ibnleFTAw1W8rDYXMkphLmSu3iMWzJySu1zJdGZlFOLOfgYn4qeTxuXX4kvFcfah6n6VyZ1aikPX/WCNxqT4MM06p3d5kriw7K97ZUkzO/UlJYkROFzJVtlzKn05C0ah0xrS7B5pS4D3D5U0kuJnFVPopIBhSVnRa6SJkW1jCfROroh9bLK7VHpuVwXlUTnSn6/7iNmmbwHLdOQTLYZEDZncfTSX/CdBGQFK8JD3edKFm+6NXTs0/HubcNJ0uNcyR1vRYbMeI3hNlcSH8LGBrjJVNLWAtUHMr/78P4pY6+PvPP5X/HewWK6KHSJ7A98CiMvX0K5T/LtUSw/FuNPn/IobygdG2cqtYppC/mPs+0kxfv0aSo9A3/8/qsoxKmStYXxj8yIuD589tK3UkEinfWLXw3gHSAABICAk4BHleyynG5uampqOt5glCAc1f5G9MXpzi50f6CADg3YQm2vCQXdCm5+xfbo1KQ1VUiJlMvk5S9PR3f/OWKvGK0M2RmTSv9Djc7iOqUoXJgS+whHhs/i0pKG1e/lp02hJyyrqMiXctKqsu5Npd5VIcDXNOhrOPSJKdtfrmKXy7gMhDGLHreSr8BHAG33CU1BcXxUevrPIk6JhFtaLcNX/NhXJb/ERoqlHM8ruMmVztnsXG9ImFrdlpX6EoJUVPMykLRb6dR7WGKbeXRoyx9LiV3C4u+u0R7Xy6p4uS8yE8f1aIDb7K1EWrMcW6WOreCOyszehi1aFzo1zmANMCwpKx8qKf2FSYvOSPuOzymX8fL5+cvSqFMLkcNEegGt4LaabVuUT1i2Dl1JHf/6PTHDRj7wFW5a2ErqyTPufnLtpmJ6PP2dRZNCQma+mY77n63KJMxlo0PGLf5uy9b8eFpBcsFRm5aZqo1pdluDiwAAIABJREFUseiabmwFd8ikZVtjafnxsVzEZrpKMbqCe/KK9zfmoSu4F3Rbwe19gJtYavS5qi7j2/XPfVFtn7Oo3a2cs5g3+XPlzwIdrUix4AnuyPfVLHwpklwhn3Yfb+oXyo1V2i1M+cLlvLDVikzXEjmaoutcSQP9h6feSskTOL7seVJ2reydmSNHjFq8odz5JdA9w4744QkQAAJA4Gol4FElzx/TsSvd/hB1w9kLFy4Edsir4Q3YgWBTSYPVKC9CMhanx0bTqZPTd66qZOttHYdmw0l5wfyU2IerpHjfj1ZcmTQuhb5Fhf/sm/ew2A0P3Vfyicz48XTqpPSdLxH3lUT3O1Sy2JkPoOnSpmTQ13CEDd1ufh067oa87TfSt4Ynb40k2iG2V+KD2F6YaNgqwSFnVxl5r6RtdZH7v3aFxdRqEcLNrWTcxaCNS018zGVfSd0ucf7TWfExdOrE9ORX2HwBhz6+Zypp8FwibODbfR/NZOrDHMeuTOhpH2BYElbkKmk2tOv5W4rpcxi0yGRqDCNxaUkp3+DolLVdieT8D+6eFD7psZ7sK4m2DeyHE+8ePzIsJCxyyt1vfJN+1DH5D1v+MmcdLeO1+TNGh4WNnHCfc19J5+WvnUtdP3/S6JChQ4cMGTZhNdemdOjAd0i3bSdD7vnM4anovpJ3oelSxkycs+rjpIOu6XqdK9mtcXZTOrZIufQVwfULuZQlgjlfKZPxvQtsea6SKJ9YIxi1iEd5WHDX96oUW4dlt0gMVrOrSvpO12A1lv82b+SIyKWpErfaceLylBAcBQJAAAhcZQQ8quSACd7AJRR8KunPvepq+Yzn7b6TY9+WYnLsrlZX2Tl2hRTHtpLaOdB8hWR78M4Ri3TzijHXT3lhW/Pg5QFUFQgAASAQBARAJeE20P8EOmoUOpVU4/ZQy+rsMzjRLcoJmwGBxAwGAVDJHp4ILYkrx4+c+WWu21aXg1F3Pcx5ENx4gBIQAAJXEwFQSbgKDzoB6JUc9CpAf9vQbfnL1XSZ64+yaARrpo2d9znxFy9B0YAAEAAC1yQBUMlguItDHoAAEAACQAAIAAEgcEUSAJW8IqutP3pZIE4gAASAABAAAkAACPSUAKgkqCQQAAJAAAgAASAABIBAgARAJQME11Nnh88DASAABIAAEAACQODqIwAqCSoJBIAAEAACQAAIAAEgECABUMkAwV193yqgREAACAABIAAEgAAQ6CkBUElQSSAABIAAEAACQAAIAIEACYBKBgiup84OnwcCQAAIAAEgAASAwNVHAFQSVBIIAAEgAASAABAAAkAgQAKgkgGCG4BvFfoOra5Ngz7atXpL8ObTIwpdc4bIlKe9Jvf99wgE3gQCQKDHBE5li2qZ6g6vVz99h+7KvUj2mAZcToFAsBIAlfR6kRrs89wgqRifTR2FPmiTWXtrBjs/foPqFEnFS/LixuaW/KHpy3avU+35gafcpmwzXTEorP2X597E3JuwfjeDvqx6n4lefSUiL3L/lbc3MfcmrOfy6ps2lm4bk5PyBO9gtaezvkZWNc1+kaTGVOwyePqM55jhk0AACPQhAe8qebblgEaAVLJ4tc3nL7j+eTvUZTlRZ5ALOAjC5opU5iOt7gFdoxnIVwcOHOhDan0UVY2MPa1QXKy3mg2dGUjyHVWHawkxoyrJTHtDfIBZfShf1ToI/qSveyMv9g5OAzFXPq/LMilnDnPbfLYJ0fkrE7UK8R3MpDdknaSRd6awto/JpkaXG9UESqRB/M1Av0XS8zzrapczbd8fqKOyE56TeOuP6XnMTmi9CTvQSIOlbQR0LkC76gsCraVC1h05CfdyDnU/8U26poLqg8xq4xuFsaCSfUF7oE9wyPNVQsCzSp5vbdCL2GyhUiFC3FTS+6Hzp/fJ2IhQs/fwscYjdQZJFSI0nTg3kL5IklYwqqRFJMgbX2ZQoPf4U7+UbntMeJroi5hKZn+lGryh7QBun7p9r+XHzqgwS5zi4vva5J8uWGvUB6hCA0PVfgWdez3Os/5kvnTXdsmuRAHrdiaJSvaKRo9z1ZPa7NvaCZa2EcC50J/QelyDV3a7svCEhZOYaR/KvXzb1Dd9XQwq6ftK27fnJsQGBJwEPKpkV3udQqw7eMracUjhppLeD3WdMPER0a4We09k1+k9YrewJKbX74eCUSU7meyUWeyD6Mi1vv69Avqb1S4XyitRJatFxeOZWf/XQ/31UxecrbY/b9JBkopJpbiPVCWDJJ/9nY1gaRtBppIBY79S25X+8PsFsVNYe7Qez31QSY9Y4E0gMGAEPKrkhfMWC9qd2NV50F0lvR/qspxpbj7d2YVbobVehSDao0Eyxh2MKnnm97JtSwQn0Z5InXFFTu4PapcOSO8qaZFVK1YVp0xixo5hxk8uyHtdeIQ49GNQ7/6oPPOmnLhwZuKs4spvqk8ZHe1Jf/i9grh5nH07OcVz8+Ijc5LmVcizCYtjVArNquKdMcy4SQUFH0hq38h3GeAmixlNopPB2hFeKCpCh+zdHmR57qYLLfEVSeH5lYn2qZYtm0vjsDmj1FHZsfO4x5zFMVjRyVLM3P+TGt4oSZnIjBufn/Oa6JjOPXW3zDhekuXKbLCSldcHSbI8mw1WjbJ2XVn6tJzYcOb2WcXln0tPuM2F9X7LJ4uZOHXMQexeXiNOzFdYZu4Gqe7lYvp4ZtzEgrw3RY0EkhaxTPpk4Y5oZsK0otIvZfs/Lozr6eSHbq3CVhFktTB4bcPai3OBrETQrgJqV50ZyM7wAmG+h2uL1Qwq6e8Vz3HpgydAoE8JeFZJuw56Uknfh2yf6GoxCxHRrlMOtcQVc3D+Dy6V7CzgZE7JTYxmUiNytk/K3T4pNyE8Oy4mN+lZ8RnHGLc3lTRpTStzaZNLuD+K99Clxh8Q5iRm0gsSPKDuwNsFsRH5RR8JdyWJte+UJoXn5HyrxPs7UQGKvamQ+TBLFS/dQ+OV35FDu7HCJLNdiXT7Xs2nRRWUfSnemyrRvlXGvIM4V5I8ZjSG1q3lcRElGmG36xp5nl11wSIWl01j0ldLHcP9HTz57u2SXdvFkodzPKpk0u1lVb/KmwSqehqSFcNkvCf3NsXQ5eQhz5WZvLzkJA1keTZpjCvzYqeVCn6W7E+XGj4s3TmWmfGpAq8jjJ53lSSNWXs8t/pApv1Rl8QrnMqMf1hwAm9UZGExKU+6vYyzVXFCqm6gstKimBmf4LkyqbWP5NDGFyHfi/cyJNq3y/Pn5/eNSpLXwmC1DXMvzgXyEkG7CqhdWSq5mRG5lTtBJbtdXb18Q3O51sFngED/EugvlbQ26nmIaHewmOSF4FJJa42uRaCQL87J/UpxUqg+WcbPjymRl6hPyglLVbypZK1CNIe5/WWpwzxaOYr6ErV9XbNByprMTF4js08oNGnNz+USehYxAYosUfPt16POvCrG2JzyRCxdLGzKumq7h5nU6geYzrA+YkYjPPNbWVxEqbb7REnyPBN1waSuXZEXOwvZi00hdb0a6veuzvWokttXSdrs54m+7s382NlVh9w6+TyeReS58lFeUpLO5Dzl2ajev0W4qxjvDDZpDctyYuc7+w7RUntXSZyJp5id6RqsNSrdsrzYGeU13O53X09hMZUkkNSZns6JdfRoigX5Ecwsx8xdk0azhNA2iOn29Dl5LQxW2+jNuUBeImhXAbUrC5uXHZFTkdS9MaMThGCuJH5ZANEEAoNCoF9UsqvzqJ6P8A2NlsHpgvSQapCppNlgranm3FwgwMZr0EmTt1XVu9mPN5W02eGNJdzvRHuyFE0yncuwuFxYGMEs+EnTWau3PY59WRw7vnKPfZsMW18a+4AjLbVU8FAJPwnTGoWoKIJZuAVXHLN+P3EFt4+Y0ebrVSXJ82zThVekZzS641vKd0QUcNIceSCeFV4FKO0jvPPMrD/+FVre3f5sC0KeKx/lJSXp1ClPeXYetZXO0zy8XqqkSbPn1YK4SSXyYsKXE2e6nnKFqSSR5IG38mNvs+8qYCnnZoTnVOxw3Mg95dkZP7HWfD0nr4XBahu9ORfISwTtKqB2BSoJsggEgphA36tkl6XJLKmqku4+cdaD0g3WW0GnkhYuP2eifV+bk5tKEleIW93uxN5U0mywyKqVL6FTA6mjs6mjmTvmV+rKcGOoFhZG4But4bPlCDuuYQJ0M0EliYmiYZmFvzo0zlUXfMSMGoNdJcUe7IEsz5guOHfAeUx4Ch+QdT1zvAvQx06V7FH/BFmufJSXlKSTqqc8m/UtGbzKxQU7xufERTLjIpixY7Kdvb+2sL1SSV39Z8Xbogt5DEdVutWIp1zZVJJA0oNKOvuEXNuGs7xuCfn1kqwWBqtt9O5cICsRtKvuKulHuwKVdL0Y+nVmQRAgMFAE+lgluzoaa8XsKompyRIkkyTt7hpMKmlS65blbR/PpI1hbsMmSm6LYtIic7ZPLVUijl4fg9W7SuKNQ98mVTXQ+aWzmHH38ZpsSyuwPg/mx7LDhQrHo6FYjW9LSSpAtp4YbyrpI2b00taxrSI+oljBJpTCXTI85RnThe1P8g8wq3e9X5wQUcjPws3YJbh3AVrvVMke9Eo6I/eUKx/lJSVJiLn7oLyFL8iPYaY+J9hfrGxkqRpZSsNzxDmp2E0icJXUH99SnhSRX0ZVO6ZA4A3GcfvxTtKbSvL5ORHMgp8de85jw999tOwGz56nWhisttHrcwErlKcSQbsiqqTf7aqziJMWkcfJ8HhtgQFux6kNT4DAoBDoS5U839agFyJVst3N1sHqfPSabjCppFnfLlPvX1e4faWoSag+yZcJ5uaW/a46KdK0ETcD96aSNep6uvQQxyFb+vp3C2KnIfttY9bYTCzCMKXBote1qvW4VZAKkFtY2xw+hy64HTW7xYw2X3QYNCK3fJsjb3ibJs8zpgv2LcprVOolubGzWHvleFhSLbOt4N62Qoyv0dHtXpXn71xJ8lz5KC8pSdI8dyRXJkYUySodN0XdrueJ81mxgpvUqsXM+KfE+BxQ/2iYDafoCCMqN+8bBenumz1WSWutUnoXM/bWSn2BplWtORLLzp/VLc/OUnfPrfd3yGthsNqGW+336FwgL5FbzO7nEbQrz+3q1JayeI9L+tBWByrp/fwK7KyEUECgZwQ8qmSX5XRzU1NT0/EGowThqPY3oi9s+/x4P9TVskuIIHzVnoZGx9/xk+1Bskd5UKmkwWrS1jyRm7sR2/1HJS6dWKISdLsWeFPJWoV0HjN2ZpnoJ3QFt+lHdu4UZuJyUYt9UFhX91ZB7LjC8i9Fu3ZKan9g501j7nhGjA8Zk9+o0FWrsZNKhNsUzQLVgR9ZubOJl3XymLH8Y8Kx7RFBs9sINXmeibpgNlh4wuIbmTtfkNhLZNIdz5Sgu3bbVnDPqlAloi8PVGHCig3LJt9RUvyhaA9DaviobGe43yu4yXNlJi8vKUnSPFuq+DlROVnvSZsUujMi5f6NrOJ53VdD69Hx5fHFnB/FWNnx8pLGbFVLKiYxty/hmBiy/Wn4I1Np92zysKQD3Fazoa2IXzwT+yWe0Uz6cr7mddeNotDrDro9auxoJtOxOsefixF5LQxW28BWcAd4LpCXCNoVoVfSv3ZlsNYoqxcw4x/sdmGxNzBQyW63D39OPfgMEOgzAh5V8vwxHbvS7Q9RN6BzH70fOn/cwGG5BWLJ9rcFx0B3kKlkTTXvlgJ+Dtov1ZnLTp1t26jc9XLgTSXNhk6BVPZsMX0CkzaaGTcxn/kcr464aFqv2vVhecaMnNgxzG0ziorfER117jpJKkBmg30vvXHM2PH5uW+KzB+67h1IFrM986eTWMnhucyPq/FuQvv7ZHl21QWr2dASV7FzbF7pVky1jUrZPOdvCeJTKpn23wHCBChjvcS4tjR1Urd9JU0GC778yLEOqdOot+CmS5Yrs8FKVl5SkuR5NuuPx7Pzb8+NG8tMmF5U+pn0wIbieEfvr+PcllfLVxTuiLKVHS8veczk8/DIw/pSSXTEtkbbXKY4xtd22pZkzeUcIfajG1WKBUzq+DIDsTU6iuP9CVktDF7b6M25QFYiaFeuKulHu9LsfasoPqJQwOw23GFvVKCSrvcO7+caPpkEPg8E+paAR5X0Okx85R4IMpX051THVDLrc0WrRteu1bss0/Yn+KB9Rnfkh7KdEcyk+yo1Bd4u/X3XiN0FyCVmdBmQY+2R48lob1uKuISFay4ZAZNa/SAzzr7BPs5NJiyMyt7xktR9AdlgNUVoG4NFPuB0u7Wr01m88nm5sVEFFX+o8Fk6eHtDU9F36HRt/8/emfg3Uef/X6UNBcpdbgRBubyXr7KrrquyiKjrihfust64rLj+1HVdLxQVD1rsTJIeaZq0Te+mV9Imaa6mSZM0SZukgNAC5Wq5eyRK+xf8HpPMTCbp5JOSpjTUdx59wGQ+8/l83p/n5zOfec37c8RqO/kh/HAiEwscA4FrTACkZNS93lhHJKQkuRY7bansEL19z1jnG4P07RdLNeonK6q+Cf79nhikPOz2QMoFj8lyUmo6EfJX2Xw24KYdluBYGDlB0rT1SHwzDXCt6eUK7syiiu+D6rePX8udXaoupueAjjdbaBvXR8NDtCv7qU+qJM8oXNVhXkqJKqY2rFhQ0z6SLcCuDybjfe8AJSBwdQRASl4dr2t4h7tazhQ3dUqIv6MlZmoJ9jU0IG7JMA1DygWUX42ZCByPhIBvJRAxwWCWhLdOKt9tpH5gyd8m7Z1vlKRvUJ2hfqRx/OFD2xhJtY77NRHaFbLHc9m6S6lOstgc3CCREce91GAAEJhQBEBKTqjqhN4TCAABIAAEgAAQAALXkgBISZCSQAAIAAEgAASAABAAAlESACkZJbhrqfchLyAABIAAEAACQAAIxCcBkJIgJYEAEAACQAAIAAEgAASiJABSMkpw8flmAFYBASAABIAAEAACQOBaEgApCVISCAABIAAEgAAQAAJAIEoCICWjBHct9T7kBQSAABAAAkAACACB+CQAUhKkJBAAAkAACAABIAAEgECUBEBKRgkuPt8MwCogAASAABAAAkAACFxLAiAlQUoCASAABIAAEAACQAAIREkApGSU4K6l3oe8gAAQAAJAAAgAASAQnwTCS8lfzndY1fJamaqt58pQ8Ic96MopW11t0EduPfFrcMxx+9bR0RGfFTA2VrkMeyWpKypVvTEXymOXsrtZ+tfZN91w46wtqedibna4BF1a7f/+8uDNM5MSOTMX3fH8uxmdMfwJaWf57rWJc/6KXQ6Xe9Tnxy7lqE2CiEAACAABIPAbJcAuJa9c7rJr6+o0zSatPERKhg8a9Fzs6aY+p460aOqUrd2hKnS8tCRIyRhp1rGTkq2if9/MWbN6xeRF25StMbI2wl1ta//897MmzX7g5Y/z8X2ZO/+0kpN0z05JzJTf2Am+sUs5ArFrUy+QCxAAAkAACFxHBFil5GDfEZPO1nnB23/UFCIlEUEBlTjYe8yiqte7e7yBc+N8BFIyRo1yzKRkf/WueznL33lv62LO6i8qbd4x0jRtWnO2+Ijf9egs+3x14qyNe0+4/HAs2leXJ879a7U9RqzGTvCFS9lZo8qS9sTQsTpGtQDJAgEgAASAwMQhwColh654PMTI9OBAZ6iURAWRatHb49bVq+0n+gfHWT4ys49DKWkxqAq35KUvyk5bKsraJlceYioAl6mmLu9P4p/mZ6fdkid4XaE+Rsodh9elfjc3bbNClV0luDMnbYGQt6WmzknFPa0Rzc/aNyvkTyDMclDyyGmslIv/KCJTflOpoYSUY8AmfzE3dVVF/TGyfZuEZekpooJyX9zIKROxjOp/rV86Z+njH5dc5di6/egX9ydNf7xQtefJJM4jnys9gXuspfG1ZUlrdlRz39py65ypnCkL1mzcI9IELnBptZ8888dls6YkcqbPX/P0jrR2Vi3o1Jn37di6du70W1/V+b2eDu4/ZiXes6usn8prwKJ01ykDUswhr9i58XeLpk9OnDx7yV0vvZ95lOLsdWS8mcJ58L107rN3LUvmJM1Y8vC2b1ptfsj2U18/OPmGYR/O/ZjOTkpke03pjkfuWZA8OYEze8nd2z4UdFEpD6i+fHL2pPmb9pJ5OesyHp6ZMH9Lkd7udUdK2cF7fUHyorue3oODoKQaPFW5Y/VyAukDASAABH7rBNilJCnC2KRkhKDB/uMWpbK541K8jGyT9sablLQfashdno1tqqkp1ity6vLuE6T+rkZ9lmyONoMsY4GA96JcVt6oyJIJ12Tvf6S+sc8fSkjJ1DX5ue9p9UcczRZt0QZB2gN1ZGifTVelV0r1Na/npS4pKS8ljpXSRu3PpFJpUdfw5wm4z/tSzqwlUn5c2URpKXunNu+2bPw1vdnjth/V5t2azX270eIXbZFS9j25nVV71ycnJU2Z+ciXx2ntO6J7zFDwePLk9f855CjbvTZx5uYfKBQOr5uQkpwFt/1+w9Yf96WXff/uCyuTJs3elN/ol2XkIPUfXv5vXvoP/J0bV09JvPXlzB5mpk6dJfXt59bOnTZ7xeZXd6s1FkrPpf99RuI971ZQxQ8RH83aN1YmcZY8+fYXRfgP2Gv3L0qYsv7dYlIiE1IyYeEtD+zYK/lZX2f6buu6yZw7dxb5Q3tV4rL0tJL9H720dFLyhrck6Wkl6WkluOggqXGNir8v43AWP7GDSDn9lfsWJkx94D8VZP26bUf2Pjpv0rwX9zd43LaO7x5NSVi4HSelc6SUHReVWfu3bbhlRvLiu5/+mguCMqRO4SsQAAJAAAjEnEDMpeRZV4OstlZWrzY5j1/6hekYHNfjOJOSrqbvJak3l9edIhWP3aXMWSmSVLT5KtjV8E5u6t212ktkqLWyEkvJK2vyizOflFwhVZ6nQovL988rrHQypVu4YWin6m1h6h016gtU3DJpekp+uSUQt7moAksRSaTW+ldFqXdXNZwmr6RaXriUycvsp0v2fPbmroJKY8BrGJIC61d7xhvzEla+Ku51W2qem5uw4EUF7Ub1SckEzvo0JTnqfVnyj9smTXthv4lQhM6Kr25PnPHYN5Rv1db2n/UpC54qNvtJGmxpO59fOzd59q1PvfGVXkeJSL8NdqSUdPBem5OwYnsOVQuGsqfnJC57Re+vI0JK3jT3qTRqhVBj3p+ncW7f1Uo5F322hVl2Y8e2z5p087ZMshZc+sInZiWufMPkT5kolFL8eEriwqdLqr5/YV7iLc/hpwIV5CtXuAFuiu1FZWbatvuXT09efM8z3/CrqaZCVSJ1GTjqgAAQAAJAAAiMmkCspeTQL30Xzp3tOX3U1aSQqeyn4mW2ZLxJSfW/Ran3y/Ws/jBPq/w5Qdpf1aQ70Ou2uxXZ83IKKv0yxSclN8gbqbh2TQ13Xn6Zkak2wgg+T6t8qyDtmQZzn8veT/zZ2uqz5uUUVDEEkMeheE2UemsuNj+vuH748pcwKY+yIfYVv7Y6Ifn5/Uav29711R+SElZ9WtFCpenzSi58SUEbY8H/333rd+F6Qq06Mt+an7h2RyHl0gtWSw7sHylz7936maGRTo1xAVJKeoxfbuZw/vwVPZJuc75/B2faljK/Z5GQkonrdhRR+VqVf1vIWf5qIy0HCUXILiU9Tbsf53Ae+0LZ29bSR/xZ7P9ex0l+kkzZp/M8uh9enJ+QkjJ78rIXak3UsDgtAcOkTBEjy3hBmbn3yVUpK7Y30OjoFOAACAABIAAEgEBsCMRcStK+x4Hjlvo68zEPfWJcD+JOSr6bm8qQgwx943Z4WmXPCtKeZUjJA0pCSkoRUjJvhFJS9qwgdCblbDplsknZdLW8uVmpD9TRapVh3phISZv7w7s4iff+qCD8jn3lb90+ifPwp/UDpD0+KRluWbdf0r1dTEk6hqluh7et7KdHb5k9LeXeLTslUh0lvqlr0FLSsHsTh7NpT0BKuj+4kzN1cwlTSgby9UnJZa+MSEoSKYfOpLyRTpkstaVh+9JJN0y6cydb0SJLyZYTZXs/2bx2/rQ5dzzz7QHGq0KI3ISvQAAIAAEgAARGRyCGUvKKt7/f8yu91mbwwgGtXHfwIn0CpGSgqlyx9kqOVErKtwpSN8rVJrO+mfozm03djPeSy2bpYzk//akoc7FQyG0Z5g8bCynp0mT+MenGIHF14/RN31NWoaUk0itJlMvSkff5roeWz5qacs8T/yyoYAhK5LKbEXklo5OShFcyccPbmYbigibqz1hWe4bhV75c/s59U5N/97vVU6fflyob5lJFSUnrsaI9H268LWXqnHUb3xCWaNhFNqPGA80STgIBIAAEgAAQuGoCsZOSPumodp2l1tsMHDPXy5vBK8laJb65kssYcyXbVcLV4sJKcq6k+p3c1HuGzZUkh7BZB7hDpWTTd5LU5ZWq0C0SfXMlN8j1tLzod7b0tNkC7jqnfo8kbUlRVWubfrckbWlxVRtD3xCawxUmZbKYxFzJz996V1JlvAqBYk3bNuOm+Zs/N5QXNxN/or0PTp00/3k5OV0SKSV9cyVnbvyWnivp+u/9CxY/U2qhXI+kYZaOvM/eeXDZrKlz73nuO9JL5yz7fE3i7Me/p2Yi+jYDmkNtBuTgvz43YeV2YchcSdLvGOoNZfVKVny5LnHWX9JDa4GYK5mwbkchvci9397UbW6mK8VrK/hkXVLyve/ZzAX/XT15+vr3HSEj1M4wKbeVpW9cOWfq7LWPvZ4DIpL11oOTQAAIAAEgEGMCrFKS2mz8TJdTL1eYD58mNh6/OED4F1FBvZ2menmDuf3oyVMnOtoMvrmScTK+PRRnA9xuYgX3smxsc01NSaMitz7//pzUe2vU1BoOcgX3S3XyijAruBmD4765kiFS0m0trUhPEYm+0SqkemVlk4FaPdPSUMObl5Pxar1c2qiUqEq2iIjdf06QrarFIM9rMYR8AAAgAElEQVRckJP9o4UYaL5gKvu9YP9GhYFWPD51GC5ln3SLagV3r2jbzZNmbkun1af96Be/T5q08uNyvzcOKSXdxArumZPmPPj3jwvwfZnvbFo7NXHly5mMBeBMTWk+Iv5019YPm0hl5l/9PfeP2/8nwVN9W5RPvvufBZTya9YRK7iXPrVzdzGxgnvDsBXcievQXkm3XrJ5RsL8hz7bu68kPa00q/QkqcuN9S8v5Uxd+cK7e0q4abkfv/zwvMT5m7/vokK1b65KmnrnnkpikdCFgtdu50zZ8P9KKav8xQmTsiP7i6dfFxSrA6qUpb9oMexYlTxl+kMfVQdeIVguY3KDYyAABIAAEAAC4QiwSsnhP4FYWyu3dBHrsRFBQ0ND3vMdjiZ1vVxep9Q2u7ouxcvPJg7FnZQkBl4NqsIn8tIXZqcuEWW+xLav5MO+3R+XibNfrVcfpb2DI/FKuh39NuVHxbybs/fNzto3V1yioaM7jeVy8UOi/fOyU5eKMl+orbNTK0XOGUvvE+x/tL6RUi0tutqM+YLsveagDcPDpkzIEWPDv363ZPaSTVexr2SLZeeqxGmPioyBwfSBuvc3JCY+9L8633RJtJR0eH37Sj60bFZSQmLy/NVPvRVmX0lWteT74cQHls5ImpQ4fcG6Z9/hHaFoELrZt6/kvQuJ3R9nLr7zhX8zflZxJF5Jt6NPmbrrviUzEm688YYbJjGne9qri978093zp3FuSpw+f/WWV762WsjinxX9fQ1nyv+9W0zVgrHh1ZWTp9yxu9zMdPSGTZm1mMyTzurv1ydPmftYDrFRZbh+Ac4DASAABIAAEBghAVYpOa6zGscm83jzSo6weuAyIBBjAp7GPU/NnLrseTxo603QlEAACAABIAAEoiQAUjJKcDF+wIN/CAhcGwLnuc8sTF71n6LgLTbhLgACQAAIAAEgECUBkJJRggMpCQSuRwJW9au3zFr/Af1Lm9dGv0IuQAAIAAEgMHEJgJQEKQkEgAAQAAJAAAgAASAQJQGQklGCux49UmAzEAACQAAIAAEgAARiSwCkJEhJIAAEgAAQAAJAAAgAgSgJgJSMElxsFT2kBgSAABAAAkAACACB65EASEmQkkAACAABIAAEgAAQAAJREgApGSW46/G9AWwGAkAACAABIAAEgEBsCYCUBCkJBIAAEAACQAAIAAEgECUBkJJRgoutoofUgAAQAAJAAAgAASBwPRIAKQlSEggAASAABIAAEAACQCBKAiAlowR3Pb43gM1AAAgAASAABIAAEIgtAZCS8SIlLe3FfFxQcczJWsHoUNYo43fSZe5UVjer9BejYDuauFFkB1GAABAAAkBg3AlAzz/uVTAqA8JLyV/Od1jV8lqZqq3nylDwBxHkv3Cwt8NUr7AcHxgMjjh+3zo6OsZPWo2ghvqN0jyMX6O2sP5GJzqUNcoYnGxuycPSqU9WmWYgTLn6tUUZ6enp3EJ361UzR8V1NeoFWE6FNjjfkVo1BkCuunSxtIGdhsPrbJDzsCKZ0ROmdmJpAyoL26FSHp5bfcbFSgkdyhoFTsaIQLy3nBgVE9U4o8hiorTYcLU/elyjSxnV84/etuhSGF2JrlVPG0VjHoso7FLyyuUuu7auTtNs0spDpCQiiBaKAyesynrjkctxIySHhuJcSjbbC7jc3OpT7M9ddOhYNAvWNK2nGxsOalUH1RXFOFYsN4UVK21Nh5R1bqM5WPOxpjnsJCJum7KGi5XWNwfnO2KroutN4jYWOw2Hx1pThHFrNbbx7siarWKMX6zqYweIDh3WKtgTgcuiIhDvLSeqQo15C5koLTZM7ceguxhlyoief8wrN0yTG2WJxsvs8cmXVUoO9h0x6WydF7z9R00hUhIRRCnJX7rb1HL9gQuhvkwqfFz+j2sp2asvFWKZCn0L6/2MDmWNMqYnPZbqQown111rseIxV0swfr2ePd/xsmpMUSMSD0djQF+ShQkMzXZE3GsR5NKqMrGCGgP76wQ6dHy6wjCPkwlnTLy3nPgEPlFabLjaH32fMHYpj9626FKYeCWKjsPIYrFKyaErHs+vQ0NDgwOdoVISFeTTiFfOH9DJ1c6eX8ZFMYbNNI6lpKvJJML5+fKzrH0oOpQ1ittx2VSnluTkcHGcyxcXlLdbafll66oW4LyCNjv54Oxtkkq43KIafa8vqfOKPC6/uFVXXSvKzMDxTEG+oTF0zL1fV5yJCY3mYWLFpVNn0SPg3Bp1qDLub2loKs7N5eM4zhPll7WaGRcg4vpGGahxdfr/0JHucFZdVOZxuRJ3GyUU7HUVOItt4e4WlM3BnEV5pY7mQInQJKO3KhKNc/VinFvQoq+V+2owK0diNlqZpQvfNihEYRqV12073VBeIczIwLnC/MrD2jIhLm6x0bHsZ3WVVcIMHoZn5RS2NMoqcbw60AaQoa2KKi5PrlQ3l+Tm8nAuL7NUqjrL8NAjbbZ1a6U1uZmZOIZheLawwKA3M/zW6FDa+GEHLkOTEC8ul1Zl8/hZRa2N8tocHo+fa2iiqxhFA137zOpgO0al7HVHXSJifgh9/1AHgftorFrO+JHsVUt4uNhGNVFPi6wU58m1ZGforyOHrro2N4OP41k5EouRrlyH141sscH3fnAf6/BGas9slR5ogaPsc9hLFKnf8KJKhHxqjCBlVHkRPT/REUXb2t2OSPUb9JQM6r1HWaKw/WegilFArtfo7FKSVGRsUhIdNHj5iLFeZTvpCavpxikgfqXkRXVhFibQGWm1F9Tg0KGsLbLPWFnIxXMlUodGfaihUpqJcUXVp+kHs0Mly8DyqvT9bofHppRn4TnFynNk87UflWbifEFFueyI2dRjUqpzuXhWWWfwSqCeOhHOLWynxRnd9F3m4zpiBLy9Ji8DEzSagrSmx6aszcQyc0tMKlW7qqpWgONZZUfoRFBxLSd8ybaUZOFccaNGRQyyaxs6rcx+3xHGKvuxyiyuQNpFFX+gqTwXD7WNFaPXxwdhc5+xqoiL5xZUtKhV7UppRSZGrJoiM0KTHI1VaBr2jooMPENQWlhu02o7NNWVWRjOKH6EtkFXJdvBRW1xDsaTlNa4dGq3rLBCmI1nlB6hwPYaysU4Li6qatNpDinLy0WCXDxbT7UBdOhAc2U+xhfnF1t0hrM24+EacSbGk2nI+kXb3GsoE2G8ovJap1Z9SCPX5mXg/KKDVLtCh4ard+K8UyXj4oXVjZfbtA3ZeFG1njjIwnKlOr+fFUkDXftBN/hwG5ApO6IvkXucWs64kbSfrBHgmaUdVBMdaCwV4PQ7sL+OsqUVdZ1W83mzSi3E8ZzKk9TF6BaLbpPo9jy8xpln0P3kCPqccCVC174DXSIv6qkRIWVm6ViOUT3/aFp7hPpFkhxdidg6T5aCT7TLYiolBwe6LEpF89G+waGhwf4zP7t+PhMvC2/iVUo69ToBllWsZF/sjA5lb4vmVgmXK66hlzsQzgY8z0G5Ib1u+xm5iMcvaGsxWPJ4GaKqLuq563VbWyU4Lqw8QfWnlxsKuJjI0sJ8+NmPlGfgOYFrht8kxOsgXuAMWnNDiCc8q/QwdXKgqSKfL9Abg+Sm1/8qGRrXn7v9cBkfF1aFmU4aziqrU4JzJfWXKVaXVPnDbGOWjnmMttnsKODyxLXdFCui1JjISrJCkxyNVWgaFnsBjmWVHiE528/IhDhe0EZ+jdg2mMUPPnYZm0V4VhHdUImpY7i4tocEa7bn44xWZz9elY3j+a0OfyLoUEevppCPZWvptymnSsbDCsmVQ2ibfdI5R0q3WG+rqcvYdIF8+UGHBheQaiH+9kzMl8Az1U12r0unyc5SG+xel7YhC5fUNhEuzwg00LWPyjdSytGXiLpPw91HY9Vyxo2ku6W9mMvNk1HvyT43VeAd2NJaQGhHuuUQ76K4xEV2hugWi26T6PaMrH33aPocdIn8+Yar/QglQj410CmjyxsIZX1qEC/GYe/uQFyqbTPPoGmge29/OuFYMXOBY5pALKWk90xrQ53h50u+1TaDFw/q5PpD/i/j5IpkZBunUvKsIo+P5zYPHyz2PdjQoWz3D7GAt454DPseeL5EWMSTz9GSk53JyypyU6M/RGouQtfSfhdK2NGCwN9ozLZ8nFuooMXZMDN8r4PZFccpjeVLucmUiwvKwy76phJhi0s+45tb8nBekdI/EE9dT7fjMFa5GvU5eG6lnpqxZ++qyuYKgm0L1hCBlF1Im31yh7n26IIyj0uLJzTJ0ViFpuHSa7IxQTm9yN1+qiYH55cc9tfFSNpGOBqOeimOVzXQY+UmixjPLFX3+6/30WAsG7efqBZws8qPkvkS0jBsqNt+qjYHzwh4j7xObVNBnlbnyyuCzfbjlVk4N6e+TnnY2HSuNeTNBB1KNx6WA2K+BJ5ntzu8jvpKbp6NOPBNjfD7StE00LUfjrD/PDpld/Qlohp2mPtozFrOuJF0NRlzsexAn0P0LVza7+jSa7MxIeVj9rqJFhvwskdoz+g+Ftme0bU/uj4HVSIy3zC1H+Eu890g4Z4a6JTR5Q2Esvb8o2jtI6jfsL13bErE0qtQ9+CEDIqhlPR2WeT11q6BX32fX861a0FKBm4VttbTqlZkYsJyDbs8QoeGSdljrSnG0tMx5icdy6YHXv1mWNzFfCwdr1Cagxp3q6Kai5cr6JO+25sWBP4cfVNbRAFxNrxc1tYCnFtQF+RnJXaowYctvh5ZXDJfbUMmJq5qpERhcNxwVhFL8PAKJT3ds8VVSDgpL4WhF0QDabPHUi3BePWBtUd+d0I5OcCNJjkaq9A0WusrcawssMjddqCYi4tq/L7DkbWNYLAUqAFjBXPA2uvSKDNwWh36aTBWYvkcQvny877o6FCv23awhPAesc4VjmyzQ2cmZlhixDRAjJtbUNVJukJ9BUGHUqULqnffyR55LjezrMPlGDBK83yDpAPGChFOrmdC0/Ciaz98pl63I0LKboc32hKRZXSFuY/GrOWMF0nfrlh4SR294QPhpuIVKsjOtlVRhTP7upb2Ii4urvU3QnSLjdQmUe15eEsLOjO6PgdRInTtRyqRv08I89Twt+dw7QrZ2hllZ3tqjKa1j6B+w/besSkRe0fKKPIEuyCWUvKYWV4b9JGBVxLRXOynaoVcXp49aPiYvh4dSl8WejCgL8nGshu0hlPmJvrvtNXKUGD2M4r8LK6wIi+DF7z9kG+KT4aqkXbtWBzDRaGjToozxVmoAX7XJuN1n7iA6KpwvkJPpzwsFnn3Em7RkLjkvUcsl8ErVbRXLDiFMFb5ukg8sADIqVExpruh72q0zf264gxMaLLQJSLGNGkBjSY5GqvQNAZM0jwsQ0nXIOHkwDJLG/y+wxG0jWCqjMfAZVVBwOfqdnhaaktwroxaweCnEViJ5WoyCnHaOYoO9Q3pYlllakYTDZgxYpvtfQ7TMVVJHs50f9LpoEPpy+gDYmzLPzba2yDJ8MlcYrIHV+LyTRVA00DXPrrVoVNmxL3aElFFC3MfjVnLGTeSxK5YzD6HcFPhedS7qL+8gb6OaLFEI/TfKegWG6FNEpMfwrZnRg1SNcK4y0bV5/ju/XAlitBvjOKpgU4ZXd5AqM+Rz97zE3yuurWPpH7D9d6xKRGjWgPFnMgnYyglBz2XzwU+Z4871OCVRDQdu6KGTy5/YWlq6NDwyfapJcTsRivdT9n7Wlv6GGPNl/RleXhGpdLUb64uxPnVDbQP0tFHTFnLUDaSC4A8tjopDyMnh1E5+m5RfkCsUOcDRQh9HSQs8ZirCjB+4C3Q2dgkzsiv1JLDo3QibHH9KRM+Icw3d42+mHEQ1ipHfRU3Paugtsth67XpW6ViIcZ0RdCUWA7QNvcSs0gDUtJjq6/k4cVycmPwCCRHYRWaBrFklTm3NXi78ohtI1CJDLb+k2eJmWT0nEsHMfUCy2miJmYQkygYrc5jrS3GMdohhA71OtX1fLwozDalaJt7rbqf9YaA/7utQc7H6XErdCiisF43MQ6YTWzCbz9ZnSMgZK5vyF4g9U/bQNOIUPvD2DItQac8ihKRLTzcfTRmLWfcSA4YpWIsS9NEvuwNmKuIrcSoYYRetYQfmNlMbexP3b/oFotuk+j2zKzr4cej6XPQJfLnFa72I5TI7UA8NdApDy8j+xm2nn80rR1NA917x6ZEyNucHcL1HYVVSg56LvZ0d3d3n+ly6uUK8+HTxJeLvhU0iCDGzERiIyGYK4lqGbZjldl4RmE7czAucD06lEX30E3TY6kt5mI5kkqnTnNYW2coEvD5eTYr1Z9aZBV8PF+q9c10tB4szcAF5UepNQqnZUJupqAov9SmVR9UVdUIuFhGoTuwXofI17cDNpZbVOMillGrDjYa/ZMm+60638Jq1YG6olyMW14dFOr1uQN5OUVmdcOBhtqGvAxuRkFrC2lVhLg+LMTKa4xbVFHXTuSrPjEyq7zuli6Z2L9DETdDpK0vL8QzGgy0KxFFEm2zhxDiWHZeuV3T4FZUVgu4vJzyDmqxSySSo7AKRYOcGfkzteLev105vfsJum3QTYj1oL+xVIDh4uKadr3aJSupFmXhmEDZoOv2FXnAWCHGMHFp/XFr8xlDvbpQIGDsAIoO9enOwBYtIbmjbb6klmRg/FKpzK0jlm/rJVlcXp6Neo9Ch4ZkFPSVGK3zS9KW9mJeEaEwiAFQemoEkoY9Uu2jWh0yZUf0JaL6ljD30Zi1nPEj6XUoqnlYdr60Vas+1FBdK8D54hpq0Z5vOiM9h9jt8FhqirBAI4zQYpF9LLo9BzUzqlICJ5H9JLrPISYchy+RP4swte9A32UDqKcG2ZjDpRwo2vDCuh3onn8UrT1C/SJJjqpE6PJO6FBWKXnllK0uaKS6trZWbukitopEBIGUZLtbWFuPxyor4wacWCHXoENDLh721d6jqagQ8HkYzs/ILi2pOmChthlyaBpy8CyJnF7cPWCpLsK5pfX+360hfhmMm1dzWFksySC2fhTnl7Uxt34kS2ftrM0X+aempadzyflwvhW71FZ19P9UKHFzXjbJ6sWZGTjG5WUWFVUeDGx1GTkuUUaXyV2eK+D6NsbDBI2hW3CzWkV2Cv0O0xlL82WXg/htrqCtEMkLhjEkz4e3mdjw7ExDWbmAz8UwXoagvEx21E4r1BGRjNqq8DSISVq4qIZeVN5PbFdO735CjBOFbRuRm6755ypxLhfn8rPKKhSnrUpFDhcP7IVu7awtEPNxnJuRL5G6G8pycWEzY/QfEeobLmQaGVIpSJtdzT/XSAoyuTiWjnMz8vJLbcxNNNGhiCLb5RW4byIssXSDT2hx4gBnrEhD0BhR7Ydrcl43ImWHN+oS0YVlv4/GrOWMJ0n7OZ1UmsPn+e/QctnxwHs7VV4KS78u5E5Bt2dUm4zUnkOad+jXqPsc8t4PWyJfRuy1j+wZIjw1KPvDpkxdQBnGaPmRev7oW3vE+kX03pTB0ZSIistS2AkfxColg0XhhPgWVyu4rYfKMoJ2VQxqeejQsWuRxJrcjBJyXh3jhh+7HK9xyr6eK2QVURD5WNlzVSSvmVWxKh2kgyZwVbWPTuo3Hgokf+MNAIp/HREAKTkmYgLVAgaaqyQ4T6qklxYGXYwOHUOFR6zJDZ0ZOYbZXSvsly36ToO206Bplxfnc/HC2jA/5RdDe0ZAchysimEBISkEgRHU/gS4ra5FEYAkoplBEBCILwIgJeOrPoJk5bXor6nie2yysqBfuhs3S2JaamubBCcG3DGMnymsrdWcZ6xAimlGAVwjIDkOVo1RYSHZEAIjqP1AUwmJC1+ZBIAkkwYcA4H4JgBSktJS8V1P8PgBAkAACAABIAAEgEAcEgApCVISCAABIAAEgAAQAAJAIEoCICWjBBeHrwVgEhAAAkAACAABIAAErjEBkJIgJYEAEAACQAAIAAEgAASiJABSMkpw11jyQ3ZAAAgAASAABIAAEIhDAiAlQUoCASAABIAAEAACQAAIREkApGSU4OLwtQBMAgJAAAgAASAABIDANSYAUhKkJBAAAkAACAABIAAEgECUBEBKRgnuGkt+yA4IAAEgAASAABAAAnFIAKQkSEkgAASAABAAAkAACACBKAmAlIwSXMxfCyztxXxcUHHMyZoyOpQ1SryedJk7ldXNKv3FmJMfu5RHY2p8WjWaEv3W4o5dDY5dyuNVRxOvRONFEvIFAtcTgfBS8pfzHVa1vFamauu5MhT8YQ8aPOdWy2qZH7n5mCc45rh96+joiFdp5Wsu/UZpHsavUVtYf78RHcoahXHSdqiUh+dWnxn7n59mZBqWdr+2KCM9PZ1b6G4Ne01wOs0teRjxO9q+T1aZZiDMDXb1KY/QAPqyaEiOlVWuRr0Ay6nQhqMRzJAuAvJgLNIMU1nRmEcmdfW1EK5czgY5DyuSGT1II8eqBt2OsUt5FHiRLQQJynstSnT1tR/J5vFiBfkCgQlEgF1KXrncZdfW1WmaTVp5iJQMHzR41tUg17UeO0V/Tp/vD1Wh46Ul41xKNtsLuNzc6lPsag8dGrHrb7aKMX6xqi9OutS2pkPKOrfRPGINZD3d2HBQqzqorijGsWK5KeyD/6pTjogu5IKoSI6RVW3KGi5WWt8clkYU1d2qqObiMU4zCjMiRLn6WgjDymOtKcK4tRpbhA59jGrQ7fCOXcoRGIY07Nh9HfMSXX3tjxcKyBcI/IYIsErJwb4jJp2t84K3/6gpREqigs46G+SmzoHB8ZKLqHzjWkr26kuFWKZC38L6SEOHskYJOunSqjKxghrDiKVb7J4rMb2RPJbqQown10V68Mc007gl6TFXSzB+vT6WNAaaK/MxvkJvDyr12PGMLuWrb8/hWA3oS7IwgaE5vssbHaWJGuvqaz+uG/NErSYo12+OAKuUHLri8fw6NDQ0ONAZKiURQVd62lTy5qMDRMTBwTgTlHEsJV1NJhHOz5efZW186FDWKG77WV1llTCDh+FZOYUtjbJKHK9WB3TqZVOdWpKTw8VxLl9cUN5uZcoRW7dWWpObmYljGIZnCwsMejPT74WK26qo4vLkSnVzSW4uD+fyMkulqrO0n9WlU2fR49TcGoY9vr7edrqhvEKYkYFzhfmVh7VlQlzcYgsStf264kxMaDQPe/AjUz6vyONSg+PU/0GOKFSJIpFEPaUiWsUvduiqa3Mz+DielSOxGAMVhEyWGNemCkL/zxzpRpNE1W+fppCP5ZqtFPY2vUHE5Ysqj7f5z6DiomwmWinKKqKOUDQitOewWfvGtWlG1EGA1bl6Mc4taNHXykWZGb5aMButgdSQNeh1j4LG2KWMvgfdDmRrt/VoGf1Gk0LGwytVJJBetYSHi23ULelpkZXiPLmW6jrQJRqVVZFr39OirM/h8bOL2+1U02XvGCEUCACBMSLALiVJ/x6blAwfdKW7VSk3tXe0GpTyWplc1eQ82Rcv49tD8SslL6oLszCBzkh1ysGdIDo08NhjxOo1lItxXFxU1abTHFKWl4sEuXi23kQqsD5jZSEXz5VIHRr1oYZKaSbGFVWfpgRfr6FMhPGKymudWvUhjVybl4Hziw6SSsKBjuv3aYnziy06w1mb8XCNOBPjyTSUQnKZj+uIcer2mrwMTNBI2eMvwkVtcQ7Gk5TWuHRqt6ywQpiNZ5QeoazyX9NTJ8K5he2UMYGyI1PubWnsNGjJv0aFRsTDcKGJ0qPoEqFJBgxgwA+cRFllPyrNxPnZ0oq6Tqv5vFmlFuJ4TuXJ4PIGkgpK33LCh7GlJAvnihs1KmLoX9vQaSU5o0ki69d+ulaI84oOkgu/mt0lmXimxNlCthxk3AjdE9KqCDRGUQtoVvaOigw8Q1BaWG7Tajs01ZVZGC6QdtG1gKpBx2hoeMcsZfQ9iG7tl/WlIgzPK6py+vsNsSAXz9I2+WvffrJGgGeWdlBwBhpLBTjjvQ5ZotFYNZLaP68Q4+np6Xiu2TrsPTPo3onQSsPccRALCACBiARiKSXPtCpkcrXlYNeZnjPH241KWZ2xozdOvJPxKiWdep0AyypWsi9nRoey95Jmez7OFddQi2zsx6uycTy/1eFvCuZWCZcR6iAcM3ieg3yb9z1cc6QnqAeGt9XUZWy6QGoLdFxHL+HTytbSmtipkvGwwmFrGggXFF7gZK65cRmbRXhWEQ2BmA6Fi2t7ggpoP1KegedUBmwLCiVKx5Iy8xpXc3tZNhfPrlObqLF+dInQJCPeWuQFbFZZWgsI7UiXhVDJuMQ1XCUz7Q86th8u4+PCqtDJtRFIouvXdrCEhwurfO8VthO1ogyuUN9EvQm40XGRNCJYhaYx+loIw8ptsRfgWFbpEbIp2s/IhDhe0MZsmT7mbDU4ChqMeox5ysh7EN3am1vycJ64tpu89+1dRL9B9wwt7cVcbp7sHGU8YTnbex1bidA9A9qqEdW+x65tqapo1hrjZTo4RQm0KRD4zRCIoZQc+qXvwvlL/cTIOPHxHLfUy40d/fGhJeNUSp5V5PHx3GbKSRbS7NChIReTX30CjrEo1X6iWsDNKj/qf0I4G+oIeddEj1lfUuUzhJ39eGUWzs2pr1MeNjadaw1+xY8U91RtDp4R8Ft4ndqmgjytjjFiSPSwPhdUdsVxWq26HV5HvRTHqxroK00WMZ5Zqu4P6pHNtnycW6i4HHSSqWDYUqYvdplcJVlcrkCpbaZ0pMOLLhGaJJ1yhAM2q1x6bTYmlOooS4g6Gu6FZa9fMjvfg79I2RuSewSSyPolBB/GK6y/0NbSoynOxTOqlLTmJioO1TZCzAj5irYKTSMGtRCGlUuvycYE5fQSePupmhycX3KY2TKJgrDV4GhoBODEPGU76h5Et/Y2VS2XuabN3lUlwDPLOv00XE3GXCy7nN48gbCcy+JHZy9R9FbFoPaZXQQcAwEgMEYEYiklSQ1J/jd44YBWrm2/AFIyrKsKPF4AACAASURBVCZoVSsyMWG5JlQQ+B826NDAAymoZXgs1ZKgtSk+d0K+/Lzveo+1phhLT8eYn3Qsu+IY/fh06MzETEeMmI6HcXMLqjpJd6YjUlzbwRLCb8E+4zNgrbW1AOcW1DG9sAPGCuYQvNelUWbgDDXsK6BvMpaoUk/Jr6BS+wizpEzJa2NrUSbOFWr0FlpDe90RSoQmGbZOAyX1W8hmVauiCsfLFWYqkZb2Ii4uro2EjlFkl7YhExNXNYbQiEwyfP16nep6PjWfMD1dUKK6FFIWRNyQK4O/RrAKSSMGtRCGlbe1vhLHygJL4G0Hirm4qCbYF+7wutlqkHj/CXunUNXKqK9gINQFMU8ZdQ+i71+PuaoA49UH1rS1uIvwgBuS2DUJL6mjtwsgHMm8QsWwjou1RKOwCtmbURgjcoYLgAAQGGsCYy0lD4CUDFeF9lO1Qi4vz97CegE6lDUKcbJfV5zBXJviajIKcdr1MqAvycayG7SGU+Ym+u+01RqiSLxue5/DdExVkocHdt2LENfn08oqUw9LKthUFzGgz3DIEaGXVQXcwBC8w9NSW4JzZfSMfv9j2FEnxfEKJfu+m8RDhS1l4ryzyV6YgfNyGw2015M0CV0iNMmRPsbYrBowSfOwDFUj5fQl6gjLKgvxwgZzC9Ei9roKPLAkgjZmRCSJpFjql8CO4WU1mqNNGlMBD88u62AfcGeJSxvAeoC2Ck0jBrUQhpU/XyWjFky5WGZpQ7AvPHy7ImvkqmkEELG1jUAoWx0xQtmaB/IeRLf2Pm0RHxOaLHSbNBhyMHoPV2LXJJyxtJ9wJON5w95k2O/BUVgVg9oPuXHgKxAAAmNCIHZScnDgVLvVdvgsNcA9cMxcJ28+RizojoNP/A1w2xU1fCyvSh/66PJXMzo0fFMgBqwxkYVahOux1hbjGO1O6FNLmKGEpGht6aNckr1W3c96Q8Bf2NYg5+P0Po7ouD6fFl6E2PTRb3OoC4p4Ip4lZgoG5qgRw/pYTlPwoL/vwc8PPPiHE2BL2dtmsBZk4HyxiW19NLpEaJIRHuq0eWxW9aolfExkpV8h/BtlyyNslM3MccBYIcIy1eSSiICqQJNE1y+xkAIjl2cNmKuLcLyotol+MUDHZdo2/DiCVUgao6+FcKyIJcmYyBJSC8Om9npZaxB5pwwnwH4m5ikTfuWw9yC6tV9U5nEZUrLfVFmABca7B4xSMZalodrbgLmK2Igq4MKkWiBbidA9A9qqEdW+q/lwnVRXpzlP9WPstOlbEg6AABCIPQFWKTnoudjT3d3dfabLqZcrzIdPE18u+jaMRAX1dhjr5Q3N7UdPnj7Z6WpSyFT2U/BrN+x1ZjtWmY1nFLZTw8fB3R86lOq42VIeMFaIMUxcWn/c2nzGUK8uFAgYuw96LLXFXCxHUunUaQ5r6wxFAj4/z0Yte7yklmRg/FKpzK0jlm/rJVlcXp6NVqXIuD7NytgcJNi2fqvOt9BYdaCuKBfjllf71h03Gv0TH/sJEYOLi2va9WqXrKRalIVjAmWDrpuxAMK3mzSWW1TjIhYsqw7ScVEp2zsqMjEsq0becKRRQ/1pT9pJ1wuaBppkcH2F1giyvL4JbYw5eR5LTREWFh1rRgNN5bkYt6iirp2goT5B7YGCJomu3+AFEy1HKrJwXn4rtfkLOi6rkfRJpFURaIymFvwGhGFFzoz8mfqdUv925fTuNsgadIyKBqrFjipl9D0YobUTLQrLzpe26dQHldKafIGA2SYdimoeEdqqVR9qqK4V4HxxDb3kC81qVFYhezN//Z5X5vGI2TjCZtqlGtz50O0QDoAAEBgzAqxS8sopWx3zBxCJY7ml65ehoSFE0NDQoOfsEbuhoV4ukyu0JufxS0SM+PjEl1fSY5WVcfHiMI4odGikpmDtrC0Q83Gcm5EvkbobynJxZidr79FUVAj4PAznZ2SXllQdsDA2IXI1/1wjKcjk4lg6zs3Iyy+1MbfZc6Pi+obPGJuDBPXmvlXkgWl45BGXmsHpdZt/rhLncnEuP6usQnHaqlTkcPHQvaOtnbX5Iv8kzvR0Ki465WaLeNgWjBjTtYkqkdeNJhkqHxn1graKmDqGi2q6KUT9upIs5pwE6jwjwWF5uUzu8lwB11c6TNAY2GQbSRJVv/ZOaSYuCCyH8tjqq/hYTpmaXOeEijvMvNAiIKyKSCPqWqCsYmdF5Uu5svqJ7crpBoyuQYc3ehpjl7IDeQ8SsxpQ977b4u83uNwMSVHVQUVR8B6u9nM6qTSHz8MwXoagvFx2PPAOHKFEo7Mqcu1f0pWKuVxRoZze0Qx144S2TKqRwHkgAARGRYBVSsaH+oupFXElJa2HyjLwrLIj7HPR0KHQ9wEBIAAExpZAjzyXfQ/XUT1sxtZmUJBAAAiMHwGQkte8cxxorpLgPKmSXg4Z1MOiQ8evoQQZCWYAASAwcQlE3sN14pYdOjogAASiIABS8ppLSeiFgQAQAAJxTCDiHq5RPGkgChAAAhOYAEhJkJJAAAgAASAABIAAEAACURIAKRkluAn8egFFAwJAAAgAASAABIDACAmAlAQpCQSAABAAAkAACAABIBAlAZCSUYIboVSHy4AAEAACQAAIAAEgMIEJgJQEKQkEgAAQAAJAAAgAASAQJQGQklGCm8CvF1A0IAAEgAAQAAJAAAiMkABISZCSQAAIAAEgAASAABAAAlESACkZJbgRSnW4DAgAASAABIAAEAACE5gASEmQkkAACAABIAAEgAAQAAJREgApGSW4Cfx6AUUDAkAACAABIAAEgMAICYCUnKhS0mmsUVX+pDecm6gFhHIBASAABIAAEAAC408gvJT85XyHVS2vlanaeq4MBX8QQcSFv3S3qWUKa9dAcKxx/dbR0TFCcR3nl7UUlKXNytrn/1ssVV4O04Z6DYUrsvbNFogL24aVyGXYK0ldUanqDRM31r8O3GLeeVvi1EdFpoAlHv3nGzmcP35SNzDWNjhV9e8/sWHJjKQEzsxFtz+7M/2gI2BG9CVtK/zvysSFL2aG4x85ZWf57rWJc/6KhUmhWfrX2TfdcOOsLanIlwFL/UvzOCtfNw6vZQIsOpTJ4WrqyFmT/ofpU+/YabYzU4BjIAAEgAAQ+G0SYJeSVy532bV1dZpmk1YeIiURQX6tOHjp50a53PDzpcFx1Y4hmU8YKWnvbFZJ9UqpvnZHfipCSnpdJo1WJm4yXhiu1a61lHRcFr64eNK8t3IstMC6gD85J3HVpxU2+szYHNgcH9w9LXHBn9/8rBDfx3vrgaWJnDWv5V4czuRqz4y1lGwV/ftmzprVKyYv2qZsRfRNaLGIDg1KdsR1ZDv89cNzJ6/6qKh5bKosyCrIAggAASAABOKeAKuUHOw7YtLZOi94+4+aQqQkIsgn3gYHuiwKmbqt55cQLTfOXyeMlKQftMa0QqSURGijay4lveYfnktOuOudsn7SKqvutZs5EUQSXdKrPGjTmrPFR5y+WM7Kr+9InLX5hx4y36ayp2cnzH+hbvSOyTGWkv3Vu+7lLH/nva2LOau/qEQIbrRYRIcGgx1ZHXl03z03l7P6FeF5ZgNz1qiypD1+5szzcAwEgAAQAAITnwCrlBy64vH8OjQ0NDjQGSolUUFDQ0O/9jjVMoXl+EBcuSSHhobiTkoOODRpUsHdwrSUrNSFQv6T1TIrPUbpUr+bm7ZZ0SCqzrlbmLYgh/t4tdwR+pwOKyWPNgjnUyPgKRKpwxVQDKc1IjqIHiWfJRBmUdIKZRV5MxjV/1q/dM7Sxz8uuYrxcZcyfQMn6YHPj/uNcdZ8dzdn9pNpgaFbe03pjkfuWZA8OYEze8nd2z4UdDHL69JqP3nmj8tmTUnkTJ+/5ukdae2sQ6tOnXnfjq1r506/9VWd35PnLPtiTcKMTd+doe7k/hb9yaamwJiyQ16xc+PvFk2fnDh59pK7Xno/8+gI8w2VkvZjqY8vTFiw7Se1x59X2BLZT3394OQbhn0492M6O/XqaT/6xf1J0x8vVO15MonzyOdKMk1fyp7mgv1P3b54amLSjGWPvZGW+9IC5gA3MrSl8bVlSWt2VHPf2nLrnKmcKQvWbNwj0pCJR6wjt8Pr0pY9s4Bz84tyM22qr3U5eK8vSF5019N7cBCUgduNqk04AwSAABCY2ATYpSTpQmSTkqigwb4OY51cf+hi6OTKcXZJxqGUtBRXpM8VCj5oUNQYVEWq4seEqaulytN+FUJIydQ1+bnvanQHbMYmbfHDOan3yXQBAURcFlZKXrZpK4kRcMVXJfvnBUvJPpuuigiqeT0vdUlJeSlxrJQ2an8m9RPSKr9tzqq965OTkqbMfORLUhf6z0f412bbtZoz88myFuJ28hi/fXpq0uN7KNXlNir+vozDWfzEji+K8B/SX7lvYcLUB/5T0UemaWv//PezJs3+w8v/zUv/gb9z4+opibe+nEk5Gn33p1NnSX37ubVzp81esfnV3WoNPZJu0b22PDFx0VMfZBy0BqsfIvFm7RsrkzhLnnybyBd77f5FCVPWv1tMSWRkvsFSckCz99mUhGV/TT9BCndUiXpV4rL0tJL9H720dFLyhrck6Wkl6WkluOhgQB8bCh5Pnrz+P4ccZbvXJs7c/MPZAN6m6ucXTJq8/Nl/fyvNTMP+9uD9K+cypCQ6lJCSnAW3/X7D1h/3pZd9/+4LK5Mmzd6U3+gng64jh9dt785+/pbEha/wdExp6xdMF5VZ+7dtuGVG8uK7n/6aC4JyYj82oHRAAAgAASaBWErJK2ddapmisdmorpfJFRpz++n+uHFOxplX0qX/PD91ZVUDpVoc3S36JrOJHDT0ScmVlUpqDNHWUMOdl1dqYPgXEVKS8oXY5FXpIVKSDAo3wI22ilQz9tMlez57c1dBpXG4nqCyZrYw8rhX/PKyxOUfFLV43Y7LgucWcu78Vk6N29qx7bMm3bwtk5zW6dIXPjErceUbJr+b1lnx1e2JMx77hlJptrb/rE9Z8FSx2Zeyy2BL2/n82rnJs2996o2v9DpaRFI2WCQ/PLxw8o03Tkq++ZHn3i2tYZjt4L02J2HF9pxLZNEMZU/PSVz2in4k+TKlpLNeuHEOZ+nWKiOlVtEl8meHWHZjz3hjXsLKV8W9bkvNc3MTFryooNzGXju+fVbCiu1C8r3CKU9dz0mgl92gQ92ElEzgrE9TkuQvS/5x26RpL+w3+SsOVUduh9eS8+4tnEVP/tjlcnhduroPX3x7dyEl90naF5WZadvuXz49efE9z3zDr6YaMFUXAUEMZ4AAEAACQGDCEIihlPz1tEMpk6stP5/sOdvddciiltc1HbkcJ2IyzqSk21IqTU/JFbyvrKsy6g84WoIWMvuk5AZ5IzWz0N6uyJ6XU1DJHHsN75Wk9NzVS0m0VaPUAZa0l2ZwHvivbMBNLBZOuuU1AzWg72na/TiH89gXyt62lj7iz2L/9zpO8pNlfi+dI/Ot+Ylrd4SqFrKYDuwfKXPv3fqZoZEQqWH+jO2Czz966t6bp9x445Rb/5lBDul6jF9u5nD+/BU1wuu2Od+/gzNty4jy9UnJBVvTT1sMrq/+lJK47G2BntbWEUoUSUr2Fb+2OiH5+f1Gr9ve9dUfkhJWfVpBlm6YzRb5iym0VxId6vVJSc7ClxT0Oh4L/v/uW78LpywPX0ded3PjW6uS5jwm1PhkqFP24+8Skzb9EOwpJ/lfUGbufXJVyortDXRGYasmXJXBeSAABIAAELheCMROSg6eb9fIG9q6iUmWxOfX7laVXH8oThZyx5uUdAw4tD9VCu4Wps4m5jWm3SaRCCyUGBomJQ8oCSkpHXMpibRqlGrA1cB7cPL0P3/X7VSmb5i84Hke5Qt0eAy7N3FC5w7eOHVzCSklM95MSVz3dnGIA4xUjW1lPz16y+xpKfdu2SmR6ijxzX77XValvbGSk3DzP7Q+iePLl7NpT0BKuj+4kzPSfAv/u3ISZfSN0x7azRzuj1CiCFLS5v7wLk7ivT8qCNHWV/7W7ZM4D39a73/ZGGZz0MIadCgpJRGrncLXkdee/vcZCWvfEJ2xGM9ZjOfM5V/fzSolW06U7f1k89r50+bc8cy3B4JaLHulhFH/cDEQAAJAAAhcLwRiJyWvdLcp5cZOekx7sL/TKFe2dcfHvMm4k5LUE9R+3mG0GKr/npc6v6jqgH8I2ycl75frKWFkd18jryTdatmsGqWUdNta31s3ecGL9cbUF2ckP/OjniLg8PnwEje8nWkoLmii/oxltWf8NNBeScIqS0fe57seWj5raso9T/yzoIIhKO3an+tqjwdmSdpP7HlgcuJd39URKm2YD+9qvZIJcx/9UJGXU/T6ncmcFbtEhmCvZPgSoaWkS5P5x6QbKZXq+//G6Zu+7/bF8tvMkL+WOsa+kujQyFIyfB157fu3TQs26oYbgr2S1mNFez7ceFvK1DnrNr4hLNGwS//RtiK6icIBEAACQAAIxAmB2EnJwb4jTXKV4zS1C9Avp+1KueFwnIxwx5mUdJmaDCp9C+WGdNsNtbwUUZGSISVvLq87RT53rZVSLCV0rqQJK0pdVF4ffjoaYoC76TtJ6vJKVejoJNoq0hhiruTnb70rqTLSWnCEB70F21dw1n321cu3JN33k5qcrkfEJWYWJqzbUUjPHO23N3Wbm0kt4psrOXPjt/RcSdd/71+w+JlSS8gtZOnI++ydB5fNmjr3nue+8/vDBhQf/CExccN/aqj5A7ZD/72Xw7kf0/omNTr4r89NWLldSPlHybmSjYy5kmHzZc6VbK1M3TA9cenWyibmXMnwJfKTdFZ8uS5x1l/SQ2vBmrZtxk3zN39uKC9uJv5Eex+cOmn+83L/dEnfbMh1O4pIOC5N9sNTQuZKhg31D3AjvJJuR9g6cumcktyGPCH5J/5h5+qEgJRsK0vfuHLO1NlrH3s9B0QkyGUgAASAwG+LAKuUHPRc7Onu7u4+0+XUyxXmw6eJLxd9G/wggoYGTthUcpXJffTkqRMdLqNSprR20U5Kcth7vP6LNynZ+K0kbZ4497MGRbVBVdJQsjk3dXmZ/Li/8fm8krfn57wkl9c0qcTy3HXZqf8n01GKxy+hbJoabkpO9r8b6it8C7E1pDBtcRt967J9K7hT8grwoFB/XGtpRXqKSPSNViHVKyubDNTKcaRVftuiXMHty7cl/W+zku69e/WUNTttQUOfxvqXl3Kmrnzh3T0l3LTcj19+eF7i/M3fE8s7iEyJldQzJ8158O8fF+D7Mt/ZtHZq4sqXMxmLmv2X+f81HxF/umvrh03kZkD1OY/OnjT11hff/aqYm5bz/l/umX7T3Ee+IneddDfriBXcS5/aubuYWMG9YfgK7rD5MqWk29Gv2L1l9qQlT+07RtqMLpHfVL1k84yE+Q99tndfSXpaaVbpSV/cXtG2myfN3JZOK3X70S9+nzRp5cfl/hcPQ/XzCxJm3PP+/sIDqkrFp3/5482z6LmSXjc61LeCGyklvWHriAnZ4Q2ZK+nI/uLp1wXFaqQnssWwY1XylOkPfVRNuduD0/xt9bxQdiAABIDAhCHAKiWvnLLV1YZ85JYuwt+ICCLmR17qcjVrlXK5XKExtR27SHkox0tABvKNMynpdvTZG/ZWZN8pTJublbpAyH1MWtngoHxaPin5gFxZVCu8V5g2P4e7iWVfSYenVfNDecatAv9sy9RHFU3EE9q3OjuwZyS5wSQVSj2t+23Kj4p5N2fvm521b664REMKIKRVZFxjw79+t2T2kk1Xta+kP65Lk0UM3d60fLuQdkCSHk17ddGbf7p7/jTOTYnT56/e8srXVgtFw7edofaTZx5aNispITF5/uqn3gqzryRVOqaX1GMpE77y0F3zp3EmcabPX/X4379sZu6J6NtX8t6FxH6WMxff+cK/MzqZGte3nyV7vsFS0uu2df74+KJJc/+yl/opSHSJfKb2KVN33bdkRsKNN95wwyRS4bVYdq5KnPaoiF4M7nYM1L2/ITHxof+RKft3jlw0NYGTvPihbd8UvnlrEr2C2+1Aho5ASiLqiIk3REoyg8IdO6u/X588Ze5jOXpGzYa7GM4DASAABIDAdUOAVUoGFNiEOYo7KcmUO6HHoctuJsyLCxTkt0vA07jnqZlTlz2PB20Iet10lL/digvtnaDKgAAQAAKhBEBKhhKJg2cGSMk4rBQwaXQEznOfWZi86j9Fwzb+HF2yIHSAABAAAkBgvAmAlIzDJxlIyTisFDBpVASs6ldvmbX+Aydz/sCoEoyDVz6wHwgAASAABAgCICWhHQABIAAEgAAQAAJAAAhESQCkZJTgwCkCBIAAEAACQAAIAAEgAFISpCQQAAJAAAgAASAABIBAlARASkYJDt5CgAAQAAJAAAgAASAABEBKgpQEAkAACAABIAAEgAAQiJIASMkowcFbCBAAAkAACAABIAAEgABISZCSQAAIAAEgAASAABAAAlESACkZJTh4CwECQAAIAAEgAASAABAAKQlSEggAASAABIAAEAACQCBKAiAlowQHbyFAAAgAASAABIAAEAACICVBSgIBIAAEgAAQAAJAAAhESSC8lPzlfIdVLa+Vqdp6rgwFf1iDBs+3a2S1wR+Zpv38YHDccfrW0dEB7w0Or0u/Oz91TbW6N8rmEv8MbQ3V+Lz8crPrGpt69fm6DHslqSsqVdeuLlqF7yy+6Qb/58abONMW3Lvpn5UNVq+/MTgy3kxJXPd2cd8YtQ1n+e61iXP+il2OYfqEzf4S3XhT4rTFa/70wb6KC1eVfuytsnbK7xLl35Ib+reyTFk8cFW2wcVAAAgAgeuDALuUvHK5y66tq9M0m7TyECkZNoiQknKNvfOU/3P61FGHRq47cAGkJPmojocGAVJyrGrhepGSCYv+/GFFBrcqAyvZ89YTixOTbntNZ/PJ7utVSiYs2/JxRQZXiu3Z89Rt029K+ev3iqtQbLGXkvbLLQXHTKJjJlGn+jlJwf+ptULfV/EJmzGOuoKxuhGu8SscZAcEgEA8EGCVkoN9R0w6W+cFb/9RU4iUDB/kk5KGw5dJ6Th46ZBernafC/VogldyPB8nICXH6gl6vUjJxJWviWk/6AXhi8snzdyG+yTO9SolGZ5UZx3+h6mc23e1Okfct8ZKSrZpzdniI8H5DpjeKix40GxpCbrlnTWqLGlP8JVBF4xVEx0xEzAACAABIHB1BFil5NAVj+fXoaGhwYHOUCmJCLriHegf+IVUklcIH6U2XnySQ0PX0wD3eV3eIlH+/6oyV+TgW+pV5bXZt+Wk/75K0UFVrafNkF8r+n3u/nnZaSvysl+pbzgSGM+1G2X8BZIKeWP5CwXYYsH+1ZK8H40Wjz/uMCl5XJe/Jht/U28mL3AaK+XiP4p+mp+ddkue4E2l5sQIU6ZsC/NQRFrldnhR+TqQ5XV42vQ8afbanNQFQv4zMqWkmhs0wI1KOZJVyEKh80XYfFojmp+1b1bIn0CY5SAf9oi4FF6j+l/rl85Z+vjHJbQupILCKwZigDtISnpNe57gJP7hIxnhxvNJyTvfShP//b6VMyYnzVjy8Mt7nfZAah5LmXD7g7enTOEkTJ6z5M7nd3F/bqVCibicB99L5z5717JkDhF32zetfmen237q6wcnk8PqjP8492M6O2mzQ16xc+PvFk2fnDh59pK7Xno/8yiltM7/+OiUBY+/99yquVNTHn4XK/rH7fOmzrh96w+H/ReEyl9by67VnBlPVVBmh7c5slXh41Kl9jcPp868b8fWtXOn3/qqjgbiC2KXkg7e6wuSF9319B4cBGUwSeTtFrl5Q3QgAATGjQC7lCRdh2xSMnIQccWVnrYGuf7QpfgY3R667qTkwpzsb8wtZwyFd+Zkf93c0m0oukOQ8aXZ/+g1F1VgKSLh/9RKRZNKJM9dk532YF0jNcWNkEfzRJl/LinCdKoqbeWr+Wlzc/OL/TIlWEoO2Ou356beWaU6Rba/FnUNf56A+7xcVt6oyKwVrsne/7iyqZ8MRaYcoQWj46LzRZe3RV7FnSvgb6+vqzUos2pEj+VjDCmJThltFfo5h84XZXOfTVelV0r1Na/npS4pKS8ljpXSRu3PpH5CxSUfqM6qveuTk5KmzHzky+MBrY822OEdJiX7K/95V8KUp3/QE8kSsixh6a3/95d/flsryhDvfGDxJM4971BTJ10q8aY5ifPue++LNJkgPevN3y+axLlrZxEpZH1xF97ywI69kp/1dabvtq6bzLmTCu1VicvS00r2f/TS0knJG96SpKeVpKeV4KKDpOBr1r6xMomz5Mm3vyjCf8Beu39RwpT17xb7Uz7/46NJU+/4rNh4OuPZZcl3flrUdCZz682clR+X+Vx9w6Rk63vrOFM3l/hTRtocwSpkXKoWdJbUt59bO3fa7BWbX92t1lhC5A67lHQ7Liqz9m/bcMuM5MV3P/01FwRlpHYboW+B6EAACIw7gbGRkr+ctivlhsO9caMkrzev5AKBuKDNMWCr3pwjzvcfCLB/GWzEs8plUqhl5WYr6Ud0W8Rl+1MklW2kpCDkUYogh2sjXT69zaXrs/e/qvc9eoOkZHN+OTYvr0hOu1KcqreFqXfUqKmFC9YyaXpKfrllJClH6O6RVqHzRZfX2fC2MPXuWi21mMPELU5LoZfdoFN2I61ClwidL9pmf8rhlt2MJK7bfrpkz2dv7iqoNFLNYARdiU9KrtiedcZiPGdpOlmXufv3sxPmPC4x+JoKIctumrnx25P+6nZpsv44hXP7rja/wHXWyr76rKhMT7m3NdkPT0m8fZcj4B28ae5TaedIaI15f54WOtAcbijZwXttTsKK7TmXyLiGsqfnJC57Rd9GlIiQkpw/Cc2OAdV/HpxKHXBmv5rp021oKYm22Z9dOKvQcV0GW9rO59fOTZ5961NvfKXXhYpIToIpRAAADSJJREFUv6YMJyX9oReVmWnb7l8+PXnxPc98w68+TxZ/BPUIVwIBIAAE4ovAmEhJ7wlrvdzY0R8/SvJ6lpKkphSkk1IytAHZVEFrlv2etmI17axqa/hfcc5HjT7p6ZOSq6tUZ9qs7Wrxrdn8/9dES1KHp1W+VZD2TIO5z2XvJ/5sbfVZ83IKqkhvGTLlUKtCnoiouJHyDUkqqLyeVvlzgrS/qqkRfLdNyaARKWWUVSEeppCv6HxDLva6g2wmQ8NJyVCSbHFDrwlBFOYrcwU3MdR8Y9KCDZ8KNaQ69MmytW8VUu5tq+LlBZzlrzb6JN2wElnqXprHWfm60R/ql3Q7iui4yr8tDI0bRrR5jF9u5nD+/BVlhtvmfP8OzrQtZT7PIiklLZSU9B9wZo1ISoZSCrbZHxrGqkjlxf6RMvferZ8ZGoPnQQbniJaS/iwuKDP3PrkqZcX2BvqNLjiRYZaEqVyIBQSAABAYNwJjICUHB44119WZjw2M0wob1myvs7mSTK/kMClpP26serOYvyonbYEgbb4gLSV7X8AP5/O0zROXaGgpyWxbPilJz9JbXCrrYoR6WmXPCkLn8M3OKZAypWS4lBnpsD38fKItTNyI+SLK64ub9ixDSjI3A4qYMjEZIIxVbKUIPMXR+Xrd6DrypRNWSo4gbgTaATuDSkFIyYQlWz5V5Akb8kWNFbIzTPkS6uGzEnJw2SuUlLQdE7738vrl85OTkjicyRxO4k03JoRIycBGQiFxffaEEW0ew+5NHM6mPQEp6f7gTnqQenRSEmmzn2EYq7xuZNy2sp8evWX2tJR7t+yUSHXUDJBQ7JGkZMuJsr2fbF47f9qcO5759gB5l4UmElSD0dU7xAICQAAIjC2B2EvJwb4jTfJ6a5eHVdKN18mJIyUHbLV/yUn7nbSm3mxwWpucVoNYypwdiBJt/n0lV5RXq03acln2EkHGR8YQr2TqRrnaZNY3U39ms6mbbILIlCM0U1Rcn+8wbL7o8vq9g0wpyfTRolP2omU3skTofNE2k+IgjJQcUVykbWHFx7C5kkFXIqXkgPKTR6dybt3ycW1peWuNtLWmNHvLnFCvZHRSMqZeyZZ3AstuItjsZxhGSo4grqUj7/NdDy2fNTXlnif+WVDBIijDS0nrsaI9H268LWXqnHUb3xCWaChvLuhIIAAEgMD1SCDmUtK3CZDCdvKX8RKN7PlOHCl52SBZnp2110qtfnW3SH0zGqlNuVGiLWiLclcTt+SnlLwiGe2a8s0s3CDX0w+2fmdLT5uNcrogU44gbpBxkflGKK9vzuIGeSNlpG/maPBcyTEpETLfCDb7WbmavpOkLq9UUbM8ye5jRHF9cyU/f+tdSdXVbFU4Cil5mffUrMS1u6t8s3UJ+40lT85IvDqvZMWX6xJn/SU9pLxeB//1uQkrtwtD5kr6vaFX55V01v20gZjf6d8MKILNpJRkt2pEcYkULB15n73z4LJZU+fe89x3IZ5FdinZVpa+ceWcqbPXPvZ6DohIfy3Av0AACFzfBFil5KDnYk93d3f3mS6nXq4wHz5NfLk4QEx9RAT5NNzg+XatTOk4TewlFE+fiSMl+1uqNwn2PyJrONDacsZuqFcVvSjhzqfFE9rTFrTsxtFvk7+Qm7pOqjhONuKWhhrevJyMV+vl0kalRFWyRZS6qqL+BBmKlIMRbgN0XFS+kcprlVdxU4SCT/T6Q7YmdYNkS146cwX3mJUIlW8km/2q0VpakZ4iEn2jVUj1ysomw2kfwxHFjdEK7pF7JfvlH/xh8pT1r+FuY9NpdVntJ1ufXLNg8lVJSbdesnlGwvyHPtu7ryQ9rTSrlFzf427WESu4lz61c3cxsYJ7Q+gKbs6fhKi5kuQW5ZX413uevDX5ppRnfyC3KI9gM9li2a0aWVzaeWA+Iv5019YPm+i3Ml/i7FLSkf3F068LitX0C1tQLZBWtRh2rEqeMv2hj6qpdyQ6LzgAAkAACMQbAVYpeeWUrS74FxBra+WWLsLRiAgilOOVHmeDrGH4Ty2Ou6qMNynpX9cS+q//VzrO6/KQcyVt7bqSv+SnL8hOXSzK+ltdg1qRvTAqKel1248S+0piL2ubyR8IcRrL5eKHRPvnZacuFWW+UFtnD6y6QMvB0LL4Fu7Yqd8dQccl9pUMny+6vOS+kmtyUuflcJ+oqSuTZywI0ECnjLYKXSJ0vhFs9quHfpvyo2Lezdn7ZmftmxuYsjmSuMaGf/1uyewlm0a5ryQpXHy9EnKA2+u2uPa9/Ogts5ImJUybv+aZf+GK9+5Mujop6ehTpu66b8mMhBtvvOGGSYu2KWnh5dtX8t6FyZMTODMX3/nCvzM6qYmDI/BK0j+cOHXR6j+9/yPzhxORNlNlD2PViOKyqcBAF88uJal8UXGd1d+vT54y97EcPT34EEgWFXEkicM1QAAIAIEYE2CVkuMu/GJvQHxJSfZNqrP2v9FIDyBeZ08OKBE84IFArAh4Gvc8NXPqsufxnhh399dZrxIrnpAOEAACY0wApOR4dNb9rSabudEa8mcxHAm4AK+zTh9KNMY36nXWHoDGaAic5z6zMHnVf4rYt6scTcoQFwgAASAwBgRASo6HlByDigSpAQSAwMQgYFW/esus9R84qVF+6C6AABAAAvFNAKQkSEkgAASAABAAAkAACACBKAmAlIwS3MTwf0ApgAAQAAJAAAgAASAwGgIgJUFKAgEgAASAABAAAkAACERJAKRklOBGo98hLhAAAkAACAABIAAEJgYBkJIgJYEAEAACQAAIAAEgAASiJABSMkpwE+NNAkoBBIAAEAACQAAIAIHREAApCVISCAABIAAEgAAQAAJAIEoCICWjBDca/Q5xgQAQAAJAAAgAASAwMQiAlAQpCQSAABAAAkAACAABIBAlgd+6lLRdbjH3uSbGawGUAggAASAABIAAEAAC15jAb0JKXrp8uaOjw3X+4DC4Duwfc6dMnbXkD1s/N1uHhUYpzyEdIAAEgAAQAAJAAAj8RgiEl5K/nO+wquW1MlVbz5Wh4E/YoF8uHGszaRRyuVyhMbUdu/hLcLxx+dZzrqfjWIfr4oHDx44c6DkUXK8unaswp/KrF9bPSr53V0kfaEcgAASAABAAAkAACACBqyDALiWvXO6ya+vqNM0mrTxESiKCPCdtSpmq+eCJnnM9Jw42q2Qq+ynvuMhHf6ZXrlw5cerE4ZNHWgfaHV5360D7oZOHD5087P/K0JTO+vQHps/c9G3PVYBjRIdYQAAIAAEgAASAABD4jRJglZKDfUdMOlvnBW//UVOIlEQE/XrKVi83dvQP+oTcYH+HUV5vO/XrOGlJr9d79PjRgz0/h2i+Az2HDh870tZHiEvqz1nzw33T5zy9/xJ9Bg6AABAAAkAACAABIAAEIhNglZJDVzweQgIODnSGSklEkE9KNh/zkNrRc6x53KTk4OBg57FO18XhkyMJIq4LBw8fO9Lqoem0FX+6bvqyv2X10mfgAAgAASAABIAAEAACQCAyAXYpSapBNimJCPqlu01dr3d1DwwODQ50u/R16tYz4zZbsqOjg3I6slAIDm3N++C26WveyIO5kgFPLQs0BE8IAgJAAAgAASAABH6bBGIpJYeGrvSeaNXVyeRyuaxOaz9+OXS9zjUc7A4Wi6HCKDjUpZM8tWDu/f/SqPVnrcbzLZaB0Ot/m40DSg0EgAAQAAJAAAgAATSBWEpJb7dLp9A6jp693Hf57FGHVqFzdY/bsptgsRgqDUNDBwyZ/3tw2ewpSUlJSdNu2d7QiqYGoUAACAABIAAEgAAQAAIOrzt2UnKw70iTXNXWTa2z+bW7TSU3HO71r8K5hv5If1a0WOwI/vhrnQ71fzVp3lw7d9XT+7nZ6gKRtlTWA5uWh4pvuFuAABAAAkAACAABIDCcQOyk5JXuNqXccISWjoO9RwxyZVv3OA1yh4jFkJIHh7ZJPlo1ffXrIpgrCXMlgQAQAAJAAAgAASBwNQRiJyUHLx3Sy5W2U9RCm19O2ZRy/c+Xx9srGSIi/V9DpGTh/9ZOX7FdAFLyapoOK1g4CQSAABAAAkAACPymCLBKyUHPxZ7u7u7uM11OvVxhPnya+HJxgBCFqKDeTlO9rMF86OTZc2dPHjI3yBXmo33jpCSHgsVi6HBtcKizeu/66Sl/Tb8cetlvqilAYYEAEAACQAAIAAEgcLUEWKXklVO2utqQj9zSRfgbEUFDQ4Pecx2tRo1CLpMrNMbWoxfGbdHN0NVJSSX+IPzazdU2HbgeCAABIAAEgAAQAAKsUvKar5EZgwyDF9uwfPPXve1yi+FoyX+fXjjt1n/kwBblMMD9/9uzYxuAoCgMo62nldjCPAozGUEjWiWJSiUSbw2D6CR0r+WscHKL7+YnQIAAAQIECKQIfDYlX3X6XLTvIXtvmyJkIS+repi3FDhfCAECBAgQIECAwM9TMi6x79ZxOg+nQIAAAQIECBAgkCpwAc9zLnIAk+iXAAAAAElFTkSuQmCC;" vertex="1" parent="1">
          <mxGeometry y="230" width="878" height="443" as="geometry" />
        </mxCell>
        <mxCell id="DwSio6ZUpCMT1keC7chz-4" value="&lt;font style=&quot;font-size: 24px&quot;&gt;src/serializable_traits.rs&lt;/font&gt;" style="text;whiteSpace=wrap;html=1;" vertex="1" parent="1">
          <mxGeometry x="1150" width="230" height="60" as="geometry" />
        </mxCell>
        <mxCell id="DwSio6ZUpCMT1keC7chz-5" value="" style="shape=image;verticalLabelPosition=bottom;labelBackgroundColor=#ffffff;verticalAlign=top;aspect=fixed;imageAspect=0;image=data:image/png,iVBORw0KGgoAAAANSUhEUgAABFAAAAFoCAIAAAD/9JgMAAAgAElEQVR4Aey9iX8jR533T5KxMzkIIUCADdcDzwJhA7vkAQJhIbvc8CznLoFlWc7dsGGzsDxPluXawAPLQlh3tS7LkiVLlm3Jpw5bt6z7tiXPZXtmPJc9py8pGc8/8Pu9qlvdasnd1bLlQ+P5+jWvRFJ1V33r/f1WdX26qqtf8v8xf8ePH79xC/zNzc3lykX4BwSAABAAAkAACAABIAAEgMBNR2BpaWkbNr8EBM82qMEpQAAIAAEgAASAABAAAkAACOwxARA88lNUMMOzx0EJxQEBIAAEgAAQAAJAAAgAgZ0isE3Bc575gyVtO+UGyAcIAAEgAASAABAAAkAACACB3SCwTcFz6dKl8+fPg+DZDZdAnkAACAABIAAEgAAQAAJAAAjsFAEQPLCkDfZjAAJAAAgAASAABIAAEAACB5YACB4QPAc2uHfqrgDkAwSAABAAAkAACAABIHDzEgDBA4IHBA8QAAJAAAgAASAABIAAEDiwBEDwgOA5sMF9896HAMuBABAAAkAACAABIAAEdooACJ6dFDzJmT4l0g6emhZ1DzlV9BT4sZZAITHvHo17QldBpAEBILBtAtCOto2uRU48eB48eDVqkVABM4AAEKgQaB3B8+K1hUI84HY5Xe5AvLBw7UV5JbJHRzT6Hp616JCRUo75kmWx8CKn1p9S8E+oOtg/iqK79OZIKL4ulm39ifwxhcmQluoaDGztLP70lvywFrBgKnRvMV8rhHbVWimS016ngrI4oqVdLX2rmTdjlSDqOjoohUo7POJZKnCoBakiMUlO3Wotduv4zLEBBdKPXuAr1WRBUrHRZLZNni5nVTPtaC054TVqVBTTOVFdkXhWsgvaUi2kbG4mnhszYOs1iqeNbP0xBI3VX9vHklO51tSYbVJsm/GgVJ7yv0v5qLm6sOWSarSb5crXeidqB6UAASDQAgRaRfCsn814HO7I9NzCubPzhajb4cmcXd8jQSNXTIOCJ5410bR+9Jz4WIqcWn8VLGUcA0gxZPeeCPmO+Rxeg5Kiu5OprYwtptxjNDUwHm+t4XiTF4+pyDG3qxhN1I4w6untcLuSIFlKjVko2u7P7HBxzSFqxiom6tDAKI66E0FPdqhbQyGLI8KGEDkmyaktgyieMlDKPs9qc5Cr1ZGIjeoBO1XQlvKRtWrb7agQjuiQ2mDL+T1HA56jwdBF8dnsrTdJCZubieeGvLCdGqXOT3px9X2DfYjqc8Zq+1hy6tbJiLp+2x4Uza3BHyV81BBn2SIINdrVcmUNgwOAABA4IARaQ/BsrM5GnO7M2XJFe5TPZd3OyOzqhpwW2ZP0hgTPSmhAR6knQmnR3p+cuvmU9bC1C+liyYrCKWUcVoRsE4nNR0r9UkqMminleKi1huNS1rby71Ik10P9Gkob3qk73DvUoTRjFY46qjMU43R1IRrTU8jouMjYRo5Jcmqr+LcQ8Kgp01h4pwSzVGzsb313z6pScrSXUo4Hd75XkbK5mXhuxAvN1Ig5V+GUoEFObcS2VjtGyke7bed+lbvb9YL8gQAQ2FsCrSF4ri9OuZ3R+TVO4GyszUed7qml63siaOQKaUDwFCKxbqTscbJDw3oXklPFRrpX3Eaa7p3h755Ou8dooeDJnPfaBnUqFaJ1PcMnAlYdMqQzzL1DZva/shiu+j/h2jbpc8UsEdbl8oSRVvblg6P2brUKIbW2JzwpXL9HzjmzGBga06vViKIo1KkzhUMJwZ1RYmoh6NPwa0joMV+NqmStygVH7XqVEiFNlzkZFR6QPuexDumwwVp9/1Tc7VCgYU9KWC/xz3IkL40bEG1Kh+xOhoamy5yICrLNT4zQCqfbF+/X6xWIVqgHhjwXBbN/yzGXz9zVRSNEK7uNA7l41eYVn1mBDBnWocVcKY2n+5wBfpRJqpGMVUQX46hDPbkcfxM6ke1ByOi4xJxFjklyqjhhzhg5D+aErAwm20yKR4FNJaZmLwaHR3QqBYU0Xb3pSccwQqPV+CFGHWeeiPFysVFnVZ1/RTKsKYtslXQrk7WK2I7KRUK52bV8ejmfuuKzqChdOJZazjP/piva+Crur8zFKS5ysq5BVN9OxWstZ7NsPBO9z9lTg5f9UaZGjXhwLdinpnTRBHeDoLYUQqrQZmFsrE8OdLLdPnvJMI8vF3Pl3MSIQu0LM6UQPSjXjkj9hrh32BrJ+ags09dJR2wxVybUSLZcUsQSXA9JQAAI3JoEWkPwbFw5EnD6ipc4gXP9UtHv9M9c5gSQnCTZ3XR5wXPV16uhtMFozTiMv4SQU/nDBB+yp4Y1dNfwWW58XEqOWpDSHeKGF4G+LkphHhgrBH1FR++grhOpBmYrByfPBPFyi3S/BtGGSXblScA7n6qMp6+SziW3gezJITVSagdtjtlEbCnm9ulppLHOc6qMnPNK2NpNKSw2+3TAd8zvDBhVSGk5yo2QyKnlQuI0U6mZMaOK0k7yUxD4esxa1Tk06JpPJS4nPD4dQgJ0lzzmToo29Y/ict22oR6dAWn8EfExisAFuXKRTDI7N6hCKu1Ary0TCMz5R4c1FNIOLXAuW48P91BKQ09fMhi+mImeGDOoKYXDX/HCanTEQiO9aTDt88y4hwbVFN7ronJu9uyYFqkH5visJge0qDquItZIxqraCta5G0cdUlv5css5j11JGUYmmfkQckySU+sKqvsq48HV6HAvjfTmoZzfd8w7PKSm6O7R8xwccupK2GZAyGAZmQr6j7lttm6tHlWnsGSirnb8WouOHBs5on/rql//lWwVsZXJWEVsRzlSuVPuUbp6+4T/pLWxjwgy3hcGf8SmR3XttL6aHE+yzTLxTPY+V4RY0TI1asiDS65uRPfOcJ1YXXFSqYTYwNNZyr5j07lSyj5o7Lb0YsGzErBoVP0n2G62FXvCHLmvI0ZsjhiT5NggRiyp8YrFAxwPBIDAwSfQGoLnxvXLMwHneLh47lrphfLK+ZnwuMOdu9Ai+xbICZ7pUFBLafrc4luHkVPFIyw1ZUZ07wS+vcf8Wwv1a5A+kWK+FqLxbqSx8MXhxxKQwb7EHcyckj1hVSLdSP0DRQ2dK3U9SOXNCOmGz3BjzWWviaa6k+lGrGIGLl1D/LnlfGwhGrlSEUvk1Ko9+BYmMk3X7FiQzJuwwuFzxuMMZC6woxDmHqHGMnGlAie7MNKJkDGbreZZN0zZ9FWCZDGZNSFKMzBbMSZ7waFDyDTF2bbi71VSnQFeA097HAqqt7LDQSJnohUG+yJHEteL6k6xJIvpmT6a5uZVysUcTuXHVTI1krFqU+2EHHDUoe7Rc/n0ylT6SsIXM6uQ0pSvWEWMySI5VVjK5s9EDxYTeTNNG8b4bQbwLX9kzFU8KJOa7UGCc7Onsfd78pUprEajThqaVGyQ/buZgPAXolUNtV8pq6qliLUjYrnT8TPhwHzYHzPRSNs/NRmYx1+DZ9LsLZ7UtBnR7HQE09CueXo2tdNq6WI8pWwmxzPZ+8QSZWrUiAezszaVsOeprZdUKiln/OA+c+vq0rjRZu0zYcGTmbWpNP2elZrunekTWqUnzJH6uoYiFntKLCZZD0rFBjFia3HVuoYYGHAiEAACB5ZAiwieGzdeuDyb8Drtdrvd6Q0GJhy+wkVuvmd352/kc5cRPBcnjEqkj0ssbCCninfEhclQF+oeDvFPGlxyddMKy1FWHuTGhxAa8fKrp2JJA1IP+NZqYjSeNiKFxV13mSw3dK7E9aCAdZ1+KMhbxVyiuOGjTM7Z08MaRHeNu9wnopFL+boJFnIqbw8zFdA5eJrTCZheIRTopHRVq7JnRrX8fFcpbe+n0HCVFSN4hJMYNdD4goQfJEgWQv5OirvDjSeazo11IWX/iYpt2XP2LqSqztKUpwMRkzEQZLzGiB/hs87sWrLKQLwQieqpThu/9ROuNT/dJ1MjGauE9dr0GUcdv26wo6ODUmrNSX6RHjkmyalkyEQPlqe9LiwUKxsnlIu5msG0TCoWmYJt9HBs0BrbSc5HxJjcxEekFhKxQfavSD7CsohtQaaVsflIWFUtV6wdFYnlVs6VyJnxvr7aX+FWRmtr22m1dGFl+c9SORNbGdn7MiUSWTXkwUSmp+a2VG1nLpFKzHnN36vEc+aJnNkQ8w6aLBMruHUoBL09a7aYB4ntSKbfaIZVkdjXNRSx3ER9Xd9OjrqGIpYPMPgABIAAEGgZwYN1x8YLa9euLV+ejY27onMtsmPBjRs3iIIn75tQUzqbv15asJ01OVXqMoM3pUGDbv7xGHwri+ama9ajg8JlOeWC361CglEdE9OFgFfNL0aqRnlD50pZlZ8YrXmOiLnocsNH+ZxzwQR+moXCY2qK1ptG5qvPiuTK5NSKSam8CdEmV81MWn5ipGY7h/SMhUYGe+U5+8kBLZ5m4fVVumDBD6WIP2olWnEJkuX8+DCirNVN8DJH+mjUPcbNs2WO9uNZGtGCSslRM6UQPPnNrCXT2CpL2vA+vKjfxW+vhydAFL0TbICtk2skY1U1EmoHZ8zvzFZIPYPu+Ujw2IieRvyME58qGZNlYsSKlCVETfRgKTXWR3V0UMK/DqqzsvxPJpXhLHimnJk663Fe5ktvKOqkoUnEhox/+dKlPkhbJd/K8C0A8bYv8IJYO8LPihBbKJezsbLEUYCl3vvpQi+e8LkmVcHNv0vZTIxnsvcF9RWYWlc0U+7mGjXkQebhE+FtqZoSJVLJOa/5zArt4Ons+Khh5ExksMcysRwfMdH8fCZfETEPEtuRTL9Rh0X0q5SPiqS+rqGIxcWJ1Yg1Q7LcBiJWtCLwIxAAArcogZYSPFj0lM9lPQ7f9FKLLGfDJhEET/acXUcrjNnKsh/+gsR+IKfWHVz9WkqMmJDKyz6liuMS3yxU9VVWNSx7THR1WU4O37pDtKP6RDuTD35oWOTR/IbOlWgJzEJtlWeSFw/JnEB+NJxzdjUXO+XpNyLhrXe+7sRUZopJMJmDz1qPDRkpgVWFSFRHaayV+a4VvOhOF+c2uytP+z2aamrNAEWi1mUJkmy5bp5GIRLTU+oBb2WeDS/kwAXxs2HCstaCfSqqugUfvtibq0IO78OLlBPc81rMFBbix2TkGslYJVVH5nccdVRlawRmmwQk3NOcHJPkVGHdN38me3A91N9JdXoD4XOJCP/vfCrFgiWnspyrz5Tj2ECCSbnGoo4ATSI2yP7dTEDiF5G20FArk7CqWopYO6qmFkXKraTmxHsVRnig6lYiTCsTTgULMueZ136QsJkcz2TvyxeKNZ54jRryYM41hIS3AGprJJFKznnFa1J2Dc95ey2jk2vRQaNl4qxTr+Ru31RrJOZBcjsi9xvVnLce7WViX9dQxDIT9UGtcKJeAFMiNgQ2S0csoTqQBASAwC1HoMUEz4uXigHnRHJhvTW2K2CXu0kLnuzEmJIyjoRql5NxnTU5VTrU8EpuZEhzImotMWqhFaPeyoTPRfyMSvVZEbxkjuqK1C6oW48OdlNq36ZH8xs5V3Ah4SrCmLqKH0pRuScrGzOUMq4hBWW2V9YakXNeSQWPh8LVmZkpr1OJ+DVd5NSqPfW3MLF5Kz6zsvr0S67MvqbQWXkZKLPPMuqxec7n0svpUH7YqBcXWjU1rZZYzEmRxBup8c8vFbly+ZeQTvvGlchS/4KOSins4EOw5/j4sAL18TZHhwxUdVuF9cQI3l6c2/qWXCMZq6RDrlzM4airyrBY0kDRggfDyDFJThXy3PyZ7MFVnxk/J8Y+vYbtz67m06vcmkZyKl78Jji3lLL3IYqfOms06qShScYGI7Ol/LuZgPAXslXkVsbmI2VVtRTRdkRsoYKcq5FZzTA3PkJ3aEz2hVxmJRPKDxl0lHBLScnGxecgZTM5nsne5zMnfGDKFakRuYWyGTICQ1m95VEbJ1Kp5JyveXqU+qFYv84fya5HbEaLPWWihes5K3UR9eA+9YRlYl/XSMTiSonVqMJZ4lpGbikVUMXcctTu6ukeHvFxj3HKRyN/LnwAAkDgYBFoKcGzsTwbcTknj19rJbkjPcOTOTXciVS9M8KlWdXLHjmV0O1mFx16RBsjQfzyx2nnQJ+K0pgc/EPba3hREzL0jc2EfAVH/2i3BlFatze4yD0uj+c9IjY9RVsGXTMBz9GA7wz3jH4j50rEd/a8Q0ertZaegUzAd9QzMqalKVVvsbGcr/nMKko5MOQoBvEWbSGzhlYYM9wolpy6lgrid/wFPEdcFj1F20aZNx5ORpkdHZjl49UnZ3Kl5JiFm6bAFSnEC/2dCmZXKVptCLmH+jbPhlVdJuIUCZKVJ3aOczvUsa9H5HeOZsbWwo2ka3IuJUZ7EdVptGX93uLE8KiWVnTZ5nj35SZGFVRnz1A+4DvmHbVrkdIwVt18glQjGaskPMvaxkad5Qi3jcSiU48QrzTIMUlOran7JhtkPFhK2vtoqss8PB30nwi4whatUmnMcG/gJaeuRwcNFGUYGD+dil8Ij/t6tVrBm6nIUbfJTpFaSMRGTsa/xHgjW9VI+5WyitiOcuRyWRp4kxLxDT/SCw4Du288reoOjNt6ayaoRdDV4ZWwWSaeyd6vK0L0q1SNGvEg0+QpvWWswPRORys9UqWyUqnknK+4jcpu80i3dXYa9+FGs2VUWd3sjuhBmXa0az0h3lCur2bT/Bp3kyOWWKNKPhKx0VDElov42TC8hrq6i2mNeaJRAT8CASBwQAm0kuBZP5N2O7xTiy+wEyst81/xGZ5SymGlqzfm6+KDnFp3cO3XzHGrsvLwOIVUGt3YqGeRG1gzRyaOjxj0NKKVGuvgxPmUe6KLRlTtGzALsaJNr6WZbCjtZPXlmA2cKz4gyxwbUNDGsRPuPrMKIaQw9FinEtVXx5SLxJwL8eNjZpOaRlQHolXGnoEM/zQ8I0ukU5mdtfh9cLkPdOVJDLx8HHWPLXI2rwX7NfVvxsgupyNnE/HlQg5vdkd1Vdc4cWfV8q+9IoqT5MrlphqYnKs7RzOLbapfN+WfueC12rRKmqIUKq3N6jiZ5RcK4kmMS8GhoS6lgk21OU7XK2qpGslYtckMYU1x1Am39cM7oVP8W+TJMUlOFZay+TNnM+eLTR7MLvkHB7VKBYWUqs6B/pEjSeHm7+TU1LzdZFAiRKt6zENFr1WPBOsbyTHJ2UOCJh4buXKR7N/NEAS/yFhFbGWszeJWkdsRvjUg3QZZ85jtQKQ3/FjLxS4kmVbGTlBzb5EiAeQhi9vMxYZEKysXyd4XUOULqvlAqFEjHkzN23u62YcSOzq4HokvVCqVlPPlcQNN07oB72oxtx626mla2ck92lcke5BjxVVwUzvCHcsu9IQ5ub6OELHkGnEkxWOjkYjFjwadGNSqaM2wKyy+CoPD1VCUwsFAAAjc3ARaSfC0jMKpM0RU8KSOWVVIY50VfwkDOZXrym+m0MF7wan6uWdUbibLedrpEzY10tjmufHTzX+RO3g14p0FH1qNQDzTgxTm8erCVPFOgBnFcnuZtHYTa7BGreaI5u2BfqN5hpADEAACNx0BEDx16kbkq6jgGTEjxZCb30qrxvHrcVJqaw8CaipSNRXvBVd9Yqf6u/igRyKTfTg4fSGMX8N6xOeKWXUaSjnsiZX2wYwdBHLwarSDcCCrXSCQi8wF3SmbXkNp3CF+N/yagpaTIebNPP4ZZ18PjXrtYdHtOlql32igRq1i6o51VtBv1ETsgfMv1A4IAAFZAiB4RBRO3U+igkeW7IE6oJRxWBEa9QnXsN0MFSz4PSq8DI5CdJfeHPRFVndsALFP1T94NbrZPXLQ7Wf2fqC1OlPQH5VYF4RfO8s0M0qp1tnt/sutPYnaQI32qXXvXixBv7F7bCFnIAAEbg4CIHjq1I3IVxA8B+7yf3M0TsAOBIAAEAACQAAIAAEg0DwBEDwiCqfuJxA8zccZ5AAEgAAQAAJAAAgAASAABPaFAAieOnUj8hUEz76EJhQKBIAAEAACQAAIAAEgAASaJwCCR0Th1P0Egqf5OIMcgAAQAAJAAAgAASAABIDAvhAAwVOnbkS+guDZl9CEQoEAEAACQAAIAAEgAASAQPMEQPCIKJy6n0DwNB9nkAMQAAJAAAgAASAABIAAENgXAiB46tSNyFcQPPsSmlAoEAACQAAIAAEgAASAABBongAIHhGFU/cTCJ7m4wxyAAJAAAgAASAABIAAEAAC+0IABE+duhH5CoJnX0ITCgUCQAAIAAEgAASAABAAAs0TAMEjonDqfgLB03ycQQ5AAAgAASAABIAAEAACQGBfCIDgqVM3Il8bFzzJmT4l0g6emhb1JTlV9JSb88dCYt49GveErhZvTvvBbCDQ+gSglTXuI2AlZAU0hDTg861MANrCreX9PRc8L1yeS/mcdodnaul6jbh48drp6Vhgwul0TgRi06evvViTup9fGhU8a9EhI6Uc8yXLYjFETq0/peCfUHWwfxRFd+nNkVB8XSzb+hOLufK016mgLI5oqcHjd/qwtYAF2073FvP7LnjiaSNV4djRobH6G2W400zKxcyxAQXSj14oiDIhp4qewv+4lXP3OzZEwlWAei054TVqVKzHqK5IPEs+fqdTbyaSrdTK+FBs0Q83M6utxKSgKRGaxn7T2PkaiVW2dXr+rTeKwmRIS3UNBnb+arV7OTcWe/Weav561FyN9rstiMVGczWqJ7w9vxzYs/ZU8FxfXsgGXC5/PBZw1gmeFy7kvY6JyPT82fNn56cjEw5v/sIL+6lyBGU3KHjiWRNN60fPiY9oyan1cV/KOAaQYsjuPRHyHfM5vAYlRXcnUw2N/0qpMQtF2/2ZfQv9qcgxt6sYTex8f73ldpg6P+k9GvAc9Q32IarPGdsvEVguxlMGStnnWRWvAjm1PjxqPbuFc/c/NsSrz1SwEI7okNpgy/k92GXB0EXxmVIyjWZSbyqSLdTKmmG+J+fexKy2EJO13YI02H2msQs1EulVWqfnl3aEiNnMwVPuMZoaGI/v/NVq93KWqgvx9x24HjVZo31uC2Kx0WSNiMAb7SIObCZ7KXg2Vmdjwcz8lfLayVid4HnhbHrcFT+5zsqMjfWTcdd4+myLKJ6GBM9KaEBHqSdCadGQIqduPmU9bO1CuliyonBKGYcVIdtEYvORm39ZD/VrKO3kXt8dF2u6LdNsSsnRXkrhDO6fCCwEPGrKNBYWF4HkVDLGrZzLxka4JWOD8ZFyvGV9VOsFaGWbex74ZecJbKV173zptTG/M/nvbY32v+ffOsNSYtRMKcdDO3+12r2ctxcbzfeirVaj7XEQnnXwaiSs3X5/3kvBc+N6qYQXqm2sz9cJno3V2bDTV7y0UZlX2bhU9DnDs6vcd8F0yz58bEDwFCKxbqTscV4U7d3IqWKnXHEbabp3hr/DPe0eo2sEz3LM5TN3ddEI0UqDyTaTqnaOl8YNiDalQ3aXQaNCSK3tCU9WV9mt+MwKZMhkKvqklMZTSc4Af3r6nMc6pFOrENLq+6fibocCDXtSDYVpIejT8OvH6DFfnfbLLAaGxvRqNaIoCnXqTOFQovE7WML6dhsHcvFq5pcnjLSyLxcctetVSoQ0XeZktJrKWr4W7FNTumiiforsKuZsLk5xai3rGkSbLedS6z2VOe+1DepUKkTreoZPBKw6ZEhzYMvF7MXg8IhOpaCQpqs3PekYRmi0yoScmhPWt86/cjlLWYt/52PD2Y1drOkyJ6I1ziWVm58YoRVOty/er9crEK1QDwx5LgrmM0nn1qMTGpldy6eX86krPouK0oVjqeU882+66ixhznXeL8tZRQzd7XuBJ7kLrYzYBomtTK4tEHMm+Qj7ay3tjfTp9UqEkKK7x5pP1LQygo9IVhXC4S7UPRwS3AhI5M0KhcG+yIWWMOe6tkDKuZgrE1mVi6RWJpPzVmjU2UwMyBy5dcv03uS2QKQhV99mIme7ray52CD3/HXer+tVWBr54Kid6SdrrqHMRHSfbWikU6HUWPKTTnuXQqHUhyPV5rDNiGXWMvELsLkPja9tk77CyudMvpbJeJ9QX3K0b78Xla+R8BKz6TOxLZSL0iTlOkm5dlTT59REXXM12lK5m3ukxvv2TeeSWcmkkkZQxN5suyO3PRU8nJzZLHhWToSd/uLl68uzUU90dvn65aLfGT6xcrMInqu+Xg2lDUZ52VDTwMipYj1C9tSwhu4aPstd8kvJUQtSukOVIeBqdLiXRnrzUM7vO+YdHlJTdPfo+crB2blBFVJpB3ptaZw6MqyhKI11vqKdsmfHtEg9MMflvD45oEVVJXDJY+6kaFP/6HTAd8xtG+rRGZDGH6kOPcWs5SpbSJwO4vVjM2NGFaWdjNWctRK2dlMKi82Oc/Y7A0YVUlqO8kqD2I+sRkcsNNKbBtM+z4x7aFBN4Z0huPqeHFIjZefQoGs+lbic8Ph0CAnQsQYvuboR3TtTXxzDWTu0wNOI2PSo3nKpKl8N9HVRCvPAWCHoKzp6B3WdSDUwy2W1ErYZEDJYRqaC/mNum61bq0edIY4JOZXo3xz5XClrmd+rsZEJBOb8o8MaCgmqTy53PT7cQykNPX3JYPhiJnpizKCmFA5/5TJPPpdk1ZR7lOYu7oL/a22VJexE7+fIVpHKLcqQJNaoSnLHW5lMGyS1siy5LcjkTGyDpYzbrqbU+v6YxzPjGbFrEdJYZ7kGRfQR2arM0X4FbXJe4Upfjw0ZkdrNTZWTvUCub5nEKtdMznI0CP0z11ty9a0LUWLrlum9ZdoCiQbZR7lmIodYI7IXmomNCmeJnj/XQMRqB22O2URsKeb26WnEX0OnPQ4a9Y5OLk8FvJ3IMhrCHzSUfijIivYm4ip5hrmApvs1iDZMsit7A975VFVK1UWL8CvxCiuTM/laRvY+sb7kaG+mF5WpkZCMyGdSW8gRScrUiNwjEaOumRrJtF+yj5rpzcisyKnkqCP2ZnWHxX0AACAASURBVNseubWW4Hlxadrj8EwvvXhTCZ7pUFBLafrc4puSkVPFL3upKTOieyeWudS1UL8G6RMptrEl8maaNozxj7/j2yTImMuyqcmsCVGd1nluLHJlwkhT3ck0m5qe6aNpo+MSlzO+McArAeYeg8YywQ0+sgsjnQgZs5WcyU29morzRKbpmh0LmK6ta+gMpwfK+dhCNHKFn8Li7BHpm4qJnIkW3vHF+VPdqUqNknkTVjh8zvgKh8wFrvpMhtlZm0p4DFdKatqMaPM4z/map2eT5dV6cWcxvxSi8W6ksfBOxwvTkcG+VKlIItuDBD7KnsYke/I5NjeZVKJ/yedKWFuxiokNzcBsxTXZCw4dQqapyldyXOVW/L1KqjPAq/ppj0NB9Vb2xpA5twZdna+n42fCgfmwP2aikbZ/ajIwj78Gz6TZ2wdk75OtItMgkyTXaNdaWcNtUKyVEdtCwzmLOQtfYJBm4ATXqNcjgz1KbSjK3tQg+4hoVTF30dVNV2/BJAsWpbI6vSPjhQbaPo4BMVbN5CxDg9h+m4lJYu9dbLQtiNEg+qipyGmmlTUTGyxnqZ6fHLGpvBkhXfWasuw18ddQvEYOqX2RbLkQ9HdqfOFsuRDwapDZHmEWLDQTVxWbT1iVSDci8TCwVPw0coXNiudMvpbJeJ9cXylr2d+b6EUrFxGJGtVdYqS/irWFRkhK1YvYjmRGMmye26uRTLnEHqmZ3ozMiphKjjqZ3mzbIzcQPPJr5GSWtF2cMCqRPr5puRQ7biCnio0tcuXCZKh2mcclVzetsBxl5cG014UHmmz3ihtJzTC9EPJ31kyC49Vx/FC7EInqqU4bv1kZvjHATyWV0vZ+Cg17+TVOjOBRW/npIHFr63sT5mZD5+BpXtvgA7KnhzWI7hp3uU9EI5fyNZM/MtkyA2vhfgO1NQoFOikdd3etXMyeGdUKZ1qYzBOZnhoBWSmR4ayvLqfB9aW1dZZLdG258SGERqqsYkkDUg/41lgajM2CjfKwVbTGdpJlIpNK9C/53Hpf1BrPxAY/c1IuZs+NdSFl/4mKVcRyi9lz9i6kqs4NlqcDEZMxEGSihRyTZKsqqfG0ESks7pW6g8neJ1tVl1XdVzJJco12rZU13AbFWlmB1BYazrk2ZlhohUhMj7TVfqP2GLKPiFaVi7n1iE2H9Enmbs56fMQkmN4py3mhgbaPOx9827WuR2omZxka5HZUi25LMUnsvXFzJrTQakFiNIg+aipymmllzcRGpb4SPb9cxAa11RkbTjBXblfh1dHsTcDc+DBtzGRz5RyzEJqd624mrio2S/SEVQ+KhlAjV1iJnInXMhnvk+tLtrmJXpQbM0jUiFxuNVWsLTQzViG2ozI56ipWbatGMuUSe6SmejNy1BFTiVEn05ttf+TWYoIHP7vjK166iWZ48r4JNaWz+esHamz4klOrDa+2C8PbdKBBN//gDRbKNHfLp5Qa66M6OijhXwfVyS3xyo8PI2Stbm/Aynd+qO11KlC/i9/+Bd8YUPROsMbj5W34Fj6vRtIFC0JGh/iDSVLGF1N5E6JNrvr5rlwwgZ/9oPBTPhStN43MV6Y7auu+KdtSctRMKQTPsldqVFnSlp8YqdnOIT1joZHBXmMzs2C39jkBptB6zulCL57wubbJBq57rZq6Hh0ULlErF/xuFeIVDmuzYI8E5tZsj/Myk7NMKtG/5HM321nzC44Nylrd/CdzpI9G3WPsrJRMXBUzR/vx3GANWA6U3LlVbjX2cKfjHwsBr5oyjkwKnuXAZ8l4n2iVZFlNe6G8a62s4TYo1sqIbaHhnMWchXePRVLbRsn4iGgV9hG7Vhs/Rpg60q9SGu2LXGDIxJVszpV8RFg1lTOZBrH9NhOTzPsGJHvvcqNtQYQGdoF0L9pM5JD7KxkvNBMbrOslen7ZiB2teWKWGRZzt6uWnHqauQm4Hh0yMjOT69HBbqRld4KRqRGRcyU2mJ7QsKknJEcOTpW9wkrkTL6Wkb0vU1+uIYsb30Qv2iwr6Z6hIZJS9SL6VybqKhGLr4Nb9j65XHKP1GRvRo466VRy1Mn0ZtsfubWI4OE2LdhYv7J0pbRx02xakD1n19EKY7ayvKpurEBOrTu4+rWUGDEhlTfMCw98m0rV56nIklB/J9XpDYTPJSL8v/OpFDtSxCvgKZV7kj8Xz87z8gPvAomUE9yzQGV8YwDxo8wVPHGvi3Nbw5Wn/R4NpbFysxZSjbzu9wJe4CeYcqnWi+mksqu52ClPvxE1+qagtWCfiqpuWFcu1tSIra+Hr28hEtVtsjnnGkJCAVkxiemsUXVzBaa+/FJs8T6aq+yyx1SdNyvm8G0wRDu4vR9Ym6t7JGCrED+1Qk5dJ/qXfC7Z5vrYwLd2KPWAl52VIpdbxhPQGGydIGFLlDmXg0YyD98lFdkeg+x9slWk4oo5MklyjepJ1sZkM62s0TYo1srIbaHRnMWchVuKsN+oPYbsI7JV2EeFSESHTGPhteSYhVZ7JqtPLDTiBZm2j/MX6ZGayZlMg5xzMzFJjqtG24IoDeaqIUWymchpppU1ExsVzhI9v0zE4ocVVVUaxWSuegsPrzhi14SveM0q5gYQXvBGmwvMak+y9+XbQjFXxhvniPSE5MgRpEpfYSVyJl/LyN4n11dgVd0wAH9tphet5CxRI3K51VSxtlBNLUqTrO0A+VPI/iVHXSWTbdWIXC7ZRzvUm5FZiaSSo47cmzUxcmsNwXPjhTN4W+pTN9u21NmJMSVlHAlVFjLVNQNyat3Bgq/4ZVjIkOZE1Fpi1EIrRr2VCZ9VnxmvJ648z4MXbKzm06vc+jG8jQ/urLntE7LjI0qqt7K8OLceHTJQ1U0I1hMjePtLbiNgvBc2hXpsnvO59HI6lB826huWJXyb33SzEHdtK6ng8VC4Oucz5XUqkXCVWvV0AQf2R7bDFezQPT6sQH3OymtVV3xmZfV5Hu6lq1wqmwPTHSgFIpDrfHPjI3SHxmRfyGVWMqH8kEFH1WyFR7DqIn5SiH/6JYcXLlJdEW5ZI15kKPBRKWXvQxQ/sUZOJfuXfC7BYOwFHBv801wcK+4FteRyy9O+cSWySLzISObcTT7dbCe+SyqITP4AsvfJVvGZiH4gkyTXaPdaWaNtsP6WHtPKiG2h0ZzFnIVvwQg6ivL0ZMSg6hkOsP0e2UcNtNDM8QGl0uKasamVRgc738i6TNYLsm0f5yPGqpmcyTTIOYuGIv8jOSbJvXejbUGMBtlHzUQOuUYNsNpmbLBIpXp+csSu4ocVVW7uGlrKuIYUFPeIDl5x1IlfYJ09O9qlxTeAmOXK2iF2CTe5RmTOFZtxT8g8IyTWEvlQqfvQyBWW6WNFciZfy8jeJ9e3zsi6r830omxWUjWqK0jyq2hbaGasQuyByVHXTI3IcUX2UTO9GTnqyKnkqJPpzRobuS1H7a6e7uERH/dQeq5c3EvBs1G6urS4uLh4YWE65JxInDiPv1xdZ7Ziq7x4tMC8eLTAvHh0sUVew3ND6hmezKnhTqTqnRFfmkVO5cbcIp1adtGhR7QxEvSdCHqmnQN9KkpjcvBbFJSS9j6a6jIPTwf9JwKusEWrVBozlXeS4qcyaLXW0mPNBvzHfWPjOhqpLTP8rgO5iVEF1dkzlA/4jnlH7VqkNIxVH44sxAv9nQpmpyxabQi5h/oEsxaSvQZThbVUEL8sMuA54rLoKdo2yrw7cjLK7gdwzWdWUcqBIUcxiLdoC5k1tMKYqWo2Ao1cKTHai6hOoy3r9xYnhke1tKLLNsc9do+XrfNPoeAVUGMWSrjLNs6ZebsZpbeMFRgLj3JWlYvpBYeB3UmbVnUHxm29NRNrJKvW8PI/ZOgbmwn5Co7+0W4NorRub3CRvc8XHTRQlGFg/HQqfiE87uvVagXvVVgnphL9myOfS/RR5Ymd49xGEQwWmt+RnFwuo9nqwfLFkc/lDyN8wHdJxbbHIHo/R7aKUBy+v7h9L+xmKyO2QWIrYx7hILQFYs5kVuxkr6LLkvB5j3jtXqOKVpny6co0MtFHclYxvcelcYNCZ+hX1kzvMAsaiX0dse0TWeWIEStnMzMVLEmD1D+TuhTZmCwTe29yWyDSkKtvE5HTRCursNpWbFTOler5yRF73qFjrqEDmYDvqGdkTEtTqt4iew3Fq8LYW3XpmT6FBd9Zw4uo+YXQTcUV0xbWIzY9RVsGXTP4auU7w1+7RYYK1XBq5AorlTP5WlYmep9Y36p5Yt1Lc71oE6yIbSHXCEmx6uBbz+TRCDHqKqykfCRRInuWXLnkHqmJ3ozMipxKjjpyb9bYyA3fm8DPTwj2zt1bwXP9XMZlr/tzJhcquubFa6enYv4Jp8M5EYgXFq7hN/a0xp+44CmlHFa6OtVQF5Hk1LqDa79mjluVldfZUEil0Y2Neha5QSpzZHbJPzioVSoopFR1DvSPHEly8znsMm6z86TbYlIhhJSGHut0zesyspeCQ0NdSgVFKVRam81xul6tZZfTkbOJ+HIhh7eGo7qq67JIHS6zC5lgT2H2I809tVIuxI+PmU1qGlEdiFYZewYyta9/qSVQ11FmLnitNq2SZm22Ok5m+QV7+MES1D3GL/pfC/ZrRN63k5q393Szjw91dFStYmq0lotdSDL1ZSfWqi/SqTOj7mvi+IhBTyNaqbEOTpxPuSe6aERVVnKXi6l5u8mgRIhW9ZiHil6rHgnWCsqkEvybk8u5zkjhV44VNxnI+Le6I3m5SCqXmRYXHizMGff10jFZd6ToV2arCfHtMQjez8lZJVoW/yPZR4QaMY8z7WIrk2qD5FbG+Zdrp2JtQSpnnonkh+WYY9ygViGKVqgtluGjghd/lYsEHzViFRafeqpDUTu900hfJ932yazIEStvM5EGIXIk8XIdoExMEnpvYlsg05Cvb7m47ciRqZFsv7Gt2OA5S/X8pIg9NqCgjWMn3H1mfA1VGHqsU/w1NOscRMwDpXgDCSW+W4Q/IMFCaIL3G+GcKxdiRZteSzNDgMZfIN7IFVYyZ/K1DDcW6VEBob68F0Q/YBp0U73o9liR20KuibGKrH8JUcchkvQRdwDXvXM9Ro593EW6JyT3dTjb7fdm5KgjpxZJUUfszSoo5EZuqRODWhWtGXaFBSuw9nKGpzXky9atEBU8qWNWlfBNFIL4w6NSYiohdlsnKX3CpkYa2zw3Pq6tYOvYuVOWMP0g92TqQa/sTkHbqXzimR6kMI9XFz2KdOs7VVZL5UNuZeTUZiqyezk3YxWc2/oEDnzk4P02Vf2VJxvhQlBL4MB7v/UbIFhYR2BLIzcQPPICSFTwjJiRYsjNb3dW44P1OCm1tgepOXG/k9IXwvjNoUd8rphVp6GUw54Y826BljJyJ41ZToaYt774Z5x9PTTqtYdFH8rfb7/sZJVbqy65yFzQnbLpNZTGHeL3Qz+49cVCjtzKyKnNkNm9nJuxCs5tfQK3UuTg/Tb5J3Za3zV7YOGt5P1b5UbbHoTN7hax3ZEbCJ5tCp7ddef+jEoLfo8KL0ajEN2lNwd9kdUD3v7xC16ZClNKtc5u91++VaazWiV6mWeaaa3OFPRHBfPOrWLerjRDcisjpzbTHncv52asgnNbn8CtFDmljMOK0KivulXgrnQCre903sJbyfu3uq95p7f6h22P3EDwgOBp9eA+0MNfgA8EgAAQAAJAAAgAASCwuwRA8IDg2d0IA7kCBIAAEAACQAAIAAEgAAT2kQAIHhA8IHiAABAAAkAACAABIAAEgMCBJQCCBwTPgQ3ufbyRAEUDASAABIAAEAACQAAItAgBEDwgeEDwAAEgAASAABAAAkAACACBA0sABA8IngMb3C1yUwHMAAJAAAgAASAABIAAENhHAiB4QPCA4AECQAAIAAEgAASAABAAAgeWAAgeEDwHNrj38UYCFA0EgAAQAAJAAAgAASDQIgRA8IDgAcEDBIAAEAACQAAIAAEgAAQOLAEQPCB4Dmxwt8hNBTADCAABIAAEgAAQAAJAYB8JgODZScGTnOlTIu3gqWlRj5JTRU9p1R8LiXn3aNwTugpiCQjc4gSgLdziAUCofmvGRmtaRcAISUAACACBHSCw54LnhctzKZ/T7vBMLV2v0xqEpLoj9/br3NxcQ8JjLTpkpJRjvmRZzDHkVJFTpqLFEXOvRkFTSKXRORyB1lEXawGLqqOjg+4t5hsiI1I7MUQSh8XTRqqD+9NY/etbOHcPzCMWUZgMaamuwcDNZPNNhLeYKxfC4a5qeLBhorC4VxqvhZSPpr1OBWVxREvErLbTFqRKJBYk0Tpqw6/gn1BRJnuEszmZMyHaPH6t+Zybz2Hna72bPcNOWLud2GA570TpUgFDsmo3y5WyB34HAkAACOwJgT0VPNeXF7IBl8sfjwWcdYKHkLS36kaktAYFTzxromn96LlC7RCkMlAgp24+JT7dq0Kqbo9z/EhgImbppCml3Z/ak5jYbMymX6Yix9yuYjSxJ+P41PlJ79GA56hvsA9Rfc4YN5jbZFXzY7Idz2HKPUZTA+Pxm8nmHYewuxmmzkf8s5P+3EAnoo2REP58MrmVliLho1JqzELRdn9GptFtoy3kJ0ZptBtRUco4BhA95ktXbC6EAp2Ufii4J+1Urj1KcJbBSwqe3ewZdsRH24gNtr47z0rgHYJVu1ouyZUC8+AwIAAEgMCuENhLwbOxOhsLZuavlNdOxuoEDyFJRIHs8U8NCZ6V0ICOUk+EuKFGrbfIqZsv+aX4iIlSugJcblMeu4LStcjApbZqm43fpV9KydFeSuEMyg1A98k80VqXEqNmSjkeuplsFq1Iy/+YPWFVIt3wWfHbDaThlJSP1kP9Gkobjmd3vO7r8eEeSjkR2oWcw9YuSjsZ43LOjQ8jZJtI7HgVtpGhFOdtZFV3ym70DLvnozrjRb/uHivR4vgf96tc3gD4AASAABDYNQJ7KXhuXC+VXrxx48bG+ny94CEl7bG82VxcA4KnEIl1I2WP86LoaJucKnbKmr9XQWlD/MClmF3JpZanKuOYq24jTZuLU9wwLusaFNzWvTxhpJV9ueCoXa9SIqTpMiejnHBiylpLeyN9er0SIaTo7rHmEzWppFArBH0afvmQ4EZypQqZxcDQmF6tRhRFoU6dKRxKNDyzkTnvtQ3qVCpE63qGTwSsOmRIZ7gKsmYH+9SULprgBnNVbjLlLsdcPnNXF40Qrew2DuTijdZXlqRkzszKEG4VHv//Rte2balcg8k2k6oRVGT/Cm3edC6ZpEwqyYP5iRFa4XT74v16vQLRCvXAkOciJ07I8UwKyGoM4NVNit6Jra5k433Dfaj66NK4AdGmdMju7FarmHaUiAomjohtgezBVX+vktInUlx4T4XC3bSye/g036Kr9eKOaeyXK24jjUzT3ELT9eiQgVJ5JvkmI93K8MpA1D0cEswFJfJmhcJgX+TcRIwcaTsbaAvCnLfUQtnYWJPsGXLknAmpTflo27Gxq6wIVjVQbmPNUDoMGgtgKAUIAAEgsGsE9lTwVLSEmOCRT9osRPbqF3nBc9XXq6G0wWjNuJP3GTmVP0z4oZQYMVOU1mw/neMHK/y1JHtqWENrhxa4gch6xKZH/G3d7MkhNVJ2Dg265lOJywmPT4dQV/XOdynjtqsptb4/5vHMeEbsWoQ01tkGR1qFxOkgXl02M2ZUCW8kMxezlbC1m1JYbPbpgO+Y3xkwqpDScrSxnK8G+roohXlgrBD0FR29g7pOpBqY5SrIkllydSO6d2ZThuRyV6MjFhrpTYNpn2fGPTSopvCuErU5C8kLPsuQJOacPMOASvdrEG2Y9HvwkryAdz7ViNaSLXe4l0Z681DO7zvmHR5SU3T36HmuRmT/rkZJ55JJklPJHmTvlxt6+pLB8MVM9MSYQU0pHH6WBjme+bAnfigEvGrKMCIcrxOPxxFL9lF2blCFVNqBXlsmEJjzjw5rKCRodGVSWyB7MHverkMKy9HK1ibxYr8aqc3T6c0tXbYKdQdgkqjTOptLLefxv0tuE011p9KVw4g+yhztV9Am5xVuYLoeGzIitZubsiZHjqDV1JkkyzlHbEebcxP5RapnIOdMTG3OR9uPDXJMNseKZJVMuUT/ingEjgcCQAAItB4BEDzysklO8EyHglpK0+cW31SAnMoNLzZFRnrBadRSHR1I3dc/MlMzCZOaNuMHkZe5c695egS3dZN5E1Y4Z7gRMB4NIHOhohOYIZFm4AR/Dzgy2KPUhqJbG2zhG9iCG8mM8cwAsWuIL7ecjy1EI1fEN6yrvUYWovFupLHwAOMpA4UM9iWugmz+szaVsF4cMXK5iZyJFt6lxpYLhoBcJrX2VMolk2wkZ3ad1YjEY12iheIBItGDibyZpg1jFzj/4okIZMxl2dzI/pU5Fw/xJT1I5CznwRU8p9EZ4O8ITHscCqq3sh8AOZ6lKNX+jic50ZBHMANTEzy1B9ckSfkomTUhSjMwW2kp2QsOHUKmKa7h8JEj1hbIHsTSAulGGI2aOWPvVtG6UKQRJUyoBZuUmjIjbqqq8n9K2X+cbYNyPrro6qbVA3OVuEoWLEpldXqHHDmyhuXKRSnOjbQjcv5ZiZ6BnDM5dWd8tPXYYGu6e6xw/mJWkcsl84dUIAAEgMBNQQAET9OC5+KEUYn0cZGlVjgCyKn8sEn0w3LCmxg0dtMdHcIhUWEy1IX01cUn2YWRTlo7eJodqTCPKQue9smeGdVWZ0sKkZgeaW1NbnTG3MDu5EqsDB+zp4c1iO4ad7lPRCOX8ltRULnxIYRGvPxoNZY0IPWAb61mYJrI9CC6d4KXeRwxYrnMwFq4zwGz5qcnn2ugcZJJNpRzPG1EW9sxDG87hh80l/TgtNeFpQK/DVeuRu6S/Us+t0gkSU6V8WD2nL0LqfjBdK48HYiYjIEg43FyPNfEgKTX1qOD3ZTaF9lK1FVylvBRIeTvpLQ2fnu97LmxLqTsP8HpTD788IRqXVsgexALD0rRO35lKr3k79Mj1Yg7JlhIJllHrkTpAzBJqqvPORcOzON/vkkDQt1jlTVpMj7KrUdsOqRPMgvt1uMjJsH0TlkmcqRNqrpPgnND7Yicv0TPQM6ZnLozPhLrJ8mxQY5Jss1V1GRcYlaRy200Z3K5kAoEgAAQ2F8CIHiaFDx534Sa0tn84g8PkFMbu5CspVwjKkphHq/MIOGNdNCgm9/8Ol3oFew8m58YqXlMOT1joZHBXnm4CO+02/z2UKm8CdEmV/2MVi6YwE9oUPgpH4rWm0bmG9EVxdx6dFCPOqsPLBX8bhWq3w6YWYBe+4wB13Kkyy0lR82UYry6zwE7AWJraEkbkWRDOVfWWU1ubThLLjc11kd1dFDCvw6qk1ukR/RviXxuMVeWJolH29Kpch7MHO2naaND/Ak3cjw31kaWvSYaGTO1D33JKwQsL9m1cJt8lB8fRpS1ur1e5kgfjbrHamcdc+WiWFsgerA87RtXVqdhtP2eHdszmiFZ3aIAq19K1e9hbxzI+ShXZp+zCmTKxdSRfpXSaF/k4MtHDnekJHMJzg21I3LmEj0DOWdy6g75aOuxwdZ091jh/MWsIpYr6VOyXyAVCAABINBaBEDwNCV4sufsOlphzHKr5GuvDeRUbry+KSDWcvGldHK1+jseLyJdZWUUM/hA1Z1np/0eTXXnWbzyXviYciES1VEaa2W2BJ+Lmt4eqoCX8AmmIOoqkl3NxU55+o1I/h0mLK5lj4lG1VmXUtrej2gHHngJcs65hpBQ5gmSKoeJlLsW7FNRuliSv/GfypvFpJqwIO4zmWRDOTPrrIa3uM6KXO56qL+T6vQGwucSEf7f+VSK1VRk/5LPFdAWIUlOlfEgc79cY/WJCj9yPAvK3exx/pfaaUzOgw2dK+Ej1gtu/nF/RjyoB7y1s454Om5zWyB7EIc3haxj/pMRf8ykQJ3WuU2PpTVk+aZqlhIjJmHbx8qKMo1VJgNlfIS1XySiQ6ax8FpyzEKrPZPVVXYNRw7vkU0fJDg31I421bSGj0TPQM6ZnLozPtp6bFTqtXusmAnkzRFLLreGNtkXkAoEgAAQaF0CIHiaETzZiTElZRwJ1Q+DWH+TUyVjgpmFoM38Vkvl6cmwjlL3eyuTSLnxEbpDY7Iv5DIrmVB+yKCjqjvPrvjMSuEzKuzLE52VlycyQyJldcZjejJiUPUMB8Ttl7Kw/gY2HtyspILHQ+HqnM+U16lEwrVkhKvmRfyUUfXpCLwIkOqK1C4RZAaRyuoAlLONXO6K10QLBE8pMz6sQH0cDYJJuEZEko3kvL11VuRyV31mmupm1x0x9mdX8+lVbp0V2b/kc2VIEv0r40E88kYWqRcoEeOZ7CMuNT3TJ5jG5GKDS900+BYcIOWjFZ9ZQXUn+RsZUi8hFW0LxMhZnxzQUpX5zPXEqAUhiz2yWQouR+2unu7hER+/i4BsdfALJVHVZnbUzt8ZkfERZpI5PqBUWlwzNrXS6BDOZZEjR9awMjOLK7rmsJF2RM5fsmcgtn1yuQ36iGwYnjGrmWxn+klibLAZSsYksUYyxvAxL2YVuVw+523EJH8ufAACQAAI7DeBvRQ8G6WrS4uLi4sXFqZDzonEifP4y9X1DbxTtXSSvCDZ7SOkNi3InBruRKreGfGFW+RU0iBsJTTQRVFdPYMZn/eoz+HvUdO0PhbnZzzSCw4Duzs0reoOjNt6kcobZicxmIclBE8alJJjFkrh5GdLmOkgRZcl4fMe8dq9RhWtMuUb2x5qLRVkthrzHHFZ9BRtG2V2HpuMsg/VXPOZVZRyYMhRDOIt2kJmDa0wZviNd/nLrdiHNTwERIa+sZmQr+DoH+3WIErr9gYXBQ+IM2+BpPSWsQLe7sxztLFyS4nRXkR1Gm1Zv7c4MTyqpRVdtjlBttLNT4ZkIznj3fMo2jLomsE2+85U9hUg8V6uuQAAIABJREFUub5clCs3ae+jqS7z8HTQfyLgClu0SqUxk+KmsIj+LRHPJXuQnEr2YCll70OCIKyPAUI8k1nl1jKTc5P+2dC4W0spekaOT/pnJycvNbJPBmeDhI8qT+xUHvcv5tiXkPLtiNgWZDxY+8h4enZQgxQ9+frFePiJF7wydNNehYSIXXTokbLvGFd9ZtRe3dqe7CM220vjBoXO0K+smd4pF3PkyJE2qeo+Cc65RtoROX+pnoGcMzm1MR9Vaye0sJnYYPPZDVZEqyoVkSqXq902YlIcEZchpAIBIAAE9pLAXgqe6+cyLnvdnzO58MKNGzcISbstZ+TzFxc8pZTDSktOF5BT5Xr89DmPdbBLqaAoWqnu7R2civMP9FeCYy0Xu5CMLxdyzG1d/pU1zOK37jF+8f1asF9T++6a5Zhj3KBWIYpWqC2W4aO1r3CRNix7eqSzfgeojg66x3mZHTsW4sfHzCY1jagORKuMPQMZ4UtLuPGlRP6J4yMGPY1opcY6OHE+5Z7oohFV987H1Ly9p5t9QGgL5WYueK02rZKmKIVKa7M6TmY5bSBjkizJBnIuxIo2vZZm3lxEaScbeoWlbLnZJf/goFapoJBS1TnQP3IkySthHBtE/xLPJXuQnFokeZBZECX6AqVqTycRz9UDxCKHWclWfRyG+SR8P5WMi5nMxX3EeYGbOlvDLyHlq0BuC9y5XOm1bTA7P6RG/BYjxVwpMz6ipLqsvtrdOFInBrUqWjPsCjc8+5o5blUifXWDcvadPIJt5Ug+YvHi53yoDkXt9A6TRIwcrqZiPuI8KM4ZTyttt4VyORclegaZnAnlNugj3gDhh2Zig8tn51mRrZItlz1gGzHJ5dxIhMAxQAAIAIHdJbCXgkdeWrTmEaKCJ3XMqpJ+gw05dQcvA8yVTGM7yY3MSGOO3Y2kHawUZHXLEoB4vmVdDxUHAkAACAABILB7BEDwyIssUcEzYkaKIXe8JKYi1uOk1OY1yXIyxGw7659x9vXQqNce3vwMQPOlQA5AYG8IQDzvDWcoBQgAASAABIDArUoABM82Bc/uaVDZnLnXC1KUUq2z2/2XYXpHTHbeqk1aNn5a7QCI51bzCNgDBIAAEAACQOCAEQDBc/MJngMWglAdIAAEgAAQAAJAAAgAASCwewRA8IDggekRIAAEgAAQAAJAAAgAASBwYAmA4AHBc2CDe/fuE0DOQAAIAAEgAASAABAAAjcLARA8IHhA8AABIAAEgAAQAAJAAAgAgQNLAAQPCJ4DG9w3y10HsBMIAAEgAASAABAAAkBg9wiA4AHBA4IHCAABIAAEgAAQAAJAAAgcWAIgeEDwHNjg3r37BJAzEAACQAAIAAEgAASAwM1CAAQPCB4QPEAACAABIAAEgAAQAAJA4MASAMEDgufABvfNctcB7AQCQAAIAAEgAASAABDYPQIHXPD87ne/Gx0dldc0xCPm5uZ2zwGQMxAAAkAACAABIAAEgAAQAAK7RwAED1HrMIm3nuApjPgSTxvSA1dg8gcIAAEgAASAABAAAkAACNzcBPZc8LxweS7lc9odnqml60KtsVG6OJuL+iacTpc7kCieWa5JFR4p8nnjwurC6eXZi+sX6hJbdYanoPqlt+2vY31r248emzrQ9pcRanX7OUjK6NXMZz/ifsl7PE+MFTYfs61yc6pvv/L2l+C/225vu+eP3vbhH/5ucGtqatr287e3PfA5ankX6luGPIEAEAACQAAIAAEgAAQOLIE9FTzXlxeyAZfLH48FnLWC5/rV42GX0586dvrc+TOzudC401+4+GKdehH9On0x0VX4DZX7d/af8cgf5q8d4Y8EwbNZsTTwS8EVT/1kKDN6TSTuty14Dr3hU88Oqugh6rnnPvM/X3r7Kz/3nxPrIvlLmAeCp3FWcCQQAAJAAAgAASAABIBAlcBeCp6N1dlYMDN/pbx2MlYreDYuFrzOwMzlyqzOxtWjwdoDeAVT+yF4xs5LHf4Dyv9k+mKCPbClBc/ftOoMD3HGY9uCp+3hf+irzEdNu9D7725/x9P5aQl5Uw1Q7gAQPJuZwC9AAAgAASAABIAAEAAC8gT2UvDcuF4q4VmbjfX5esFTura0dHV9g5Mz5VMJpzN9lryqbf7aUV7kfOc3f/PN5774NPpb9hfF1M8ury/duHFjNwUPXpbW/q04PRh592e9d37A+9pvRn4xU10Dpvutr+1zMQO35CwZjNz/WOCpGdYlzJK2L8eet0ff8zmRc7lRvoj/skupx9/vfsn/qvvneW/fdJYRKuls7A0fCHw3mPnOP/sf+KDnro8HPqLN+ktcVqWCdST6+N9473rMc+df+h75v3H6FJdULmbPJN/DZ161Fh8gWy7B5lwZL2kTCJ5iJv30W9vv+8xgtnJWKWnVfe3xd7zyrvZDdz7w0CNfepo+nmeTsud++fidzGK4mv+0v5cKsvXNSZ/LmxT1fe/R1z3wuo8/279SrSyfCh+AABAAAkAACAABIAAEDjCBPRU8FT2zWfBwQoc74HLR7wzMXOEFUF06+3VkrpsXPP+i+fpHv/T4z4a/x/8SPGPfA8Fz6BP+9/8y2T07NZpJ/c3fetq+GDNwQ2pZwXPo0/53/0vsF75Mx1Dsz/93zbmkgFudMnjTz7vT/+fffHd8KPQdF/78vDvdfbKitbDgecz3P78R+oIx3eFNff9Z/+H3ej/mqMghj33ygcd87/l98vnJTMdg7LFPutufjFs4VZZbmer24Nx+S4fuqRU8OblySTZvFjz5Zx5uv/sT/azgKXgMH3ug7VXveeZnzzu0HZpvP/baO9rf+ZSFJbniMVg7nu//w//58uvuuPd93zF3PN/f8Xw/6j7awLmVqarpkV8/eu/hw3e97IlfnK4qUqLBoIuAABAAAkAACAABIAAEDgiBVhQ85fNZjzNwREbv3NBM/5KXNz8d/qePfunx34Z/xP8ycFy9B4Lnjo+E/8A9fJ+MRl/9mP/vUpXIkBU8tz8x+eulysFRX+QVgnMbGYtLLS3Dgud9nkdNUxl2uL+a/bsvuO95Nh1jvtonkz8Zz4W4CR//UOiuxwJPH62P5tr5qJpUqXKJNm+a4akRPNN2x3/8xGLlrCr4Oz90V9s7ns4JF7xJLWlr5Nxi9nz/cz/59tOm4ShXcaK1NfWFI4EAEAACQAAIAAEgAARuagItJ3g21s9mvU5v7nxJdFpH8KNy6he8vNksePqOKfZA8LT9dczC7bSWOZF45DHPpzyVOQRZwdP2pVgvf+7x+J8Izm0kpKSEBzvD8+UYP2ovoN8HH/1tmpMT/O/4QzISedVj/m/ma37Ev9cswKtJlSqXaDNZ8NTkj0t3fflV7W/+ZnRKkKeU4Gnk3PpjBNlCEhAAAkAACAABIAAEgMABJ9BagmejtFgMjY9PHrn4gkDZSHzsO6YgCB73KeveCB5+a+nMLBY8n3A3LHgE21LXndvIiFxKeLCC58m4eOBmzmaf+UnwjR/3Hv6Ap/39nvbH3Le9b/8FT+aU7pmvPPrGB+89fLi9/c729rbbbzvUqOBp4FxxFI1AhmOAABAAAkAACAABIAAEbnYCLSR4NtbOTwVd46HCYon88E5FAOWWorzg+fxTH/vst/7y6z/5HP/L6Wsn9kLwSM/S1M/wBPCmBd87wg6+mU0LpM9tJKq2I3hKUz/+R0/758PPTuZsx/JDx/IDQ+EH9mWGJ/1P1U0L1t0//ou729/yqWftA7b82FB+bKDzUw80OMPT0LkgeIAAEAACQAAIAAEgAARuXQKtIniuryxk/c7x8JGlssSEzqafX7z+ovW4hlc4wg+e0zb28N3epe32D0/+vwuV6Am7wy8XPIcz2BloeyL8X5crqZ7+UPv7Q/9+lv2KBY/wGZ6IL7zVZ3gGNTj/Dm6PBF4jkWZ4VjKfecLzdnW+8nhPuRh1h+/bouCRKpc3QOxD3ZK2add/v+8uflvqZcVn7m97+89Hqlb1f/q+tvoZnsFfPNx2/1911L14tKFzmWd4fvqd75tHopVtDG7dBi/mHaABBIAAEAACQAAIAIGDTGAvBc9G6erS4uLi4oWF6ZBzInHiPP7CbEa9cXnG73R6E0cXzvN/Fy6tyr55tPziuutkn1DqKKZ+NnnGefr06V/96lfPPffcj370ox//+MfPPfccRVGbFFOjP8zNzYkNE7FoEe609oFPeQ59IdbNjcjTR+KPfNDzuh/Gf+XLPG+Lve+T7nufSjoqD83jc9v+KvAebpe2D36m5lyx4uqjMOQK3/c+3weVqd/hXdoyA4uVA0iCZz3/w2967vpaDM1ORy5OWScTX3gm8Or3V5e0RY5n/8Ds+YZ3aXuf7xM9eMe2P8TzQp0gVS7RZix4Ki8eHUa/fO7Tb7n39ld+/reVF4+uOX/4/jvvevQbqBiNnPdZ7T/+wqff9uo76wRPMWT+xH2HHvzgT379u/6O5wc0A2eZpYMNnQu7tNUHD9FZcDAQAAJAAAgAASAABA4Ugb0UPNfPZVz2uj9ncuGFGzeuX8hNOOpSHOETKw0tbbtxce1C+kIoft47dTG+XL7C6phQKPQD7u/ZZ59dWFhoVN9sOo4geNr4d+m8v/49PLly0RWI/+VXfXc/5m5/wvfIs3HNOT50sOBp/1ZCPRZ99LPedrFz5Yeka1O//23woQ97bnuP+yXv9fEP7ZAET7mYPJH+yj/67/+A+9Cf+972r3EUjT/yeFXw2NSBQ/Vv+HEf+rv48DpveTEnUS7RYCx4bmdepHPb7W13v/atH/7Bfw1yu9vhXQoKv/vKX7zp/sN3HLrnwbd99nto4plHDtcLntyq+/dPv+eh+w7ddttLXnLHa590V17U08i5Ue/33v3Qyx/6GLyHR+BHmOwCAkAACAABIAAEgMCtQWAvBc8mJbHLPwwMDPzgBz/44Q9/mMvlmimKJHgEGw8QR/ww0AQCQAAIAAEgAASAABAAAkBgHwgcZMFz/fp1pVI5Pj7ejNq5ceMGCB7QckAACAABIAAEgAAQAAJA4CYlcJAFT5M6hz8dBM9NGtxgNhAAAkAACAABIAAEgAAQAMHD6xrJDxKCZx/m4yBegQAQAAJAAAgAASAABIAAENgSARA8kjqHTwDBs6WQgoOBABAAAkAACAABIAAEgEDrEADBw+sayQ8geFonXsESIAAEgAAQAAJAAAgAASCwJQIgeCR1Dp8AgmdLIQUHAwEgAASAABAAAkAACACB1iEAgofXNZIfQPC0TryCJUAACAABIAAEgAAQAAJAYEsEQPBI6hw+AQTPlkIKDgYCQAAIAAEgAASAABAAAq1DAAQPr2skP4DgaZ14BUuAABAAAkAACAABIAAEgMCWCIDgkdQ5fAIIni2FFBwMBIAAEAACQAAIAAEgAARahwAIHl7XSH4AwdM68QqWAAEgAASAABAAAkAACACBLREAwSOpc/gEEDxbCik4GAgAASAABIAAEAACQAAItA4BEDy8rpH8AIKndeIVLAECQAAIAAEgAASAABAAAlsisOeC54XLcymf0+7wTC1dr0qM6+cyLnvNnzN15sVq+r5+aj3BUwgE/u2vHn/9yw63tb/stX/ype+r5qdZr0d0T7S/pPJ32z2f/P1ycUvRAAcDASAABIAAEAACQAAIAIEDRmBPBc/15YVswOXyx2MBZ63g2ShdXVrk/s7Npv0ud35RIIhA8JSr0iUz89PH7r/j5R/4yrM96Hfqpz785vbDf/qUmdE26dne/+7veL7/v3/8t2+6AwSPANoBa7dQHSAABIAAEAACQAAIAIEGCeyl4NlYnY0FM/NXymsnY3WCpypoNlZOJT3joeJSufrbPn9qsRmeaetP39p2/0d+fabA+jgZ+Ps3tr3ic6NZgcunx379rjYQPCB4gAAQAAJAAAgAASAABG55AnspeG5cL5XwMrWN9XkpwVNeKgbHfdkzaxv7LHKExbeY4MnRf3d/258+bV3j5nzWk+6iy71UWdXGyB6C4Mk5B5/6yLtf+9I72+58+UPv/PIP1Cf5E3Oqb7+y/fFnOujPv/MN97Yfvu+hDz35q3xGoKOyYwPffeJPX33vnYfaX/7Qu578V+0Cfy5nzC3fogS4gAkQAAJAAAgAASAABIDA/hPYU8FTURFSgmdj7XTS7Y7PXWuVtWwVe1tM8GQ7/va+tj/9/iAveEQ0hqTgiQe+9ebD7Q99+h9+ZkG/pb7x3tceuuvR7/etsIGIBc+h17zpA9/9tfl4yBX7zRcevrP9kacsldRidOJv39De/kef/C4+t+Pr73nNobs/8KPB1f0PYtAYQAAIAAEgAASAABAAAkBAikBLCZ6LBa/DbneM+2LTp6+9IJxk2dfPB0jw5BTfeODQ//ha17WKSglb//cDbW/4emiKiQ8seG5/xWeev1RJnTR+9J72dzydZ6dxstTX7r/j9U+qr7CphVDvJ+9ve/O3Yuy5IHuAABAAAkAACAABIAAEgEArEmglwXPjhdUrly4unT9ZiEw4PNlzrfIUz8ERPKXoLz7R3v7R//CXKrGYmf7Bn7Tf8ykr+/wPFjxtD3/Xwk3apNxffU37G/9+kpE0pcjPP97e/pc/c69MpVfxv2T2nx9uv/fTlXNbMbilVD78DgSAABAAAkAACAABIHDrEGgpwcPP46yfTo67EqdK/A/7+uEACZ7wzz/W3v6x56qCp/jDR9rv/kS/UPD8Q1+N4HnD1yuCB5/LbXnN/f82/lwQPEAACAABIAAEgAAQAAJAoBUJtIjguV5eWyu9yO9UsHHlSMAZPHqV/wEET/VBnSY2LWhohkdK8OAZnrb3/YM63GeKcP+iVvuFymZxt85NAqgpEAACQAAIAAEgAASAwE1EoDUEDyNwfIWL3G4F66cS4844zPCISuRp60/f1vbyj//nOeG21A/UbUvt+K93t931kd9wT+NwEZlTfvMVh978NV3dMzzsHE6ZXdImIXjK+BmeQw9/t5fbwyC3lo0sJuLcdBBXhKjN8CMQAAJAAAgAASAABIAAENgfAnspeLi3i15YmA45JxInzuM3jV5dx9M4GyvzsXGnNzFz8uy5M3NTYeYZnhZZ0XajxZa0FdkXj77iz7/2b2b0e+bFo3e+6x9NzItHedWRdH/1tYfufcd3fvKffR3P93f8we2MMnNE8SDepe11n3nq5314l7b3bdqlre1hKcFTjI5/5XXtd7/5r7//XD/9vP7Zr3zoVW0PfuI/F2CGZ3+aLu9r+AAEgAAQAAJAAAgAASBAILCXguf6uYzLXvfnTC5UtmMrX57LRXzjTqfLHYgXFq7hN/a0xl+rCZ5cuRAI/NtffeB19x2+o+2lr3748/+kmN20VVop0vXcR97yyjtvvw0/b3Pof/1guLKNNfMenj97DX6Xzsv+6JG//mfVPP8uHfIMTzFXzo5avv3hdz14T/vtbS998K2f+vovU8lsda0djPuBABAAAkAACAABIAAEgEDLEdhLwdMa8mXrVrSe4Gm5MCJIakgCAkAACAABIAAEgAAQAAL7SAAEj7wAAsGzjwEKRQMBIAAEgAAQAAJAAAgAgWYIgOABwQPzRUAACAABIAAEgAAQAAJA4MASAMEDgufABnczdwLgXCAABIAAEAACQAAIAIGDQQAEDwgeEDxAAAgAASAABIAAEAACQODAEgDBA4LnwAb3wbgnAbUAAkAACAABIAAEgAAQaIYACB4QPCB4gAAQAAJAAAgAASAABIDAgSUAggcEz4EN7mbuBMC5QAAIAAEgAASAABAAAgeDAAgeEDwgeIAAEAACQAAIAAEgAASAwIElAIIHBM+BDe6DcU8CagEEgAAQAAJAAAgAASDQDAEQPCB4QPAAASAABIAAEAACQAAIAIEDSwAEDwieAxvczdwJgHOBABAAAkAACAABIAAEDgYBEDwgeEDwAAEgAASAABAAAkAACACBA0sABA8IngMb3AfjngTUAggAASAABIAAEAACQKAZAnsueF64PJfyOe0Oz9TSdVGtsbEyFxufSJ5e3xBN3ocf5+bmmkEM5zZIID70uZff/pLb7v/U7y+BBgMCQAAIAAEgAASAABAAAjtDYE8Fz/XlhWzA5fLHYwGnlOBZP5Nyj0dnl1tG7ty4AYKnQcXS3GH57n9+ffvb3vo/7nztk+58c1ntTNsAG4AAEAACQAAIAAEgAAQOAIG9FDwbq7OxYGb+SnntZExC8LywOOVzho5cEZ/82YfZHVwkCJ69CPS10af/rP2N//TMF/6o/a0/G86UQbQAASAABIAAEAACQAAIAIEdILCXgufG9VLpxRs3bmysz4sLnuuXjwSdvumlF/ZJ2UgU26KCZ9X4tbe89E9+PpzekjYoJa26rz3+jlfe1X7ozgceeuRLT9PH+emUnOrbr2x//JkO+vPvfMO97Yfve+hDT/4qn2HVTvbc7z768jse/LY2xhd3VfvFP7rjFX+njPK/lItR3/cefd0Dr/v4s/0rItFJSM2e/Nl7D7/0472e5z59uP2Jn7pL/Ok7YNVeCDYBBCgOCAABIAAEgAAQAAJAoHUI7KngqQgKCcGzsTwbHfdkzpYkdMe+/XyABE/BY/jYA22ves8zP3veoe3QfPux197R/s6nLBVxgqXFode86QPf/bX5eMgV+80XHr6z/RE+Na341oN3vPIzzy9VpEhs5AuvPPTgFx0VRcTE9PTIrx+99/Dhu172xC9OFzZFOSk1bPr4vXc++qNjOevP3972sk/89mKN4GnOKj4r+AAEgAAQAAJAAAgAASBwyxFoGcGzsb6QdE/ET65u3LixsXbheOH4hVbZtqDFBM908nI6eikVvdD55Jtf+vCPLeFLqeildGxlepPA2BzN03bHf/zEYg1V5k8K/s4P3dX2jqdz7LlY8Nz+is88z+0ZMGn86D3t73g6X8k5NfnNN7bd+2HdZBbPZiQ7vvrAoTd8tWu5ppTs+f7nfvLtp03D0eoUTfUA6dSs6luvOvTmvzesFJNjX3zFoVf/zUSOq84OWMVlVbUEfgECQAAIAAEgAASAABC4RQi0iuApX8h7XeHj15i9CjauHg06Q8fYL/s2scMX3FqCZ0X9xdfefbj+7+43/YsptfVVVUnXl1/V/uZvRqeYcMfSou3h71pWK8Ig5f7qa9rf+PeTbGoxtzb2/UfbDz/x0/H1Ym7pvz/xikOvf2Y7hYo0rdW+b7z10L1f+kO0XMwu/Mf7Dx/6438f5Jbq7Z9VW+cpUjXIBAgAASAABIAAEAACQGBfCbSI4CkvJJ3jqYX1F5m/Fy7NBEDwSExHlGKjYXO339Tt+eknX3/vW771G53f1O039x5NMBMvEmdxQZY5pXvmK4++8cF7Dx9ub7+zvb3t9tsO1Qmef+irETxv+DoveMrTE+j9d935rmcKU6Gej7+0jT9RplBZGZAp/us729v+7L8m8F4Fq7bvvOOO9g/9O5ZV2GxW8OyDVbJmwwFAAAgAASAABIAAEAACrU+gVQTPqYTTXvPngBkemejZxqYF6+4f/8Xd7W/51LP2AVt+bCg/NtD5qQfqZ3gI0qKYPfe7jz3Q9raf9vz6Cy899CdP9XPSSMZUTm5JHFbwq//88G0vEf7d9tKP/edig4Jnl6xqVsVJVBayBQJAAAgAASAABIAAENhTAi0ieDZKy5eqfxdP53wwwyMXB9sQPMuKz9zf9vafj/CbPkf7P31fdaJGdi6lmCunld96sP2xj3z4Ne0P/8conw8/uMdP6fz0O983jwi3bpNLTT3/5H23P/iJn4ZtfXH8r/vXj999x4NfcrKP8eyAVbwB8AEIAAEgAASAABAAAkDgViOwl4Jno3R1aXFxcfHCwnTIOZE4cR5/uSqyNQE8wyMzJcJoobXxP/z8Wz8cC2xWHZJBvOb84fvvvOvRb6BiNHLeZ7X/+Aufftur7+RXpjUiLYqp8LfedPjQoTvf9Uxx8zYJpH3YcmWJ1JXuJ19/x8ue7OA1Uvbkzx47fMebn7Uxj/E0b5WcdGyENhwDBIAAEAACQAAIAAEgcHMS2EvBc/1cxlWzbM1utzuTC5vfugOCZ9eCKVn43Vf+4k33H77j0D0Pvu2z30MTzzxyeGuCJ7fS89U33t7+wWcdlWdsauRE1Pu9dz/08oc+JvEeHrHUdPKpP2675y+6o9VnkNZdP3hfW9sH/82Fi2hI8JCtklSAu8YZSgQCQAAIAAEgAASAABBoEQJ7KXj4bc9usg+ttUvbfo/RM9nvv73t8Hs7fFuYWdp9m1vTqhZp5GAGEAACQAAIAAEgAARuZQIgeOTVFwgeQQuZ6v/xHx+654M/P7X5vaI1Uz2CU/bg99a0ag8qDkUAASAABIAAEAACQAAIyBAAwQOCRyZEaqTLav8333bons/82i/2XtGaI3d/VqdaXGtatZcEoCwgAASAABAAAkAACAABCQIgeEDwbEXwSIRRVXvAAUAACAABIAAEgAAQAAJAoJUIgOABwQOCBwgAASAABIAAEAACQAAIHFgCIHhA8BzY4IZ5JyAABIAAEAACQAAIAAEgAIIHBA8IHiAABIAAEAACQOD/b+8+/Jq4H/+BCyTHRlzg1oILtdr6rVZtra27dlpbba2fflzVj9bRYW2dbR21WMRW6kIbQEBFhEvCSIiQQAgJJMEFDmQKIiOJEv6B3++RPYAEUZIjvvLgUZPc3fvunveG3uve934fBCAAAZcVQOBB4HHZyo3rGRCAAAQgAAEIQAACEEDgQeBB4IEABCAAAQhAAAIQgIDLCiDwIPC4bOXG9QwIQAACEIAABCAAAQgg8CDwIPBAAAIQgAAEIAABCEDAZQUQeBB4XLZy43oGBCAAAQhAAAIQgAAEEHgQeBB4IAABCEAAAhCAAAQg4LICCDwIPC5buXE9AwIQgAAEIAABCEAAAg4PPI/rSvMzyZTU9KKaFlPWUNfKM1NTzF9k3l2labpT35WWlrpQRZHFN3Z0AAAgAElEQVSms7YunDYkwItG9B40/qP1Edcl3bF3QtZnA4iQ//KLuqNwlAkBCEAAAhCAAAQgAIFOCjg08LQ0lIm5TCYnV8AlrQLPA1kGmVV4t8L4qqxrNgtECDyq59MOUyDZNsmXHjx39c+xkYf/WjNjKJ0Y+9WZ+udTuHmdQ+Ax18B7CEAAAhCAAAQgAAFnCTgy8KibSgRZBbcfqprvCNoEHmkGKbitUDs12XSwchdq4ZEm/TKBHrjgUI0+4eQkvteHFrSU+fwbeRB4nPUrjfVCAAIQgAAEIAABCJgLODLwtLYolU9aW1vVitvWgaelpiidzL2j0ExVqykWeygaeJrOrQj1n7A7SfQUjT/SxF1jaQHzDlQZmnSaRbzynJwGw0eV+ErC2tmTg/08aUSfIZOWfXuyTGqoLpLjq/sTMzdHHPvo5eF+hFfAkFnLfi0sMEyVS5S5jCOLxw/2oXsFDH9nVfiZz4JxS9tTHBrjIcAbCEAAAhCAAAQgAIHnKeDQwKNvQWkv8FQXppGC4tLC7DQyJZVMz5GWN1HljrZWFwo8cmHWVyPo9EGLtx2/ni9uczrOZ38xnCAGL1y7Ky7yUMTK1wbSfGZ8d7FJV+E0gYc2cOSMtftjbvKYggMfh3kSE9fHNeqrY07yJ8EeniM++ua3S1HhRz+fOTWkHwJPG2FTPsQkCEAAAhCAAAQgAAGHCFAl8FQVslPJTOH1sqqaqnvF/LRUJr+0kSItPRQLPFJhnYhfm8+vOrEsxD9sR1x2bT6/ViRoNDbF2A7EwphDswZ6url5+A2bvWRTwhW+0ji/+OiKQI9hy6Ie6r6R8WIXBtJDVgl0Aw9oAo97v8Xhtfr5r56b60uM31ioW684ckUg7aUVp/WNRVLyjykEDYMWGG3xBgIQgAAEIAABCEDAOQIUCTytj5se1j1q1tzwpnkp7wlZJL+0mRqJh1qBpzFqySAfL+uXz8gtjPxOR2R+8cmd3y9+ZZi3m5t36NfHObrMo8zZPZ8g3tmV1lgkatL8CMXfhBF+7yaKte0SmsBDD1sbp2/wkeenfT6QGPGfq9o4pOTvWUAQc/fqi1LJheSn/dHC0+kjgpYfCEAAAhCAAAQgAIFuEqBK4NEnHf0/6ofXuCS3+CECT9szZqUgOTsmmsOITt+5cJhf6KoDpzmMaE5M7PW8treo2ak0Denhq0II2rAvuYWaOZXZu+cRvaxebj4L4s0Dz7rzFoFn+Ep94NEsS8zbZwo8GJa67bHDNxCAAAQgAAEIQAACDhegcuC5hsBjK7F0ZdACMfcmM+WeqfeO+P6+GZ70lw8wCzSBR9PCQ5+2Lir7PCPH8MNPTKmSaTdD18LTUeDRtvCYBx4mnsPjnEZbW3XG4X9fsDEQgAAEIAABCEDA6QLUCDxqRUVxfsGtB4Zb2hR385hk7l3NoG0UeFHrljbjOWsXAo+CvW06nT7tuysK/bl4wY0fXiGIqUe52tYhTR8eWtjaWMM4BJJmcU51Xq7ZoAX0sA4Cj0rbh8d0w5uMc2KWN/rwGA8W3kAAAhCAAAQgAAEIOEnAkYFHrayvqa6urq4qk/JIdt6tSs2Heu2zd9SNpXwWmZFbfKe8svy2LIedmi6uUFIg7Gg2gaKBp5l1ZPeqbVe4msaZzv5IWafe7uPhE/rppr3nj4Wf2vr+ZH/3frP3lugHPOCzlg8lfEKWbtoXfyz8zPblswbQgxYcLOtEC49Knp38STAtYPLWI7HX0pPYP73/5rBA9OHp7HHp/BHEnBCAAAQgAAEIQAACTyfgyMDTUlHATLF6kcKyx9pco1Y+KBFnZ7DIVJLNFUjvPdJ9TYXMQ9HA07WTaaUw8fTKN14O8iU8CP+g0fO/2JNr3vlHnBy3+q1JQb6EO90/aMyilb/kCw1dg2ze0qa5I077HJ5BPjTCb/Aby36NXR3qhVHanu63sdPBFcVCAAIQgAAEIAABCHRWwJGBhwrhpSvb4FKBp2sxCUtBAAIQgAAEIAABCECgZwog8NiPQAg8aHmAAAQgAAEIQAACEIBADxVA4EHg6WxrYA+t4thsCEAAAhCAAAQgAIEXWQCBB4EHgQcCEIAABCAAAQhAAAIuK4DAg8DjspX7Rb6SgX2HAAQgAAEIQAACENAJIPAg8CDwQAACEIAABCAAAQhAwGUFEHgQeFy2cuOqBgQgAAEIQAACEIAABBB4EHgQeCAAAQhAAAIQgAAEIOCyAgg8CDwuW7lxPQMCEIAABCAAAQhAAAIIPAg8CDwQgAAEIAABCEAAAhBwWQEEHgQel63cuJ4BAQhAAAIQgAAEIAABBB4EHgQeCEAAAhCAAAQgAAEIuKwAAg8Cj8tWblzPgAAEIAABCEAAAhCAAAIPAg8CDwQgAAEIQAACEIAABFxWwOGB53FdaX4mmZKaXlTT0k7WeFxdlJnKzi9TtDPNWV+Vlpa6UDKWprO2Lpw2JMCLRvQeNP6j9RHXJS60dy77i4pjBAEIQAACEIAABCDQNQGHBp6WhjIxl8nk5Aq4ZLuBR/3o5lWSzL75SO2scNPeel0p8BRItk3ypQfPXf1zbOThv9bMGEonxn51ph45AQIQgAAEIAABCEAAAq4p4MjAo24qEWQV3H6oar4jaC/wqBVlQnZqZlHN4/Zih/O+c6HAI036ZQI9cMGhGn1tzkl8rw8taCkTjTyu+evdtasgWAoCEIAABCAAAQi4koAjA09ri1L5pLW1Va243V7geVIjzUxlC+8pKNW809raStHA03RuRaj/hN1JIlXnT9alibvG0gLmHagyLNIs4pXn5DRoPoorDs/t4xG0+qTAWGD9ySWDPfp9+Tdf843k+Or+xMzNEcc+enm4H+EVMGTWsl8LC8x+GWRc7o4P3hwe6E0n/IPGvrc2vFhsNtWwRmPheAMBCEAAAhCAAAQgAIHuF3Bo4NE30rQbeNRNpXwmybtR317PHue17mjW7EKBRy7M+moEnT5o8bbj1/PF1tVL9NeqII/+i8MN7T+Cyx/3pwUtSdWlGk3goQ0cOWPt/pibPKbgwMdhnsTE9XGN+iRTULzz9UCPPtOX/3Au4tDf6+eM8aaHLo8yFIXkAwEIQAACEIAABCAAAacIUCXwtDyQZaayr+byM1mpJJuTV1zZTJmGHooFHqmwTsSvzedXnVgW4h+2Iy67Np9fKxI0SjtXgYQxh2YN9HRz8/AbNnvJpoQrfKWp7SX/6n9H0P3eOn1Vm4WEEZ/3pQ3//JS2/UfXwuPeb3F4rX7+q+fm+hLjNxbq1iu9uHc8PeCdX+/LdJtRUPTdlP7Bi8/ndW6rTNuA+SEAAQhAAAIQgAAEIPAcBSgSeJ5UStJSyUzhzfKaB9VlN4SZJDOnpIEikYdagacxaskgHy/rl8/ILYx86xabDlMEv/jkzu8XvzLM283NO/Tr4xxj5mm+smkK4TV7J0shl9T8uaAfbdhmY7GaFh562Nq4Jn2x+WmfDyRG/OdqkbY6SqLWBNHHrY01TH2OdRRFQQACEIAABCAAAQhAoMsC1Ag86rpiDplRVK3p4aN5PakuTCd5NygyWBu1Ao9SkJwdE81hRKfvXDjML3TVgdMcRjQnJvZ6Xptb1DoMPPrq0pAeviqEoA37kltoqEBSduR0b89Jm2VFvH/n+9ND/svX5Rl9Hx562LrzhkijDTzDVxoCjzYOmaYaCrS3DZ0OaSgQAhCAAAQgAAEIQAACXRCgRuBpqS5KI/m3jXexqZtv88m0ompq9OehVuAxJoSuDFog5t5kptwz9d4R3983w5P+8gFmgaFYccXheX3pY3f+u/9jf9qE9fGGeKO7pc1G4EELTxd+/bAIBCAAAQhAAAIQgEB3C1Aj8KibSnLIdEmlYTzqx5XiNDL7FkXuaXOdwKNgb5tOp0/77opC3/BScOOHVwhi6lGuWeuQ6O9VQcTrc94aSITtTTYGIXuBR9uHp/ec34x9eGQ/TA0e/EGCsLtrMMqHAAQgAAEIQAACEICADQFHBh61sr6murq6uqpMyiPZebcqNR/qdaNQK+4XpJPpAvmd8or7pTJ+WmpafpmxwUd/o5uz/qFo4GlmHdm9atsVrlkmsXv/mJR16u0+Hj6hn27ae/5Y+Kmt70/2d+83e2+JxYAH+dmrRnrRaJ6TNsvNv9f14THdtGZ5S5tcM0pbb4++M7/Yzog8HPW/eeN86CHLox7Y3STMAAEIQAACEIAABCAAgW4UcGTgaakoYKZYvUhhmb5Z58mjMlkuN40kSTZHUHS33tDa46yYY1ovRQOP4SY0G3G2nUlKYeLplW+8HORLeBD+QaPnf7Ent03nn8Z/Px/hTryxPdXQEKQtx07gkai0z+F5Y3igF43uFzRm8Ro8h6cd/64dNSwFAQhAAAIQgAAEINBVAUcGHlOE6FnvXCrwdKKiFIg3jaN7TY3IfJq2o24M5YgNEIAABCAAAQhAAAIQ6LIAAo/98PWCBZ6i+B2jab5v7L6rf6JOl+sWFoQABCAAAQhAAAIQgIDTBRB4EHgsG2ea4v87lua7eL/p4TydaBRyej3GBkAAAhCAAAQgAAEIQKBdAQQeBB7LwIN4AwEIQAACEIAABCAAARcSQOBB4EHggQAEIAABCEAAAhCAgMsKIPAg8Lhs5W63TRNfQgACEIAABCAAAQi8UAIIPAg8CDwQgAAEIAABCEAAAhBwWQEEHgQel63cL9SlC+wsBCAAAQhAAAIQgEC7Agg8CDwIPBCAAAQgAAEIQAACEHBZAQQeBB6XrdztRnx8CQEIQAACEIAABCDwQgkg8CDwIPBAAAIQgAAEIAABCEDAZQUQeBB4XLZyv1CXLrCzEIAABCAAAQhAAALtCiDwIPAg8EAAAhCAAAQgAAEIQMBlBboYeCq1r5s3b9qPCz1/jtLS0nbDIr6EAAQgAAEIQAACEIAABCgu0MXA8/+0r64Ensd1pfmZZEpqelFNizELqeuKOakplq9UTnGd2jiHM9+4YOBpSg/f+NrgAJq7W69evdwH/e9cvqqTmV56Yfc4et8PjzZ0cv7OzCY5vrq/ey/Ny82d7jt47FvbDl982JkF5RKVZll62LrzTZ2cH7NBAAIQgAAEIAABCLxYAg4NPC0NZWIuk8nJFXDJNoGH5IhvV+helRV3JBwy69pDBJ7O5pCnq7XZ5xf1pgW/uWv/4fiI8Pijf+fniDu7ou4KPLThi7ZfPH7s0tF9+xaP8nfv/+FBtqIzO4XA0xklzAMBCEAAAhCAAAReXAFHBh51U4kgq+D2Q1XzHUE7gSf7VoM+4Kgf3eCRmfJaUxOQMxt4Wl2uhUd6ce94euD7EV1ppemuwGPWSiNlRk73IcZvLJR2onlUG3jGo4Xnxf0T1olKAhwIQAACEIAABF5oAUcGntYWpfJJa2urWnHbKvC0tqgUzYrH+rzTUlfMIblUad9ppWrgaTq3ItR/wu4kUWcbZ+QSZSG/WsCryjn3wxh6n3cPlQl4VQJeVW5OvTZa1P3+tnfw/M1LRvfz6T9r09G4L8cP8AkY//GhW5qp4opfZnpqbzuz+A8x9WiWeesQP3PDlKF9h87fHt/Yzu9VB1OtW2kKRBvHEAGLL4oN57LiKwlrZ08O9vOkEX2GTFr27ckyYxbSLjtxTfjZFa+FBHh6+Q2a8ckekciwYOHp/w2mh3x11rAxwssfBhJj14sMizdz//757VFB3oTfgDEffHM8ZV2oV8h/+UWGxdvZBUyCAAQgAAEIQAACEOhZAg4NPPp2mnYCj3kLTktNUQbJu/GIGveztbpQ4OkgtBj68NT9/raXz4Sfz/Mrj3803G/iT3E5VVEfDyNCtidqMlVj+tnEiPD4I99/NtTDb9qamIhwze1wkdHXjbFELlFJL++f4ufl5d179p57sja/CR1NbRN4CjeHET4L4vUl89lfDCeIwQvX7oqLPBSx8rWBNJ8Z313Ud9rRLEsbGvLqu6v3XPgn4uT6N0fQ6WO+OqtvvLIdeKSpEdP9PPzGrvzh0OV/wiO+eOvt8cGeCDyIeRCAAAQgAAEIQMClBKgXeB5XitPI7FuNlMk7VGvhkQrrRPzafH7ViWUh/mE74rJr8/m1IkGjodXCRoNPU1ZC2pkT7FN7Vg6n+c/clHLmBPvMCXb0OXmuppVGE3iIt07nSRTp3830Mbwh+vwnSmgq084tbeLK+H0/r97ISOIr2/k96WCq7cAjProi0GPYsij9MAYyXuzCQHrIKoGuHUazrHvvufsr9PmKf/HDfvRhX3ILtXHLZuBRcn+aTdCmbE1q1m2qlP3nNIKGwNPOgWuTXTEPBCAAAQhAAAIQ6DEClAs8qvv5LJJf2kydvEOxwNMYtWSQj5f1y2fkFsazjrSmDzxCQ+DRvSECnybwdOnM2GbgUebsnk8Q7+xKaywSNWl+hOJvwgi/dxN17T/aZcetjTWM0lYg3TqB8F2kn2oz8DQnrZ9E8/nsqDHOCZmfDiAQeHrMH68uVTbsHQQgAAEIQAACL5wAxQKPWnE3l8nMu6swv8fN2e+pNWiBUpCcHRPNYUSn71w4zC901YHTHEY0Jyb2ep55Xxqb54IdtNJQNPBk755HWPQb0gxfbbzhrU1Ykm+baLodzk7g+fplmu+ySFPgYX2GwGOz5rxwfx+hAQEIQAACEICACwhQK/Com0pySFZ+mdLZGcdi/dQKPMa7y7owaIF+WcoHHtH/TIMWaFt46NPWRWWfZ+QYfviJKVW6e9jstfBstBy0IOnDQGLchgLt7X+KtG9n0Il3dmcY7r7LPjfXh44WHqQaCEAAAhCAAAQg4FIClAo82uGo2QXljy3yhtM/IPAY20AkKunFPWE2hrTW9NLZuWZTzGW+MZiZvelgqlUrjZT55zRv07DUmj48tLC1sYaR1iTN4pzqvFyzQQvM+/DkXPjArA+PbgDuBb/X6H5pZemR0wnPaT/d0YWlovifxtCJ4Yv+Ps+uFmbk/b787SEBuKXN7Hi5wBUd7AIEIAABCEAAAhBwZOBRK+trqqurq6vKpDySnXerUvOhXmHsraOuK+ampkkqNUNXU+lF0cDTzDqye9W2K9yCpz5DfZYWHjkvZkEALeiNn7UPLU34J6HcfDS2jsZh0+WNjqZqAo/+waNJkb/sezfUz73/R4eMDx7ls5YPJXxClm7aF38s/Mz25bMG0IMWHCwza+EZOea1xWv2XDwRcXLdG8NotNFfRT/SX5YQFWyZ6EMMfX/TrxeOhx9fPW2Qh987u1KNjzStjf920WDCTXOTnOfw2dv+XDoIgeepq5NLXQHC/xIgAAEIQAACEHA9AUcGnpaKAmaK1YsUlhnac1pqpBmpGUU1FHncqClyUTTwdP3E9JkCj6Qp7Y+Nrw0JoLm59erlMWhZmm48NP1ZLz9jw6tD+gyZ18FzeNqfqgk87tpuOm7udJ9BY97a+vtF/ZhsumLFyXGr35oU5Eu40/2Dxixa+Uu+0NBhSbMsMXNbVPTyKSEBhKffoOnmz+GRS1RFzKT170wO8iE8iN6DJy7d8s89q+HsCnnXLp0vSOM1yoXkp/2J0NX68d9wHg8BCEAAAhCAAAQg4AoCjgw8pgjRs965XOBxhYrbDdcepMw//o/wnPpjqVUiAhcEIAABCEAAAhCAQA8WQOCxH74QeLohXVDld0ZQfO6I5gmqR/b99lFYoHvvRb+wjDe8db0NjSp758IHDrsGAQhAAAIQgAAEOimAwIPA8yKfnUtTf3+V3quXm5uHZ7/hr36546zhAaad/P3BbBCAAAQgAAEIQAACFBdA4EHgeZEDD/YdAhCAAAQgAAEIQMDFBRB4EHhcvIpT/JIDNg8CEIAABCAAAQhAoFsFEHgQeBB4IAABCEAAAhCAAAQg4LICCDwIPC5bubv1UgEKhwAEIAABCEAAAhDoEQIIPAg8CDwQgAAEIAABCEAAAhBwWQEEHgQel63cPeKSAzYSAhCAAAQgAAEIQKBbBRB4EHgQeCAAAQhAAAIQgAAEIOCyAgg8CDwuW7m79VIBCocABCAAAQhAAAIQ6BECCDwIPAg8EIAABCAAAQhAAAIQcFkBBB4EHpet3D3ikgM2EgIQgAAEIAABCECgWwUQeBB4EHh6okDB5Ys/bjx4JOGB7Hn/gei+knuiM7YZAhCAAAQgAIEeL+DwwPO4rjQ/k0xJTS+qabHIGo8f3i0ScNgkSbI5gqK79Y8tpjrzQ2lp6fM+p+zx9cYuiJD12QAi5L/8IrtzuugM0nTW1oXThgR40Yjeg8Z/tD7iuuR57mnD8Q/6ufdy85odndfJYnNOzyZ66V9uvgv/aOigEj59yZ3cAMwGAQhAAAIQgAAEnCLg0MDT0lAm5jKZnFwBl7QKPMrygrTU9Nzr92tqa+5fz01PTRdXqJyZcszWjcDThar5ggeeAsm2Sb704Lmrf46NPPzXmhlD6cTYr87Ud5AxVF34XsJMO/DziRPJDzu7rKgk9s/4iPD4P3d8MdLDRuBRPXXJXageWAQCEIAABCAAAQg4TMCRgUfdVCLIKrj9UNV8R2AVeJ5UFLBIfmmzWpsz1M2lfJJVUPHELHU48S0CTxeq44sdeKRJv0ygBy44VKNPIzmJ7/WhBS1lPtdGnq7EJLlEJb2yfxLdVuDpbILqQq3AIhCAAAQgAAEIQMDxAo4MPK0tSqUmw6gVt9sNPLl3lfpYo7ybi8Bj77yz6dyKUP8Ju5NET3Xiq+Cd2r940ku9PWnu7l6BI2Yt3SnIE5tKEF9JWDt7crCfJ43oM2TSsm9PlkmNlVJ09avhXmPXJh9bsyi0rw/hHTx2zr5ojtKwncpcxpHF4wf70L0Chr+zKvzMZ8EWt7TZKlm3Cn7mhilD+w6dvz2+0VCmacPkHU7tvj3Srr3D9dqaKk3cNZYWMO9AlWFHmkW88pwc011ktjRsO4tv73zN03BrGn3sepHpAGkYlcLE0ytmju/vTdA8+w6Z+MnGYzcLjUdQ+6bDwGOzZMnx1f3dDavV/0sfv7HQuHZbe2S5AQYTs4OLGSAAAQhAAAIQgED3CTg08OjjTDuBp/VxdVEmiyerVqhb1YpqGY+ZWVhFlV48FG3h6UrgkXHPze/tETj5658OXTz+59ntS6f29ghe/EeFvuM7n/3FcIIYvHDtrrjIQxErXxtI85nx3cUm/Rmq5kScCB71+rSPfz8ckXhw09IQL48+8/69qstLOcmfBHt4jvjom98uRYUf/Xzm1JB+ZoHHdsna+i29vH+Kn5eXd+/Ze+617Yjf0dRu3KNn2Cq5MOurEXT6oMXbjl/PN8uTeknbGradJQ3s6MSI8PiIQz9O8yWsAo8s/ey8vvQBr23eFZ56MuKf1a8P8iBeXh9nESA7DDy2S+ZJGSfZZ07ofliRG+f3c/eZ9uNNfeCxvUfd9/cLJUMAAhCAAAQgAAG7AlQJPK2tLY33C7OYqSRJpjK54nsNlkMaOPGOtlaKBR6psE7Er83nV51YFuIftiMuuzafXysSNBqvtdu4gl7E+PYlWv+PjhmaGsRVTAbvAlmrCxjioysCPYYti9J3C5HxYhcG0kNWCfQDD2hOxGnElPC0At21+YaYL0d5+C49ItB8FEeuCKS9tOK0vmQp+ccUgmYctMBOybpqKq6M3/fz6o2MJL6x1cisEaCDqd23R3rGDtZrd6ow5tCsgZ5ubh5+w2Yv2ZRwxWyn7GjYdDYdXOHlDwOtA480JXXvz3GJPD2gjHNiljd9/EaJed3oOPAYtNsr2bReiUqSFDmrHxE05yQrX7+InT2y+2cIM0AAAhCAAAQgAIHuE6BK4FFVy7LYXMmdBw1NDQ/uSLjsLFk1Bi0wP8s0vG+MWjLIx8v65TNyC8Nw9mmY03D+alZ7ZFkxCwNpfSav+/7XxOhYOU+gMJtZmbN7PkG8syutsUjUpPkRir8JI/zeTRTrStC2PAz8jG28RUoYueW1KRsjNafXSv6eBQQxd6/xDjch+Wl/YwuPvZLNttBse9rZ/rZTu22POrX2tttj8Q2/+OTO7xe/Mszbzc079Ovjehx7GraczbbKXizRbImQ2XasvGcMPNL0xCUjvAJe3ZfAN26MvT16huNr4YlyIAABCEAAAhCAQBcEqBF41E0lOWR6UbVhlIIn1UXpZPatRt0YBs5s3dGsm1otPEpBcnZMNIcRnb5z4TC/0FUHTnMY0ZyY2OvmXXE6Pk1UXD198INXXgqgu7n16uVGDBj/3l8XtU00cokye/c848DFhu4abj4L4s0Dz6BlacbAY7YW7bLEvH2mwGM+LLW9krtQcU2LdNMeGc/mn/1NQ3r4qhCCNuxLrpbOnoY28HTgbLYx7QaegrunNy+fMiLIz8uLIDwJgu7uZmpn0x2vZwo8ObwNEwO8QzecMB5ozYGwt0emg2W2/fgSAhCAAAQgAAEIOEaAGoGnpboojcwuMQYcdWNJNplWVE2N29qoFXiMp4xd6cNjiiiiWt4Vwd/bPhxC85y0Ra695Ul7nZ4+bV1U9nlGjuGHn5hSpe9RY+tEXNfCYx54zNsW7JX8XOr6c94jo3NX3oi5N5kp90y9d8T3983wpL98gKm5G9Cehi1ns41pJ/Ao0na87UOELtqeknCh8MqlwisJJxb1Nbaz6ZfteuDJl+19ayA9eMmBVEO3Lv2Bs7dHz+X4ohAIQAACEIAABCDQNQFqBB71oxs8Mq2gwjBMweOKgjSSd7MBLTxmJ7jWB7grgUfC5P19NJNpvBkpP+s/Q+kDlpC64ZI1PTFoYWtjjX3cm8U51Xm5hrNbmyfi2j48YWvj9DNre4+Y2hbslKzbNU1vmZ1rNsVcNm6e+S53MLX79kgfDjtYr82pCva26XT6tO+uGO4YLLjxwysEMfUoVzuAgR0Nm86myNpO4Gn4a3Egfdzuy/pOVio5P/7dALqxJ5VuWWnq76/SveccqDUVZe6suRGund5BcnHZ35+M8ew969vz7Tz5x84eWZWPjxCAAAQgABGgZ8cAACAASURBVAEIQMCRAo4MPGplfU11dXV1VZmUR7LzblVqPtQrNKlG3XhbwErNyLtR/qD2QfmNvAySnXeniRp5h2K3tBkjUDPryO5V265wjWe3nag3Red3jvMkBs/4dtehC8cjGD8vn9nXPXD2vrv6Nhw+a/lQwidk6aZ98cfCz2xfPmsAPWjBwbJOtPCo5NnJnwTTAiZvPRJ7LT2J/dP7bw4LNGtbsF2ydss7GodNf5rewRhu3bhHz7BVUtapt/t4+IR+umnv+WPhp7a+P9nfvd/svSWGMc267izLkZ45onl+qHaUNtqQBYePhMdHHEkjNSmxmdw23dN7yleRcn5OZWZiyo6P3x0b7GkVeOTCtM8H0fzGr/n54HlNOfplVTZLVuX98Wlv937T1jBORKWePK77Ic8kGupGJ45vh/mqE/UWy0IAAhCAAAQgAIGuCzgy8LRUFDBTrF6ksEzXrKNW1ZYW8jlsMpVkc/iFdx5SZcgCqvXhMQaerr1pzDi2a8GE4f6Eh5u7V8DgqYs2sbLMIpM4OW71W5OCfAl3un/QmEUrf8kXGkdVttPyoHsOzyAfGuE3+I1lv8auDvUyP9W2VbLulJefseHVIX2GzOvgOTwdTe2+PdIKd3GrNM/DWfnGy0G+hAfhHzR6/hd7cs07WdnSsOksvbB7HM3Qwcr4L+3/tiY1a/4KCGWHl789MtDLg+YbNPaDDZHszRMtjoL2L4Uy59S+OaH9Pd3dNAUYlrVZsv1eOrb2CJEGAhCAAAQgAAEIOFHAkYHH2YMPdHX9FO3D07XAg6UgAAEIQAACEIAABCDwIgkg8NiPQQg8TkzkWDUEIAABCEAAAhCAAASeRQCBB4Gn6zdEPkvNw7IQgAAEIAABCEAAAhBwgAACDwIPAg8EIAABCEAAAhCAAARcVgCBB4HHZSu3Ay4YYBUQgAAEIAABCEAAAhQXQOBB4EHggQAEIAABCEAAAhCAgMsKIPAg8Lhs5ab4xQZsHgQgAAEIQAACEICAAwQQeBB4EHggAAEIQAACEIAABCDgsgIIPAg8Llu5HXDBAKuAAAQgAAEIQAACEKC4AAIPAg8CDwQgAAEIQAACEIAABFxWAIEHgcdlKzfFLzZg8yAAAQhAAAIQgAAEHCCAwIPAg8ADAQhAAAIQgAAEIAABlxVA4EHgcdnK7YALBlgFBCAAAQhAAAIQgADFBRB4EHgQeFxPoODyxR83HjyS8ED2vP8AdV/JrncUsEcQgAAEIAABCFBCwOGB53FdaX4mmZKaXlTTYpE1njwqk+Vy05gkM42bKyt79MRiqjM/lJaWPu+zRkoc+27dKSHrswFEyH/5Rd26lraFO2q9kuOr+7v30rzc3Om+g8e+te3wxYeUOawNxz/o597LzWt2dF5bona/yTk9m9DujmaPfBf+0dDBvjx9ye2uzvLLIlbyxrlTBvl70j37Dp38+feny6SWM3SwMarn+b2jas7z3GbHK2GNEIAABCAAgZ4o4NDA09JQJuYymZxcAZe0CjyK8oL01LQcaWlZRfltGT8tNb2gXOHMlGO2bgSeLtRsZ50+Omq9msBDG75o+8Xjxy4d3bdv8Sh/9/4fHmQrKHI6K2GmHfj5xInkTmcwUUnsn/ER4fF/7vhipIeNwKN66pLtVh4hf/1YL/rA+Wt2xkYe+nPFlGAP3zd+SGp2tKSjao6j98uuP2aAAAQgAAEIuLyAIwOPuqlEkFVw+6Gq+Y7AMvCom0pyyLSCcpU+ZqgqxGlkTkmT2ix2OO8tAk8Xfg2cdfroqPVqAg89bN35Jt35q5QZOd2HGL+x0AlNE104Oh0vIr2yfxLdVuB57ufrkqi1QbThy6L02UzGi10YSA9ZLXDVtsHnDogCIQABCEAAAhCwI+DIwNPaolRqblRTK25bBZ6W6qI0kn+72RBw1M23+WSa9U1vzoo8FA08TedWhPpP2J0keqobexS8U/sXT3qptyfN3d0rcMSspTsFeWJTCeIrCWtnTw7286QRfYZMWvbtSbObi0RXvxruNXZt8rE1i0L7+hDewWPn7IvmKA01TJnLOLJ4/GAfulfA8HdWhZ/5LNjiljZbJevOv/mZG6YM7Tt0/vb4RkOZpg2TdzjVOeu1CjzyAtHGMUTA4otiQ5awub/ddhTEt3e+5mm4NY0+dr3IMoAphYmnV8wc39+boHn2HTLxk43HbhYaNlhn3mHgsVmy6QY/w7p79aKbx7+ONZT8vQsJYs4eY0UqkG4dT/i9myiWqKRXDkz2evl/ic1ySX3Ewv7eL22JyVfJRfw1I31m7r4vk6g06yVmbo449tHLw/0Ir4Ahs5b9Wlhgtkcdr1cll9ipOe1UQrOSMRUCEIAABCAAgR4j4NDAo08sbQOP+uE1LpkprzX06mmplXNITnGdIQA5K+ro1utCgUfGPTe/t0fg5K9/OnTx+J9nty+d2tsjePEfFfqu7Xz2F8MJYvDCtbviIg9FrHxtIM1nxncX9Y0Yck3gIYJHvT7t498PRyQe3LQ0xMujz7x/r+ryUk7yJ8EeniM++ua3S1HhRz+fOTWkn1ngsV2y9jxSenn/FD8vL+/es/fca9vVvsOpTlpvm8BTuDmM8FkQrw88Nve3G4+CpIEdnRgRHh9x6MdpvoRV4JGln53Xlz7gtc27wlNPRvyz+vVBHsTL6+Ms4mWHgcd2yTwp4yT7zAndDyty4/x+7j7Tfrypj1u2NJTZu+cRxLx9psAj3zbRIJmX8K5/vw8jG+QF0q2vvP7KKx/uv6qS555f6D942T+azdYcBdrAkTPW7o+5yWMKDnwc5klMNO2RrfWq5LZrDrINBCAAAQhAAAIuI0CNwNPaUlfMJVnZ8opHyseqxsribFZqmqSKIuMWUCzwSIV1In5tPr/qxLIQ/7Adcdm1+fxakaDR8lq+WduIWWUtYnz7Eq3/R8cMXdLFVUwG7wJZqwsY4qMrAj2GWd9ctMpwc5Em8NCIKeFpBbrCG2K+HOXhu/SIQPNRHLkikPbSitP6kqXkH1MImnHQAjsl67ZQXBm/7+fVGxlJfGOrkdledDDVWeu1HXhs72/3HQXThRbh5Q8DrQOPNCV1789xiTw9r4xzYpY3ffxGiXnN6TjwGI5FeyWb1itRSZIiZ/UjguacZOXrF7GpYTPwiPK+DvWe9uNtmfDyklHLPnzzlXVxTdIrByd7T/8+RdNdSnMU3PstDq/Vb8DVc3N9TTcW2lyvnRprvkd4DwEIQAACEIBAzxagSOBpbX1cV5KXQaakpKSQGVlcdmqm7IGhvce57TutrdQKPI1RSwb5eFm/fEZuYRjOL23USFlWzMJAWp/J677/NTE6Vs4TmHeyV+bsnk8Q7+xKaywSNWl+hOJvwvQ3F2nK1LbwDPyMbbwJShi55bUpGyM1J9BK/p4FBDF3r/E6vZD8tL+xhcdeyWaRzMbGtzfJWevVnmqb9eGRF5i38NjZ3247CoZMIlHJ7cUSDaaQ2XYkvWcMPNL0xCUjvAJe3ZfAN26MbQ2bgUdS9dubPsNX8sTMP6b93779y8cvOFQnObluYMCyyDxN+brYuTbO0AiZn/b5QGLEf65q+//YWa/NGmvceLyBAAQgAAEIQKDnC1Am8GhSjfpx86NHDXUlAhaTX0qREQtaqRZ4lILk7JhoDiM6fefCYX6hqw6c5jCiOTGx18274rSXDXSVVXH19MEPXnkpgO7m1quXGzFg/Ht/XdQ20cgl2lNPUx8M3Ts3021a2sAzaFmaMfCYraXNaavF4AH2Sn6GwGN9Q5SD1msn8Gi2yoakpJuOgtnfo3YDT8Hd05uXTxkR5OflRRCeBEF3dzO1wumO5jMFnhzehokB3qEbThhzr+bI2j76bWpOgdktbZLGs8uH+85l8E98Pfr9RPaOOZM2FGTvW+Qz+qeL2mZG63Y2beAZvlIfeGwehTbrtag5ZpJdr5woBAIQgAAEIAABaghQKvBoQo+qQpyemimtocjtbJpNolYLj7HedG3QAsPiolreFcHf2z4cQvOctEWuvalJe0WcPm1dVPZ5Ro7hh5+YUqXvUWMz8Givl5v1xLBoPbBXctfPKXUtPI5fb9vAI/qfadCCTu/vcz4KhoPbfguPIm3H2z5E6KLtKQkXCq9cKryScGJRX2MrnH7ZrgeefNnetwbSg5ccSDW0t+gPq20NW4MWyCWKjO/f8J74C+OnhZP+Jyn4e9XIxefj1k30eet0rrZw24FH02LZYX22XXPMJLteOVEIBCAAAQhAAALUEKBY4HlSK+eSbGGZghrDFehupnOhwCNh8v4+msk03m6Un/WfofQBS0iJ9qxO0+eBFrY21tiLvVmcU52Xazh/tRV4dD0iwow3F2n7h5haD+yUrDun1PTS2blmU8xl4+aZn2t2MFXbh8cJ67U61ZYy/5zmbdl7pGPJ7jsKpja3dlp4Gv5aHEgft/uyvguWSs6PfzeAbuxnpW/hSf39Vbr3nAOGXjHmh0D3vp2SVXJx2d+fjPHsPevb8+08+cf20Zf8Y2tYanHEF32CV21ZPmnhoTpp8m9TXt3zw6J+Q7/I1DUzWh0FuUULj8r2em3XHJNkWwF8AwEIQAACEIBAzxJwZOBRK+trqqurq6vKpDySnXerUvOh3izbqBtKcpjk1ZuPqBR3KNvC08w6snvVtitc4/lrJ2pe0fmd4zyJwTO+3XXowvEIxs/LZ/Z1D5y9765hlDbW8qGET8jSTfvij4Wf2b581gB60IKDZZ1o4VHJs5M/CaYFTN56JPZaehL7p/ffHBZo1nrAt1mydss7HIfN9lQnrVdzqq1/8GhS5C/73g31c+//0SHjg0dt7m/3HQVZjvTMEc3zQ7WjtNGGLDh8JDw+4kgaqcmQzeS26Z7eU76KlPNzKjMTU3Z8/O7YYE+rwCMXpn0+iOY3fs3PB89rytEvq7JZsirvj097u/ebtoZxIir15HHdD3km0VBzbGrIdQ8eHbRgjXZswC//L9jD783thgePShN3jfOdO+eNVzVZOjdh8UvvzZ3kO/XH27o6aTvwyG2v13bN6cRvE0IRBCAAAQhAAAI9Q8CRgaelooCpGZXA/EUKyx7r2lFaWxX3RWmpGUXVxi8ME5z8L0VbeLrWRNiYcWzXggnD/QkPN3evgMFTF21iZZlFJnFy3Oq3JgX5Eu50/6Axi1b+ki80PqXHZguP4akmg3xohN/gN5b9Grs61Mv8ZNpWybqTS37GhleH9Bkyr4Pn8HQ0Vfc0FUevV3Oq7a7tpuPmTvcZNOatrb9ftGjcsLm/3XUUpBd2j6NZdx7qRfu/rbr8IJQdXv72yEAvD5pv0NgPNkSyN0+0OEbav1nKnFP75oT293R30xRkWNZmybZ76Wgqqk0NVREreePcVwf6edI8+w1/deWO6HLTwHE50XO8fXx6v7ufp5KLhOvH9Pbx7v/xX/rBAO0EHjvrtVNzesZfcAQzCEAAAhCAAATsCjgy8Dg5t3R59S4VeLoWk7AUBCAAAQhAAAIQgAAEeqYAAo/9HITAYzc3YwYIQAACEIAABCAAAQhQUwCBB4EHt+5AAAIQgAAEIAABCEDAZQUQeBB4XLZyU/MaA7YKAhCAAAQgAAEIQMCRAgg8CDwIPBCAAAQgAAEIQAACEHBZAQQeBB6XrdyOvHKAdUEAAhCAAAQgAAEIUFMAgQeBB4EHAhCAAAQgAAEIQAACLiuAwIPA47KVm5rXGLBVEIAABCAAAQhAAAKOFEDgQeBB4IEABCAAAQhAAAIQgIDLCiDwIPC4bOV25JUDrAsCEIAABCAAAQhAgJoCCDwIPAg8EIAABCAAAQhAAAIQcFkBBB4EHpet3NS8xoCtggAEIAABCEAAAhBwpAACDwIPAg8EIAABCEAAAhCAAARcVgCBB4GHUpVblnGPt1PMO/+IUluFjYEABCAAAQhAAAIQ6KkCjg08auWDEgk/k02SzDRunvx+Q4spbjx5dE8q4LJJkmRzBdJ7j56YJjn5XWlpqSMb3Ry0LoVwcyJjXEa2QPW0dVeWmJcwKp71r+JpF5RLVPaWbc5Zyfh35JnYz28WOcjhqXe/C3uNRSAAAQhAAAIQgAAEnCbgyMDTUn8zm0ly8m/cq6i8XyLhsUiO7IE+1zyuKsxIZedIb5dXlt+W5rBTMwqrHjs56BhW75KBR9xw9ZNzjDeF+aKnPuOXHsuIGZXKTVN2odbaXVaaXMr7/aaQ05XCu7A9WAQCEIAABCAAAQhAwMUFHBh41A9kGSS3uE7fqqOuv55FphfVaD8+LhexmLl3FLqMoVbcyWWyROUUSTwuGXhEFWlvRscsu/H0DSlK0Y4kxstZAuFTJyW55FmW7cLqsAgEIAABCEAAAhCAwAsv4MjAo3xUU1OvUBsaTlR380hSVK4JPOqmkmwyU15rmKaulWeS2SVNhs+GRZzzL0UDT9O5FaH+E3YnPX0TjSbE598hJ529tOeBdaAXPsj5Lv3i1JiYkGjG2LjET/MFmfrGFllCXkLomX9HWv6ExLMYhnvbcquvbmQlTmHEhCUkfX8nZ0N8zHtSiVjzO2Z3WRkjJz7EUHI7N9opxCdEKfMTYsecjZmYmPR1sSj3hf/VxS1/EIAABCAAAQhAAAKdEXBg4LFKK+o6OYfkFj/UhBp1461skiOva2ko4afzSxpaNNOybzUi8Ng4rX+2wCO8w57PyrxgdedYU+6GRMbEZOae6zmnSnMOCpJeiY5bWSLV1SRuJT+qJOfvotTXo2PeE+ZElWh+/rlXoOsFJH6U81U8Y0ISues6/9TNzM9ZF2aejVt7R9aZZSUqWUa5pvCom+kfMNrcaKeURGaeHxVzcVUB76+bvB0ZiWOj47++q9+qztRyzAMBCEAAAhCAAAQg8MIKOC3wqCrF6ST3mjbvGAPPkxppemq6tOYJAk/HNVIqrBPxa/P5VSeWhfiH7YjLrs3n14oEjc8hAOTfZU05m/hdpT6lSFRFzAphcr3xo65piDnp7IUfqyy+lKhkKeKLo2NTjhpGV2MXXhp19tLeWosWpPw77S5rmkdcn/XB2Zil1y1utBPdZ08/G7/uTpG2sUguUeRtuRT3Vl5e15q2OoY1bQbmgQAEIAABCEAAAhBwGQHnBB61olycQWZIKpW6Zh9DCw8Cj/2K1Ri1ZJCPl/XLZ+QWRr6N5qDOTRKVs6dHx7ydxT12R5hcV9RuokgvShr975WjTVbxoPAwK2Zs2tVsw4pYkkujY8iThrvddPvVwbKmokRl7KlnE7aUm6cp2ZWCC6PjmNGWRdmHMmwJ5oQABCAAAQhAAAIQeJEFnBB41MpqOY/FunrtgXFQAmPg0fTdyZTXooXHlAGsa6dSkJwdE81hRKfvXDjML3TVgdMcRjQnJvZ6nr4B5JlO9AtjJKnzE2JHRf878gwjLPHyj/cM7Sr6YmX/5pwfdSEt0epeOEXeN4mMmXlCQ0aSneHFjU7OTLGYrYNlzTb4avHl0WcvHzY0E2n3XfYPJ3Z0FweF65jRbKXWwpgEAQhAAAIQgAAEIOBCAo4OPOrmyqIsJosnq1aaddAxDlqgVjyseahUY9CCTpypP1sfHttn+QXNhcz7V9dcZIxKzky1CC2FvzMZo9m8q5a/A7pBrpcUG9KRUrwvhTGek5NnMVv7y5ptiSw+N2FUPDvGvDFHKd5zhTGJJ3j29iuzFXWC12LLMT8EIAABCEAAAhCAQE8VcGjgaWksE3NIVva1GpXVCAaP72uGpb6LYamf4qT8eQcecVNB7G1Bkql1RfoPN270FQ5pHngUwi2JjNf41v1nxLWcRWdjPrmm73sjrsv64F/GbJGowDw2dLCs2S4X/ZkWM5rMyjRfSin6MYkxKYtvyE6yRNGlVy6xGc099VfObH+xCxCAAAQgAAEIQAAC3S7gwMCjrivmkGRG3vWySuOrqrZJ9+RR/YNHZdoHj8q0Dx6tNt7xZpWOHP2RosNSN7OO7F617QrXIlSYR4WnfC9uyF7GYExKYf92k3+qNPtAXvK0c7EfSMUWd8op8r5JYIxLZv1+UzNE26nKQv3UZsG684zRF1L23BScvJG5Kv3i9LOMN69ejakxtPmoNIMNdLCsOFY74FvULe6XCYwwMv0vzcfclEZd7ZeezY4P/TdxpSQ76tbVvTlJU87GLS0WP6+9RvyAAAQgAAEIQAACEHBtAQcGnpYqCTs1xfKVahp7+smje0UCDptMJdncXFnZI10QcnS4aW99FA08T5lnOlGPZRm30z9NOj/u7L8vnY155eLldVKh1a1rEpWMdZM573yM9pk5FuNHZ95Oey8hdvS52Okk68/qgmO8xPHRjFnCfEOvHs3TeNpdVlSeNkPTZcjy52zSgXp93Bc3CvdnXZrKYISejZ2anPJDSYGhtafbrwd0Ag3bAAEIQAACEIAABCBAaQEHBp72skSP+O6FCTyUrqnIHhCAAAQgAAEIQAACEOiCAAKP/cyFwNOFioVFIAABCEAAAhCAAAQgQAUBBB4EHjTsQAACEIAABCAAAQhAwGUFEHgQeFy2clPhigK2AQIQgAAEIAABCEDAuQIIPAg8CDwQgAAEIAABCEAAAhBwWQEEHgQel63czr2WgLVDAAIQgAAEIAABCFBBAIEHgQeBBwIQgAAEIAABCEAAAi4rgMCDwOOylZsKVxSwDRCAAAQgAAEIQAACzhVA4EHgQeCBAAQgAAEIQAACEICAywog8CDwuGzldu61BKwdAhCAAAQgAAEIQIAKAgg8CDwIPBCAAAQgAAEIQAACEHBZAQQeBB6XrdxUuKKAbYAABCAAAQhAAAIQcK4AAs9zDDyy/EcFQgXyAwQgAAEIQAACEIAABCBAFQEEnucReJT8s4fenTA0wMd35IqMQudGWKwdAhCAAAQgAAEIQAACEDAKODbwqJUPSiT8TDZJMtO4efL7DS3mceNxXWl+JpmSml5UY/G9+TzOeF9aWmr0aveNMH3lCL8B/7flwN8Z8ak1snbnwZcQgAAEIAABCEAAAhCAgOMFHBl4WupvZjNJTv6NexWV90skPBbJkT14ooswLQ1lYi6TyckVcMmeFnikrIgZ/r0XHKylSrOd46sR1ggBCEAAAhCAAAQgAAFqCjgw8KgfyDJIbnGdvvVGXX89y5ht1E0lgqyC2w9VzXcExi+d0ZqjXWepvZflsZRxT7ztH/DOvgq07SDyQQACEIAABCAAAQhAgFoCjgw8ykc1NfUKtSHHqO7mkaSoXJd/WpRKTVuPWnGbGoHHMtJYHLO2d7jlnV8c6P/6DzekNpbCJAhAAAIQgAAEIAABCEDA8QIODDyGoKP/V10n55Dc4ofGAKT5vmcGHmHy0mD/yZsLEXgskqHjazPWCAEIQAACEIAABCAAASsBpwUeVaU4neRes8w7PSvwFDSIBLX5ORXsv7dM8A/9PKoOp/sQgAAEIAABCEAAAhCAALUEnBN41IpycQaZIalUWjf79KBb2iRHv+zn7eXl5e3TZ+zcb3OEYhW1Dq1VtMVHCEAAAhCAAAQgAAEIvIACTgg8amW1nMdiXb324LFV3KHcLW1Wgxfo6oehD48sSxZ3lsM4w/xz8/vD+0zbEt+EwAMBCEAAAhCAAAQgAAEIUEvA0YFH3VxZlMVk8WTVSovOO4aOPT2ohcd0IIXJS4P8p2yVoQ+PyeQFvHiAXYYABCAAAQhAAAIQoKCAQwNPS2OZmEOysq/VqNq07ei+6KGDFiS838d/6nfXEHgQeCAAAQhAAAIQgAAEIEAtAQcGHnVdMYckM/Kul1UaX1W1Tdonj6qV9TXV1dXVVWVSHsnOu1Wp+WA2hHUH+ag7vlar1aWlpdKGa+3GU2nDNc0tbUrzoyjLOjXHP2D2nvt4Do85C95DAAIQgAAEIAABCEDA+QIODDwtVRJ2aorlKzX7VqPm1raWigKm5ZSUFFJY1raTT3dEnDZlNjY2lt653TbzSBuuldwpkddft8xCUlbEDP/eC39/6PzDablh2B4IQAACEIAABCAAAQi86AIODDxtcgWVv1AoFFaZR5d22qYgiUrOv/BRkN/I904lZdaIhIoXvUohdEEAAhCAAAQgAAEIQIA6Agg8HcYu88xjI+1ojmUT87cVY/v4eHv5jlyRUUido4stgQAEIAABCEAAAhCAwAsugMDTYeBpbW3VZR557fWSOyXttu2Y1R5pTmly7NWE1Br05EEbFwQgAAEIQAACEIAABKgigMBjK/C0trY2NzdrxjB41P4YBmaBhypHFJsEAQhAAAIQgAAEIAABCBgFEHjsBJ7W1lbDk0YRaSAAAQhAAAIQgAAEIACBHiaAwIPA08OqrDGs4w0EIAABCEAAAhCAAATsCiDwIPAg8EAAAhCAAAQgAAEIQMBlBRB4EHhctnLbjfuYAQIQgAAEIAABCEDA5QUQeBB4EHggAAEIQAACEIAABCDgsgIIPAg8Llu5Xf5yBXYQAhCAAAQgAAEIQMCuAAIPAg8CDwQgAAEIQAACEIAABFxWAIEHgcdlK7fduI8ZIAABCEAAAhCAAARcXgCBp+uBp6BBlNckc/kqgh2EAAQgAAEIQAACEIBAzxVA4LETeB41NJSWlsrqrrc5xpKjX/bz9gkcMv3jnXn5baai2QQCEIAABCAAAQhAAAIQcL6AYwOPWvmgRMLPZJMkM42bJ7/f0GKMGzYmGedx+Jua2prSu6Wy+mu37pZcq7lhmWpkWbLYU0l7l04J9HtlY3yT84+l5eZheyAAAQhAAAIQgAAEIAABuSMDT0v9zWwmycm/ca+i8n6JhMciObIHT7QpxsYkh6cc3Qa1tNyvuH+rvKRQUSxRyQsVxTfKb90ov6X7aBYtpKyIGf695/1Wg8oEAQhAAAIQgAAEIAABCFBOwIGBR/1AlkFyi+v0rTrq+utZZHpRjeajjUnOyDsqlerOvTvXa26aBRvNkbtWc+PW3ZKiJk0EMvxIrxx6zb/ve0ceGb/BAYMuwwAAAuRJREFUGwhAAAIQgAAEIAABCECAKgKODDzKRzU19Qq1IcKo7uaRpKhcG3g6nmSY22H/qtXq23dvy+rbdtrRHDPZw+u37pYUKo3Hr+j8T2H+wz//p9H4Dd5AAAIQgAAEIAABCEAAAlQRcGDgsYos6jo5h+QWPzQGINN0G5NMM3Xju9LSUkMDTjvHyXJq4blto/zHrjrXpg9PaekfdZzpTZf6NF3qU8eZXlr6h40yMQkCEIAABCAAAQhAAAIQ6A4BpwUeVaU4neReay/v2JjUjSnHrGjLSGOdeSynyrJiFgf3m7qBk8l7kM+vEwkVcolS+oA3R3W+l9XPA94ciVLaHUcRZUIAAhCAAAQgAAEIQAAC7Qo4J/CoFeXiDDJDUqk0ixm6tzYmtZm3u76wjDS2A49cosiO+nHm8D7eXl5eXr4jV2QUlkm/sYo6xo9l0m/aPQz4EgIQgAAEIAABCEAAAhDoDgEnBB61slrOY7GuXnvw2Dqx2JhkPWt3fjYGnlLLl+4AGKfqPgo4q8f1G/3ekWMnMhnR3ITUGtkjMtSYcKzePCJDu+MookwIQAACEIAABCAAAQhAoF0BRwcedXNlURaTxZNVK60779iY1J3ppp2yrSKNFZzl1KKY70f7j/lvtFkfHmUCYZVzjB+VCYRVafgIAQhAAAIQgAAEIAABCHSfgEMDT0tjmZhDsrKv1aisY4aNSdazdv9ny0hj+5a2otgfx/m/tOKkWeBpuhxkTDhWb5ouB3XfsUTJEIAABCAAAQhAAAIQgICVgAMDj7qumEOSGXnXyyqNr6raJs2TR21M6v5403YNTxN4pMn7p/j3/zCiwZSLaq7Os8o5xo81V+dbHQB8hAAEIAABCEAAAhCAAAS6T8CBgaelSsJOTbF8pWbfalS3ttqY1DaOdP83TxV40iJn+vee91uNKfBcr2Co4t2NIcf0Jt79emVs9x1LlAwBCEAAAhCAAAQgAAEIWAl0LfD8f4IQt7c7jCGuAAAAAElFTkSuQmCC;" vertex="1" parent="1">
          <mxGeometry x="1160" y="60" width="1104" height="360" as="geometry" />
        </mxCell>
      </root>
    </mxGraphModel>
  </diagram>
</mxfile>
